%TF.GenerationSoftware,KiCad,Pcbnew,5.99.0-unknown-56f6e7cc17~117~ubuntu20.04.1*%
%TF.CreationDate,2021-03-07T11:50:42-05:00*%
%TF.ProjectId,SK6812MINI-E Breakout Test,534b3638-3132-44d4-994e-492d45204272,rev?*%
%TF.SameCoordinates,Original*%
%TF.FileFunction,Legend,Bot*%
%TF.FilePolarity,Positive*%
%FSLAX46Y46*%
G04 Gerber Fmt 4.6, Leading zero omitted, Abs format (unit mm)*
G04 Created by KiCad (PCBNEW 5.99.0-unknown-56f6e7cc17~117~ubuntu20.04.1) date 2021-03-07 11:50:42*
%MOMM*%
%LPD*%
G01*
G04 APERTURE LIST*
%ADD10C,0.150000*%
%ADD11C,0.187500*%
%ADD12C,0.120000*%
G04 APERTURE END LIST*
D10*
X144190476Y-122361666D02*
X143714285Y-122361666D01*
X144285714Y-122647380D02*
X143952380Y-121647380D01*
X143619047Y-122647380D01*
X142952380Y-122123571D02*
X142809523Y-122171190D01*
X142761904Y-122218809D01*
X142714285Y-122314047D01*
X142714285Y-122456904D01*
X142761904Y-122552142D01*
X142809523Y-122599761D01*
X142904761Y-122647380D01*
X143285714Y-122647380D01*
X143285714Y-121647380D01*
X142952380Y-121647380D01*
X142857142Y-121695000D01*
X142809523Y-121742619D01*
X142761904Y-121837857D01*
X142761904Y-121933095D01*
X142809523Y-122028333D01*
X142857142Y-122075952D01*
X142952380Y-122123571D01*
X143285714Y-122123571D01*
X141857142Y-121980714D02*
X141857142Y-122647380D01*
X142095238Y-121599761D02*
X142333333Y-122314047D01*
X141714285Y-122314047D01*
X141333333Y-122123571D02*
X141000000Y-122123571D01*
X140857142Y-122647380D02*
X141333333Y-122647380D01*
X141333333Y-121647380D01*
X140857142Y-121647380D01*
X140428571Y-122647380D02*
X140428571Y-121647380D01*
X139857142Y-122647380D01*
X139857142Y-121647380D01*
X144404761Y-124257380D02*
X144404761Y-123257380D01*
X144071428Y-123971666D01*
X143738095Y-123257380D01*
X143738095Y-124257380D01*
X143261904Y-124257380D02*
X143261904Y-123257380D01*
X142785714Y-124257380D02*
X142785714Y-123257380D01*
X142214285Y-124257380D01*
X142214285Y-123257380D01*
X141738095Y-124257380D02*
X141738095Y-123257380D01*
X141261904Y-123876428D02*
X140500000Y-123876428D01*
X140023809Y-123733571D02*
X139690476Y-123733571D01*
X139547619Y-124257380D02*
X140023809Y-124257380D01*
X140023809Y-123257380D01*
X139547619Y-123257380D01*
D11*
X132839285Y-119732142D02*
X132089285Y-119732142D01*
X132089285Y-119910714D01*
X132125000Y-120017857D01*
X132196428Y-120089285D01*
X132267857Y-120125000D01*
X132410714Y-120160714D01*
X132517857Y-120160714D01*
X132660714Y-120125000D01*
X132732142Y-120089285D01*
X132803571Y-120017857D01*
X132839285Y-119910714D01*
X132839285Y-119732142D01*
X132089285Y-120625000D02*
X132089285Y-120767857D01*
X132125000Y-120839285D01*
X132196428Y-120910714D01*
X132339285Y-120946428D01*
X132589285Y-120946428D01*
X132732142Y-120910714D01*
X132803571Y-120839285D01*
X132839285Y-120767857D01*
X132839285Y-120625000D01*
X132803571Y-120553571D01*
X132732142Y-120482142D01*
X132589285Y-120446428D01*
X132339285Y-120446428D01*
X132196428Y-120482142D01*
X132125000Y-120553571D01*
X132089285Y-120625000D01*
X132089285Y-121267857D02*
X132696428Y-121267857D01*
X132767857Y-121303571D01*
X132803571Y-121339285D01*
X132839285Y-121410714D01*
X132839285Y-121553571D01*
X132803571Y-121625000D01*
X132767857Y-121660714D01*
X132696428Y-121696428D01*
X132089285Y-121696428D01*
X132089285Y-121946428D02*
X132089285Y-122375000D01*
X132839285Y-122160714D02*
X132089285Y-122160714D01*
X134625000Y-120428571D02*
X134589285Y-120357142D01*
X134589285Y-120250000D01*
X134625000Y-120142857D01*
X134696428Y-120071428D01*
X134767857Y-120035714D01*
X134910714Y-120000000D01*
X135017857Y-120000000D01*
X135160714Y-120035714D01*
X135232142Y-120071428D01*
X135303571Y-120142857D01*
X135339285Y-120250000D01*
X135339285Y-120321428D01*
X135303571Y-120428571D01*
X135267857Y-120464285D01*
X135017857Y-120464285D01*
X135017857Y-120321428D01*
X135339285Y-120785714D02*
X134589285Y-120785714D01*
X135339285Y-121214285D01*
X134589285Y-121214285D01*
X135339285Y-121571428D02*
X134589285Y-121571428D01*
X134589285Y-121750000D01*
X134625000Y-121857142D01*
X134696428Y-121928571D01*
X134767857Y-121964285D01*
X134910714Y-122000000D01*
X135017857Y-122000000D01*
X135160714Y-121964285D01*
X135232142Y-121928571D01*
X135303571Y-121857142D01*
X135339285Y-121750000D01*
X135339285Y-121571428D01*
X137839285Y-120232142D02*
X137089285Y-120232142D01*
X137089285Y-120410714D01*
X137125000Y-120517857D01*
X137196428Y-120589285D01*
X137267857Y-120625000D01*
X137410714Y-120660714D01*
X137517857Y-120660714D01*
X137660714Y-120625000D01*
X137732142Y-120589285D01*
X137803571Y-120517857D01*
X137839285Y-120410714D01*
X137839285Y-120232142D01*
X137839285Y-120982142D02*
X137089285Y-120982142D01*
X137839285Y-121339285D02*
X137089285Y-121339285D01*
X137839285Y-121767857D01*
X137089285Y-121767857D01*
X130053571Y-120035714D02*
X130053571Y-120607142D01*
X130339285Y-120321428D02*
X129767857Y-120321428D01*
X129589285Y-121321428D02*
X129589285Y-120964285D01*
X129946428Y-120928571D01*
X129910714Y-120964285D01*
X129875000Y-121035714D01*
X129875000Y-121214285D01*
X129910714Y-121285714D01*
X129946428Y-121321428D01*
X130017857Y-121357142D01*
X130196428Y-121357142D01*
X130267857Y-121321428D01*
X130303571Y-121285714D01*
X130339285Y-121214285D01*
X130339285Y-121035714D01*
X130303571Y-120964285D01*
X130267857Y-120928571D01*
X129589285Y-121571428D02*
X130339285Y-121821428D01*
X129589285Y-122071428D01*
D10*
%TO.C,D2*%
X134738095Y-116452380D02*
X134738095Y-115452380D01*
X134500000Y-115452380D01*
X134357142Y-115500000D01*
X134261904Y-115595238D01*
X134214285Y-115690476D01*
X134166666Y-115880952D01*
X134166666Y-116023809D01*
X134214285Y-116214285D01*
X134261904Y-116309523D01*
X134357142Y-116404761D01*
X134500000Y-116452380D01*
X134738095Y-116452380D01*
X133785714Y-115547619D02*
X133738095Y-115500000D01*
X133642857Y-115452380D01*
X133404761Y-115452380D01*
X133309523Y-115500000D01*
X133261904Y-115547619D01*
X133214285Y-115642857D01*
X133214285Y-115738095D01*
X133261904Y-115880952D01*
X133833333Y-116452380D01*
X133214285Y-116452380D01*
%TO.C,J1*%
X127833333Y-122952380D02*
X127833333Y-123666666D01*
X127880952Y-123809523D01*
X127976190Y-123904761D01*
X128119047Y-123952380D01*
X128214285Y-123952380D01*
X126833333Y-123952380D02*
X127404761Y-123952380D01*
X127119047Y-123952380D02*
X127119047Y-122952380D01*
X127214285Y-123095238D01*
X127309523Y-123190476D01*
X127404761Y-123238095D01*
D12*
X131230000Y-122170000D02*
X131230000Y-124830000D01*
X131230000Y-124830000D02*
X138910000Y-124830000D01*
X128630000Y-123500000D02*
X128630000Y-124830000D01*
X128630000Y-124830000D02*
X129960000Y-124830000D01*
X138910000Y-122170000D02*
X138910000Y-124830000D01*
X131230000Y-122170000D02*
X138910000Y-122170000D01*
%TD*%
M02*
