%TF.GenerationSoftware,KiCad,Pcbnew,5.99.0-unknown-56f6e7cc17~117~ubuntu20.04.1*%
%TF.CreationDate,2021-03-07T11:50:42-05:00*%
%TF.ProjectId,SK6812MINI-E Breakout Test,534b3638-3132-44d4-994e-492d45204272,rev?*%
%TF.SameCoordinates,Original*%
%TF.FileFunction,Copper,L1,Top*%
%TF.FilePolarity,Positive*%
%FSLAX46Y46*%
G04 Gerber Fmt 4.6, Leading zero omitted, Abs format (unit mm)*
G04 Created by KiCad (PCBNEW 5.99.0-unknown-56f6e7cc17~117~ubuntu20.04.1) date 2021-03-07 11:50:42*
%MOMM*%
%LPD*%
G01*
G04 APERTURE LIST*
%TA.AperFunction,SMDPad,CuDef*%
%ADD10R,1.800000X0.820000*%
%TD*%
%TA.AperFunction,ComponentPad*%
%ADD11R,1.700000X1.700000*%
%TD*%
%TA.AperFunction,ComponentPad*%
%ADD12O,1.700000X1.700000*%
%TD*%
%TA.AperFunction,ViaPad*%
%ADD13C,0.800000*%
%TD*%
%TA.AperFunction,Conductor*%
%ADD14C,0.250000*%
%TD*%
G04 APERTURE END LIST*
D10*
%TO.P,D1,4,DIN*%
%TO.N,DIN*%
X136500000Y-117750000D03*
%TO.P,D1,3,GND*%
%TO.N,GND*%
X136500000Y-119250000D03*
%TO.P,D1,2,DOUT*%
%TO.N,DOUT*%
X131500000Y-119250000D03*
%TO.P,D1,1,VDD*%
%TO.N,+5V*%
X131500000Y-117750000D03*
%TD*%
D11*
%TO.P,J1,1,Pin_1*%
%TO.N,+5V*%
X129960000Y-123500000D03*
D12*
%TO.P,J1,2,Pin_2*%
%TO.N,DOUT*%
X132500000Y-123500000D03*
%TO.P,J1,3,Pin_3*%
%TO.N,GND*%
X135040000Y-123500000D03*
%TO.P,J1,4,Pin_4*%
%TO.N,DIN*%
X137580000Y-123500000D03*
%TD*%
D13*
%TO.N,GND*%
X133500000Y-121000000D03*
X135000000Y-121000000D03*
X136500000Y-121000000D03*
%TO.N,+5V*%
X130000000Y-119000000D03*
%TO.N,DOUT*%
X131500000Y-121000000D03*
%TO.N,DIN*%
X138430000Y-118930000D03*
%TD*%
D14*
%TO.N,+5V*%
X129960000Y-123500000D02*
X129960000Y-118894980D01*
X129960000Y-118894980D02*
X131104980Y-117750000D01*
X131104980Y-117750000D02*
X131500000Y-117750000D01*
%TO.N,DOUT*%
X131500000Y-122500000D02*
X131500000Y-121000000D01*
X131500000Y-121000000D02*
X131500000Y-119250000D01*
X132500000Y-123500000D02*
X131500000Y-122500000D01*
%TO.N,DIN*%
X137580000Y-123500000D02*
X138430000Y-122650000D01*
X138430000Y-118930000D02*
X137250000Y-117750000D01*
X138430000Y-122650000D02*
X138430000Y-118930000D01*
X137250000Y-117750000D02*
X136500000Y-117750000D01*
%TD*%
%TA.AperFunction,Conductor*%
%TO.N,GND*%
G36*
X136696121Y-119016002D02*
G01*
X136742614Y-119069658D01*
X136754000Y-119122000D01*
X136754000Y-120154885D01*
X136758475Y-120170124D01*
X136759865Y-120171329D01*
X136767548Y-120173000D01*
X137397743Y-120173000D01*
X137402250Y-120172839D01*
X137466269Y-120168260D01*
X137479491Y-120165874D01*
X137604458Y-120129181D01*
X137618156Y-120122925D01*
X137688430Y-120112820D01*
X137753011Y-120142312D01*
X137791396Y-120202038D01*
X137796500Y-120237538D01*
X137796500Y-122014394D01*
X137776498Y-122082515D01*
X137722842Y-122129008D01*
X137653940Y-122139301D01*
X137653332Y-122139220D01*
X137649516Y-122138714D01*
X137649509Y-122138714D01*
X137644230Y-122138014D01*
X137638900Y-122138214D01*
X137638899Y-122138214D01*
X137545320Y-122141727D01*
X137413831Y-122146663D01*
X137331368Y-122163966D01*
X137193411Y-122192912D01*
X137193408Y-122192913D01*
X137188184Y-122194009D01*
X136973740Y-122278697D01*
X136776631Y-122398306D01*
X136772601Y-122401803D01*
X136662739Y-122497136D01*
X136602492Y-122549415D01*
X136599109Y-122553541D01*
X136599105Y-122553545D01*
X136544212Y-122620493D01*
X136456304Y-122727705D01*
X136423992Y-122784469D01*
X136419842Y-122791760D01*
X136368760Y-122841066D01*
X136299130Y-122854928D01*
X136233059Y-122828945D01*
X136205820Y-122799795D01*
X136105218Y-122650366D01*
X136098557Y-122642080D01*
X135946830Y-122483030D01*
X135938873Y-122475990D01*
X135762523Y-122344782D01*
X135753486Y-122339178D01*
X135557550Y-122239559D01*
X135547699Y-122235559D01*
X135337778Y-122170378D01*
X135327396Y-122168095D01*
X135311959Y-122166049D01*
X135297792Y-122168246D01*
X135294000Y-122181430D01*
X135294000Y-123628000D01*
X135273998Y-123696121D01*
X135220342Y-123742614D01*
X135168000Y-123754000D01*
X134912000Y-123754000D01*
X134843879Y-123733998D01*
X134797386Y-123680342D01*
X134786000Y-123628000D01*
X134786000Y-122183717D01*
X134782027Y-122170186D01*
X134771420Y-122168661D01*
X134653554Y-122193391D01*
X134643358Y-122196451D01*
X134438932Y-122277182D01*
X134429396Y-122281916D01*
X134241486Y-122395942D01*
X134232896Y-122402206D01*
X134066884Y-122546264D01*
X134059464Y-122553895D01*
X133920100Y-122723860D01*
X133914079Y-122732622D01*
X133880427Y-122791739D01*
X133829344Y-122841045D01*
X133759714Y-122854906D01*
X133693643Y-122828922D01*
X133666405Y-122799773D01*
X133584344Y-122677884D01*
X133562627Y-122645626D01*
X133538652Y-122620493D01*
X133467507Y-122545915D01*
X133403482Y-122478799D01*
X133218504Y-122341171D01*
X133213753Y-122338755D01*
X133213749Y-122338753D01*
X133017740Y-122239097D01*
X133017739Y-122239097D01*
X133012982Y-122236678D01*
X132902887Y-122202492D01*
X132797895Y-122169891D01*
X132797889Y-122169890D01*
X132792792Y-122168307D01*
X132687798Y-122154391D01*
X132569515Y-122138714D01*
X132569510Y-122138714D01*
X132564230Y-122138014D01*
X132558900Y-122138214D01*
X132558899Y-122138214D01*
X132465320Y-122141727D01*
X132333831Y-122146663D01*
X132328616Y-122147757D01*
X132328610Y-122147758D01*
X132285373Y-122156830D01*
X132214597Y-122151242D01*
X132158077Y-122108277D01*
X132133758Y-122041575D01*
X132133500Y-122033515D01*
X132133500Y-121702519D01*
X132153502Y-121634398D01*
X132165864Y-121618209D01*
X132172288Y-121611075D01*
X132239037Y-121536942D01*
X132334524Y-121371554D01*
X132393538Y-121189927D01*
X132413500Y-121000000D01*
X132393538Y-120810073D01*
X132334524Y-120628446D01*
X132335828Y-120628022D01*
X132327363Y-120564878D01*
X132357472Y-120500582D01*
X132417562Y-120462770D01*
X132451904Y-120458000D01*
X135677622Y-120458000D01*
X135678392Y-120458002D01*
X135719622Y-120458254D01*
X135728251Y-120455788D01*
X135748013Y-120450141D01*
X135764770Y-120446564D01*
X135785097Y-120443653D01*
X135785100Y-120443652D01*
X135793982Y-120442380D01*
X135802152Y-120438665D01*
X135802156Y-120438664D01*
X135817305Y-120431776D01*
X135834833Y-120425327D01*
X135850842Y-120420752D01*
X135850849Y-120420749D01*
X135859474Y-120418284D01*
X135884445Y-120402528D01*
X135899519Y-120394395D01*
X135926389Y-120382178D01*
X135945803Y-120365450D01*
X135960810Y-120354346D01*
X135982486Y-120340669D01*
X136002026Y-120318544D01*
X136014219Y-120306500D01*
X136029777Y-120293095D01*
X136029780Y-120293091D01*
X136036578Y-120287234D01*
X136050517Y-120265729D01*
X136061807Y-120250855D01*
X136072828Y-120238376D01*
X136078769Y-120231649D01*
X136080409Y-120228156D01*
X136132565Y-120183868D01*
X136183758Y-120173000D01*
X136227885Y-120173000D01*
X136243124Y-120168525D01*
X136244329Y-120167135D01*
X136246000Y-120159452D01*
X136246000Y-119122000D01*
X136266002Y-119053879D01*
X136319658Y-119007386D01*
X136372000Y-118996000D01*
X136628000Y-118996000D01*
X136696121Y-119016002D01*
G37*
%TD.AperFunction*%
%TD*%
M02*
