<?xml version="1.0" encoding="UTF-8" standalone="no"?>
<!-- Created with Inkscape (http://www.inkscape.org/) -->

<svg
   xmlns:dc="http://purl.org/dc/elements/1.1/"
   xmlns:cc="http://creativecommons.org/ns#"
   xmlns:rdf="http://www.w3.org/1999/02/22-rdf-syntax-ns#"
   xmlns:svg="http://www.w3.org/2000/svg"
   xmlns="http://www.w3.org/2000/svg"
   xmlns:sodipodi="http://sodipodi.sourceforge.net/DTD/sodipodi-0.dtd"
   xmlns:inkscape="http://www.inkscape.org/namespaces/inkscape"
   width="102.75558mm"
   height="67.968391mm"
   viewBox="0 0 102.75558 67.968392"
   version="1.1"
   id="svg8"
   inkscape:export-filename="/home/benvh/bitmap-leds.png"
   inkscape:export-xdpi="96"
   inkscape:export-ydpi="96"
   inkscape:version="0.92.3 (2405546, 2018-03-11)"
   sodipodi:docname="sketches.svg">
  <defs
     id="defs2" />
  <sodipodi:namedview
     id="base"
     pagecolor="#ffffff"
     bordercolor="#666666"
     borderopacity="1.0"
     inkscape:pageopacity="0.0"
     inkscape:pageshadow="2"
     inkscape:zoom="4"
     inkscape:cx="151.66448"
     inkscape:cy="140.81821"
     inkscape:document-units="mm"
     inkscape:current-layer="layer1"
     showgrid="false"
     fit-margin-top="0"
     fit-margin-left="0"
     fit-margin-right="0"
     fit-margin-bottom="0"
     inkscape:snap-object-midpoints="true"
     inkscape:window-width="2560"
     inkscape:window-height="1376"
     inkscape:window-x="0"
     inkscape:window-y="27"
     inkscape:window-maximized="1" />
  <metadata
     id="metadata5">
    <rdf:RDF>
      <cc:Work
         rdf:about="">
        <dc:format>image/svg+xml</dc:format>
        <dc:type
           rdf:resource="http://purl.org/dc/dcmitype/StillImage" />
        <dc:title></dc:title>
      </cc:Work>
    </rdf:RDF>
  </metadata>
  <g
     inkscape:groupmode="layer"
     id="layer3"
     inkscape:label="Underlit LEDs" />
  <g
     inkscape:label="Layer 1"
     inkscape:groupmode="layer"
     id="layer1"
     transform="translate(-11.881321,-119.69139)">
    <path
       sodipodi:type="star"
       style="fill:none;fill-opacity:1;stroke:none;stroke-width:0.37265515;stroke-miterlimit:4;stroke-dasharray:none;stroke-opacity:1"
       id="path815"
       sodipodi:sides="6"
       sodipodi:cx="28.010519"
       sodipodi:cy="80.864433"
       sodipodi:r1="7.171845"
       sodipodi:r2="3.3867443"
       sodipodi:arg1="-8.1496101e-10"
       sodipodi:arg2="0.52359878"
       inkscape:flatsided="true"
       inkscape:rounded="4.5781249e-11"
       inkscape:randomized="0"
       d="m 35.182364,80.864433 -3.585922,6.211 -7.171845,0 -3.585923,-6.211 3.585923,-6.211 7.171845,0 z"
       inkscape:transform-center-y="-2.8459696e-06" />
    <path
       sodipodi:type="star"
       style="fill:none;fill-opacity:1;stroke:none;stroke-width:0.37265515;stroke-miterlimit:4;stroke-dasharray:none;stroke-opacity:1"
       id="path815-3"
       sodipodi:sides="6"
       sodipodi:cx="41.29171"
       sodipodi:cy="88.532333"
       sodipodi:r1="7.171845"
       sodipodi:r2="3.3867443"
       sodipodi:arg1="-8.1496101e-10"
       sodipodi:arg2="0.52359878"
       inkscape:flatsided="true"
       inkscape:rounded="4.5781249e-11"
       inkscape:randomized="0"
       d="m 48.463555,88.532333 -3.585923,6.211 -7.171845,0 -3.585922,-6.211 3.585922,-6.211 7.171845,0 z"
       inkscape:transform-center-y="-4.4196173e-06" />
    <path
       sodipodi:type="star"
       style="fill:none;fill-opacity:1;stroke:none;stroke-width:0.37265515;stroke-miterlimit:4;stroke-dasharray:none;stroke-opacity:1"
       id="path815-6"
       sodipodi:sides="6"
       sodipodi:cx="54.572906"
       sodipodi:cy="80.864433"
       sodipodi:r1="7.171845"
       sodipodi:r2="3.3867443"
       sodipodi:arg1="-8.1496101e-10"
       sodipodi:arg2="0.52359878"
       inkscape:flatsided="true"
       inkscape:rounded="4.5781249e-11"
       inkscape:randomized="0"
       d="m 61.744751,80.864433 -3.585922,6.211 -7.171845,0 -3.585922,-6.211 3.585922,-6.211 7.171845,0 z"
       inkscape:transform-center-y="-2.8459696e-06"
       inkscape:transform-center-x="-1.8338676e-06" />
    <path
       sodipodi:type="star"
       style="fill:none;fill-opacity:1;stroke:none;stroke-width:0.37265515;stroke-miterlimit:4;stroke-dasharray:none;stroke-opacity:1"
       id="path815-7"
       sodipodi:sides="6"
       sodipodi:cx="28.010519"
       sodipodi:cy="96.200233"
       sodipodi:r1="7.171845"
       sodipodi:r2="3.3867443"
       sodipodi:arg1="-8.1496101e-10"
       sodipodi:arg2="0.52359878"
       inkscape:flatsided="true"
       inkscape:rounded="4.5781249e-11"
       inkscape:randomized="0"
       d="m 35.182364,96.200233 -3.585922,6.210997 -7.171845,0 -3.585923,-6.210997 3.585923,-6.211 7.171845,0 z"
       inkscape:transform-center-y="-2.4832243e-06" />
    <path
       sodipodi:type="star"
       style="fill:none;fill-opacity:1;stroke:none;stroke-width:0.37265515;stroke-miterlimit:4;stroke-dasharray:none;stroke-opacity:1"
       id="path815-3-5"
       sodipodi:sides="6"
       sodipodi:cx="14.729324"
       sodipodi:cy="88.532333"
       sodipodi:r1="7.171845"
       sodipodi:r2="3.3867443"
       sodipodi:arg1="-8.1496101e-10"
       sodipodi:arg2="0.52359878"
       inkscape:flatsided="true"
       inkscape:rounded="4.5781249e-11"
       inkscape:randomized="0"
       d="m 21.901169,88.532333 -3.585922,6.211 -7.171845,0 -3.5859226,-6.211 3.5859226,-6.211 7.171845,0 z" />
    <path
       sodipodi:type="star"
       style="fill:none;fill-opacity:1;stroke:none;stroke-width:0.37265515;stroke-miterlimit:4;stroke-dasharray:none;stroke-opacity:1"
       id="path815-6-3"
       sodipodi:sides="6"
       sodipodi:cx="54.572906"
       sodipodi:cy="96.200233"
       sodipodi:r1="7.171845"
       sodipodi:r2="3.3867443"
       sodipodi:arg1="-8.1496101e-10"
       sodipodi:arg2="0.52359878"
       inkscape:flatsided="true"
       inkscape:rounded="4.5781249e-11"
       inkscape:randomized="0"
       d="m 61.744751,96.200233 -3.585922,6.210997 -7.171845,0 -3.585922,-6.210997 3.585922,-6.211 7.171845,0 z"
       inkscape:transform-center-y="-2.4832243e-06"
       inkscape:transform-center-x="-1.8338676e-06" />
    <path
       sodipodi:type="star"
       style="fill:none;fill-opacity:1;stroke:none;stroke-width:0.37265515;stroke-miterlimit:4;stroke-dasharray:none;stroke-opacity:1"
       id="path815-3-56"
       sodipodi:sides="6"
       sodipodi:cx="67.854103"
       sodipodi:cy="88.532333"
       sodipodi:r1="7.171845"
       sodipodi:r2="3.3867443"
       sodipodi:arg1="-8.1496101e-10"
       sodipodi:arg2="0.52359878"
       inkscape:flatsided="true"
       inkscape:rounded="4.5781249e-11"
       inkscape:randomized="0"
       d="m 75.025948,88.532333 -3.585922,6.211 -7.171845,0 -3.585923,-6.211 3.585923,-6.211 7.171845,0 z"
       inkscape:transform-center-y="-4.4196173e-06" />
    <path
       sodipodi:type="star"
       style="fill:none;fill-opacity:1;stroke:none;stroke-width:0.37265515;stroke-miterlimit:4;stroke-dasharray:none;stroke-opacity:1"
       id="path815-6-3-2"
       sodipodi:sides="6"
       sodipodi:cx="81.1353"
       sodipodi:cy="80.864433"
       sodipodi:r1="7.171845"
       sodipodi:r2="3.3867443"
       sodipodi:arg1="-8.1496101e-10"
       sodipodi:arg2="0.52359878"
       inkscape:flatsided="true"
       inkscape:rounded="4.5781249e-11"
       inkscape:randomized="0"
       d="m 88.307145,80.864433 -3.585923,6.211 -7.171845,0 -3.585922,-6.211 3.585922,-6.211 7.171845,0 z"
       inkscape:transform-center-y="-2.8459696e-06"
       inkscape:transform-center-x="-3.6318546e-06" />
    <path
       sodipodi:type="star"
       style="fill:none;fill-opacity:1;stroke:none;stroke-width:0.37265515;stroke-miterlimit:4;stroke-dasharray:none;stroke-opacity:1"
       id="path815-3-5-9"
       sodipodi:sides="6"
       sodipodi:cx="94.416489"
       sodipodi:cy="88.532333"
       sodipodi:r1="7.171845"
       sodipodi:r2="3.3867443"
       sodipodi:arg1="-8.1496101e-10"
       sodipodi:arg2="0.52359878"
       inkscape:flatsided="true"
       inkscape:rounded="4.5781249e-11"
       inkscape:randomized="0"
       d="m 101.58833,88.532333 -3.585919,6.211 -7.171845,0 -3.585922,-6.211 3.585922,-6.211 7.171845,0 z"
       inkscape:transform-center-y="-4.4196173e-06"
       inkscape:transform-center-x="1.343526e-06" />
    <path
       sodipodi:type="star"
       style="fill:none;fill-opacity:1;stroke:none;stroke-width:0.37265515;stroke-miterlimit:4;stroke-dasharray:none;stroke-opacity:1"
       id="path815-6-3-2-1"
       sodipodi:sides="6"
       sodipodi:cx="81.1353"
       sodipodi:cy="96.200233"
       sodipodi:r1="7.171845"
       sodipodi:r2="3.3867443"
       sodipodi:arg1="-8.1496101e-10"
       sodipodi:arg2="0.52359878"
       inkscape:flatsided="true"
       inkscape:rounded="4.5781249e-11"
       inkscape:randomized="0"
       d="m 88.307145,96.200233 -3.585923,6.210997 -7.171845,0 -3.585922,-6.210997 3.585922,-6.211 7.171845,0 z"
       inkscape:transform-center-y="-2.4832243e-06"
       inkscape:transform-center-x="-3.6318546e-06" />
    <path
       style="fill:#d9da20;fill-opacity:1;stroke:none;stroke-width:0.52218729;stroke-miterlimit:4;stroke-dasharray:none;stroke-opacity:1"
       d="m 58.234439,123.48267 -5.025041,8.70352 5.025041,8.7031 h 10.049666 l 5.024623,-8.7031 -5.024623,-8.70352 z m 4.409313,4.05854 c 0.645974,0 1.198564,0.19509 1.65841,0.5856 0.459846,0.3905 0.689818,0.88533 0.689818,1.48386 0,0.35766 -0.105606,0.68965 -0.317283,0.99621 -0.211674,0.30292 -0.474739,0.52531 -0.788601,0.66764 0.999982,0.25547 1.500187,0.87962 1.500187,1.8723 -3e-6,0.72262 -0.259063,1.32126 -0.777303,1.79571 -0.51459,0.4708 -1.157078,0.70615 -1.927138,0.70615 -0.470794,0 -0.899438,-0.10024 -1.286294,-0.30096 -0.386855,-0.20439 -0.693763,-0.48716 -0.920036,-0.84847 -0.226274,-0.36495 -0.340841,-0.77567 -0.344491,-1.23188 h 0.985336 c 0.0037,0.43431 0.1531,0.78463 0.448717,1.05106 0.299264,0.26642 0.673312,0.39974 1.122209,0.39974 0.478095,0 0.883443,-0.14408 1.215555,-0.43239 0.332111,-0.29197 0.498109,-0.66423 0.498109,-1.11678 0,-0.44159 -0.14808,-0.78834 -0.443694,-1.04016 -0.291966,-0.25182 -0.673183,-0.37797 -1.143976,-0.37797 -0.240872,0 -0.487392,0.0349 -0.739211,0.10422 v -0.93092 c 0.102186,0.007 0.179125,0.0113 0.230219,0.0113 0.474443,0 0.87579,-0.12437 1.204252,-0.37254 0.332111,-0.25182 0.498107,-0.57664 0.498109,-0.97445 0,-0.34671 -0.125739,-0.61831 -0.377559,-0.81539 -0.248171,-0.20073 -0.569414,-0.30138 -0.963569,-0.30138 -0.416052,0 -0.746256,0.1114 -0.990776,0.33403 -0.244522,0.22262 -0.397976,0.54745 -0.46002,0.97445 h -0.985333 c 0.01824,-0.62773 0.257179,-1.15703 0.717025,-1.58768 0.463496,-0.43429 1.029465,-0.6513 1.697338,-0.6513 z"
       id="path815-2"
       inkscape:connector-curvature="0" />
    <path
       style="fill:#d9da20;fill-opacity:1;stroke:none;stroke-width:0.52218729;stroke-miterlimit:4;stroke-dasharray:none;stroke-opacity:1"
       d="m 76.844722,134.2277 -5.024624,8.7031 5.024624,8.7031 h 10.049665 l 5.024623,-8.7031 -5.024623,-8.7031 z m 5.016672,4.57717 h 0.985333 v 5.18954 h 1.083701 v 0.93092 h -1.083701 v 1.92672 h -0.985333 v -1.92672 h -3.481743 v -0.93092 z m 0,1.94346 -2.250282,3.24608 h 2.250282 z"
       id="path815-3-7"
       inkscape:connector-curvature="0" />
    <path
       style="fill:#d9da20;fill-opacity:1;stroke:none;stroke-width:0.52218729;stroke-miterlimit:4;stroke-dasharray:none;stroke-opacity:1"
       d="m 39.623788,155.71687 -5.024624,8.70353 5.024624,8.70309 h 10.049666 l 5.025041,-8.70309 -5.025041,-8.70353 z m 4.858029,4.58554 c 0.67152,0 1.228114,0.1915 1.669711,0.57471 0.4416,0.3832 0.662611,0.8852 0.662611,1.50563 0,0.37226 -0.104234,0.69487 -0.31226,0.96859 -0.204376,0.27372 -0.49432,0.48177 -0.870226,0.6241 0.496341,0.17518 0.872181,0.42528 1.127653,0.7501 0.255468,0.32481 0.383418,0.74628 0.383418,1.26453 0,0.7518 -0.241143,1.34328 -0.722885,1.77393 -0.481745,0.43065 -1.122023,0.64587 -1.921279,0.64587 -0.762762,0 -1.39408,-0.22459 -1.894071,-0.6735 -0.499991,-0.44889 -0.750093,-1.03995 -0.750093,-1.77352 0,-0.53648 0.135115,-0.97092 0.405185,-1.30303 0.270068,-0.33576 0.644117,-0.56394 1.122209,-0.68438 -0.802905,-0.29561 -1.20467,-0.83566 -1.20467,-1.62032 0,-0.62408 0.219221,-1.12207 0.65717,-1.49432 0.437948,-0.37226 0.986954,-0.55839 1.647527,-0.55839 z m 0.0113,0.9305 c -0.386856,0 -0.706307,0.0931 -0.958127,0.2792 -0.248172,0.18613 -0.372117,0.45635 -0.372117,0.81036 0,0.36861 0.123945,0.66793 0.372117,0.89786 0.25182,0.22992 0.574857,0.3449 0.96901,0.3449 0.379556,0 0.695004,-0.10961 0.946826,-0.32858 0.251821,-0.22262 0.377976,-0.50898 0.377976,-0.85934 0,-0.35766 -0.124363,-0.63685 -0.372535,-0.83758 -0.244522,-0.20437 -0.565346,-0.30682 -0.96315,-0.30682 z m -0.01674,3.3231 c -0.489044,0 -0.885014,0.12395 -1.187927,0.37212 -0.299266,0.24452 -0.448718,0.59127 -0.448718,1.04017 0,0.4489 0.15883,0.81398 0.476342,1.095 0.321163,0.27737 0.718925,0.41607 1.19337,0.41607 0.499993,0 0.899546,-0.13154 1.19881,-0.3943 0.299266,-0.26643 0.448717,-0.62793 0.448717,-1.08412 0,-0.4708 -0.153034,-0.8283 -0.4596,-1.07282 -0.306563,-0.24817 -0.713703,-0.37212 -1.220994,-0.37212 z"
       id="path815-6-0"
       inkscape:connector-curvature="0" />
    <path
       style="fill:#d9da20;fill-opacity:1;stroke:none;stroke-width:0.52218729;stroke-miterlimit:4;stroke-dasharray:none;stroke-opacity:1"
       d="m 58.234439,144.97231 -5.025041,8.7031 5.025041,8.70352 h 10.049666 l 5.024623,-8.70352 -5.024623,-8.7031 z m 4.181606,4.39802 c 0.390505,0 0.740837,0.0622 1.051052,0.18626 0.313863,0.12408 0.57651,0.29904 0.788184,0.52532 0.215326,0.22262 0.394286,0.49644 0.536619,0.82125 0.142334,0.32117 0.246149,0.67508 0.311842,1.06194 0.06569,0.3832 0.09878,0.80468 0.09878,1.26452 0,0.4927 -0.0313,0.94547 -0.09334,1.35787 -0.05839,0.40875 -0.158625,0.79535 -0.300959,1.16031 -0.138684,0.3613 -0.315851,0.66821 -0.531177,0.92003 -0.215324,0.25182 -0.488723,0.4505 -0.820833,0.59648 -0.332111,0.14233 -0.710163,0.21348 -1.133513,0.21348 -0.624076,0 -1.160539,-0.1951 -1.609436,-0.5856 -0.448899,-0.39415 -0.673076,-0.88678 -0.673076,-1.478 h 0.985336 c 0.186128,0.75546 0.638486,1.1331 1.357451,1.1331 0.580283,0 1.01472,-0.21164 1.303037,-0.63499 0.288317,-0.42335 0.439562,-1.06047 0.454158,-1.91082 -0.208024,0.25548 -0.452332,0.4434 -0.733349,0.56383 -0.281018,0.11679 -0.625977,0.17539 -1.034729,0.17539 -0.682469,0 -1.264567,-0.25369 -1.746312,-0.76098 -0.481742,-0.51095 -0.722467,-1.13868 -0.722467,-1.88319 0,-0.77371 0.231764,-1.42157 0.69526,-1.94347 0.467146,-0.52189 1.072957,-0.78273 1.817471,-0.78273 z m 0.01633,0.9305 c -0.478096,0 -0.855727,0.16062 -1.133094,0.48178 -0.273718,0.32116 -0.410625,0.73906 -0.410625,1.25364 0,0.51824 0.14049,0.9433 0.421508,1.27542 0.284666,0.33211 0.671259,0.49853 1.160302,0.49853 0.470796,0 0.834092,-0.16063 1.089561,-0.48179 0.259121,-0.32117 0.388859,-0.73368 0.388859,-1.23732 0,-0.51824 -0.135115,-0.94509 -0.405183,-1.28085 -0.270069,-0.33941 -0.640533,-0.50941 -1.111328,-0.50941 z"
       id="path815-7-9"
       inkscape:connector-curvature="0" />
    <path
       style="fill:#d9da20;fill-opacity:1;stroke:none;stroke-width:0.52218729;stroke-miterlimit:4;stroke-dasharray:none;stroke-opacity:1"
       d="m 39.623788,134.2277 -5.024624,8.7031 5.024624,8.7031 h 10.049666 l 5.025041,-8.7031 -5.025041,-8.7031 z m 5.266142,4.8844 c 0.722617,0 1.319468,0.20267 1.790264,0.60778 0.474445,0.40145 0.711584,0.93612 0.711584,1.604 0,0.18612 -0.02192,0.37045 -0.06572,0.55294 -0.04014,0.17883 -0.08757,0.33944 -0.142316,0.48178 -0.05475,0.13869 -0.140223,0.28992 -0.257008,0.45416 -0.113138,0.16058 -0.211996,0.2939 -0.295935,0.39974 -0.08394,0.10219 -0.209678,0.23193 -0.377559,0.38886 -0.164229,0.15328 -0.293971,0.27007 -0.38886,0.35035 -0.09124,0.0803 -0.233523,0.20245 -0.42695,0.36667 -0.193429,0.16059 -0.332128,0.27737 -0.416069,0.35036 -0.08394,0.073 -0.222638,0.18798 -0.416066,0.34491 -0.193428,0.15693 -0.342878,0.28087 -0.448717,0.37212 -0.102188,0.0912 -0.222551,0.2156 -0.361234,0.37253 -0.138684,0.15328 -0.253669,0.3099 -0.344908,0.47049 h 3.952222 v 0.93091 h -5.304652 c 0,-0.83575 0.68454,-1.82499 2.053131,-2.96731 0.08759,-0.073 0.231665,-0.19155 0.432392,-0.35579 0.200725,-0.16423 0.343009,-0.2828 0.426949,-0.35579 0.08759,-0.073 0.211955,-0.18081 0.372536,-0.32314 0.160581,-0.14599 0.277361,-0.26097 0.350351,-0.34491 0.07299,-0.0876 0.162052,-0.19857 0.26789,-0.33361 0.105839,-0.13869 0.180983,-0.26305 0.224778,-0.37253 0.04745,-0.11314 0.08907,-0.23888 0.125574,-0.37756 0.03649,-0.14234 0.05484,-0.28462 0.05484,-0.42695 0,-0.38686 -0.14587,-0.69377 -0.437834,-0.92004 -0.291967,-0.22628 -0.658846,-0.33905 -1.100446,-0.33905 -0.485393,0 -0.871984,0.12753 -1.160301,0.383 -0.288316,0.25182 -0.434601,0.61691 -0.438251,1.095 h -0.985336 c 0,-0.71166 0.242934,-1.29018 0.728329,-1.73542 0.489041,-0.44891 1.114566,-0.6735 1.877325,-0.6735 z"
       id="path815-3-5-3"
       inkscape:connector-curvature="0" />
    <path
       style="fill:#d9da20;fill-opacity:1;stroke:none;stroke-width:0.52218729;stroke-miterlimit:4;stroke-dasharray:none;stroke-opacity:1"
       d="m 76.844722,155.71687 -5.024624,8.70353 5.024624,8.70309 h 10.049665 l 5.024623,-8.70309 -5.024623,-8.70353 z m 5.024622,4.27119 c 0.408754,0 0.784594,0.0859 1.127653,0.25742 0.34671,0.17154 0.62411,0.41626 0.832137,0.73377 0.211674,0.31752 0.317281,0.67322 0.317281,1.06738 h -0.985334 c -0.09124,-0.36861 -0.244276,-0.6478 -0.4596,-0.83758 -0.215326,-0.19343 -0.512856,-0.29007 -0.892412,-0.29007 -0.569332,0 -1.001979,0.21522 -1.297593,0.64587 -0.291968,0.43065 -0.445004,1.06196 -0.459601,1.89407 0.208025,-0.25548 0.452333,-0.4416 0.73335,-0.55839 0.281018,-0.12043 0.625975,-0.18083 1.034729,-0.18083 0.704365,0 1.291841,0.25369 1.762635,0.76098 0.470794,0.50729 0.706144,1.13502 0.706144,1.88319 0,0.37225 -0.05998,0.7248 -0.180408,1.05691 -0.120436,0.33211 -0.288227,0.62205 -0.503551,0.87023 -0.211674,0.24452 -0.476532,0.4396 -0.794045,0.58559 -0.317513,0.14598 -0.66247,0.21933 -1.034726,0.21933 -0.405105,0 -0.766189,-0.064 -1.083701,-0.19171 -0.317515,-0.12773 -0.581951,-0.3049 -0.793627,-0.53117 -0.211675,-0.22628 -0.387051,-0.50367 -0.525734,-0.83214 -0.135035,-0.32846 -0.233475,-0.68059 -0.295518,-1.05649 -0.05839,-0.37956 -0.08748,-0.79744 -0.08748,-1.25365 0,-2.82842 0.95973,-4.24271 2.879404,-4.24271 z m -0.136874,3.66257 c -0.459846,0 -0.823143,0.16241 -1.089561,0.48722 -0.266418,0.32116 -0.399744,0.73147 -0.399744,1.23146 0,0.51094 0.136909,0.93821 0.410627,1.28127 0.273718,0.34306 0.645974,0.51444 1.116769,0.51444 0.478093,0 0.852141,-0.16421 1.122211,-0.49267 0.273718,-0.32847 0.410625,-0.74456 0.410625,-1.2482 0,-0.51825 -0.140493,-0.9433 -0.421509,-1.27542 -0.277368,-0.33211 -0.660375,-0.4981 -1.149418,-0.4981 z"
       id="path815-6-3-6"
       inkscape:connector-curvature="0" />
    <path
       style="fill:#d9da20;fill-opacity:1;stroke:none;stroke-width:0.52218729;stroke-miterlimit:4;stroke-dasharray:none;stroke-opacity:1"
       d="m 58.234439,166.46191 -5.025041,8.7031 5.025041,8.70309 h 10.049666 l 5.024623,-8.70309 -5.024623,-8.7031 z m 2.189588,4.22849 h 5.194984 v 0.9305 c -0.372257,0.44525 -0.722589,0.92353 -1.05105,1.43446 -0.324812,0.5073 -0.633094,1.06389 -0.925061,1.66972 -0.291967,0.60218 -0.52373,1.24246 -0.69526,1.92128 -0.171529,0.67882 -0.257426,1.33965 -0.257426,1.98197 h -0.985336 c 0,-0.60583 0.08411,-1.2519 0.251985,-1.93802 0.167881,-0.68612 0.386682,-1.33757 0.656752,-1.95435 0.273717,-0.61678 0.567663,-1.18992 0.881527,-1.71911 0.313863,-0.53283 0.633316,-0.99815 0.958127,-1.39595 h -4.029242 z"
       id="path815-3-56-0"
       inkscape:connector-curvature="0" />
    <path
       style="fill:#d9da20;fill-opacity:1;stroke:none;stroke-width:0.52218729;stroke-miterlimit:4;stroke-dasharray:none;stroke-opacity:1"
       d="m 21.013456,144.97231 -5.025042,8.7031 5.025042,8.70352 h 10.049666 l 5.024623,-8.70352 -5.024623,-8.7031 z m 2.970656,4.5035 h 0.985335 v 8.0476 h -0.985335 v -6.20251 c -0.17153,0.27737 -0.443555,0.53464 -0.815811,0.77186 -0.372257,0.23357 -0.757475,0.3924 -1.155278,0.47635 v -1.07868 c 0.452547,-0.20803 0.859687,-0.48901 1.220995,-0.84302 0.364958,-0.35401 0.615059,-0.74461 0.750094,-1.1716 z"
       id="path815-6-3-2-6"
       inkscape:connector-curvature="0" />
    <path
       style="fill:#d9da20;fill-opacity:1;stroke:none;stroke-width:0.52218729;stroke-miterlimit:4;stroke-dasharray:none;stroke-opacity:1"
       d="m 95.455004,144.97231 -5.024624,8.7031 5.024624,8.70352 h 10.049666 l 5.02504,-8.70352 -5.02504,-8.7031 z m 2.540775,4.46541 h 4.017941 v 0.93091 h -3.115066 l -0.410207,1.97611 c 0.295616,-0.24452 0.746181,-0.36666 1.352009,-0.36666 0.759114,0 1.373884,0.23892 1.844684,0.71702 0.47079,0.47809 0.70655,1.10583 0.70655,1.88318 0,0.52554 -0.11319,1.00562 -0.33946,1.43991 -0.22262,0.43065 -0.54566,0.7752 -0.96901,1.03432 -0.41971,0.25546 -0.89798,0.38342 -1.434473,0.38342 -0.744512,0 -1.344947,-0.20806 -1.801146,-0.62411 -0.452546,-0.41969 -0.711608,-0.98705 -0.7773,-1.70236 h 1.034728 c 0.08029,0.46349 0.244496,0.81204 0.492666,1.04561 0.248171,0.23357 0.598506,0.35036 1.051052,0.35036 0.518233,0 0.939713,-0.17 1.264523,-0.50942 0.32847,-0.33941 0.49267,-0.7828 0.49267,-1.33025 0,-0.54378 -0.15841,-0.97242 -0.47592,-1.28629 -0.31752,-0.31386 -0.75016,-0.47089 -1.297597,-0.47089 -0.540136,0 -0.990702,0.23893 -1.352009,0.71702 l -1.034729,-0.12013 z"
       id="path815-3-5-9-2"
       inkscape:connector-curvature="0" />
  </g>
  <g
     inkscape:groupmode="layer"
     id="layer2"
     inkscape:label="RGB LEDs"
     transform="translate(1.377796,1.4276571)">
    <rect
       transform="translate(-13.259117,-121.11905)"
       style="fill:#ff002e;fill-opacity:1;stroke:none;stroke-width:1;stroke-miterlimit:4;stroke-dasharray:none;stroke-opacity:1"
       id="rect1003"
       width="3.5"
       height="3.5"
       x="11.881321"
       y="151.92558" />
    <rect
       transform="translate(-13.259117,-121.11905)"
       y="141.18085"
       x="18.084795"
       height="3.5"
       width="3.5"
       id="rect1005"
       style="fill:#ff002e;fill-opacity:1;stroke:none;stroke-width:1;stroke-miterlimit:4;stroke-dasharray:none;stroke-opacity:1" />
    <rect
       transform="translate(-13.259117,-121.11905)"
       style="fill:#ff002e;fill-opacity:1;stroke:none;stroke-width:1;stroke-miterlimit:4;stroke-dasharray:none;stroke-opacity:1"
       id="rect1007"
       width="3.5"
       height="3.5"
       x="30.491743"
       y="141.18085" />
    <rect
       transform="translate(-13.259117,-121.11905)"
       y="151.92558"
       x="36.695221"
       height="3.5"
       width="3.5"
       id="rect1009"
       style="fill:#ff002e;fill-opacity:1;stroke:none;stroke-width:1;stroke-miterlimit:4;stroke-dasharray:none;stroke-opacity:1" />
    <rect
       transform="translate(-13.259117,-121.11905)"
       style="fill:#ff002e;fill-opacity:1;stroke:none;stroke-width:1;stroke-miterlimit:4;stroke-dasharray:none;stroke-opacity:1"
       id="rect1011"
       width="3.5"
       height="3.5"
       x="30.491743"
       y="162.6703" />
    <rect
       transform="translate(-13.259117,-121.11905)"
       y="162.67032"
       x="18.084795"
       height="3.5"
       width="3.5"
       id="rect1013"
       style="fill:#ff002e;fill-opacity:1;stroke:none;stroke-width:1;stroke-miterlimit:4;stroke-dasharray:none;stroke-opacity:1" />
    <rect
       transform="translate(-13.259117,-121.11905)"
       style="fill:#ff002e;fill-opacity:1;stroke:none;stroke-width:1;stroke-miterlimit:4;stroke-dasharray:none;stroke-opacity:1"
       id="rect1015"
       width="3.5"
       height="3.5"
       x="49.102169"
       y="151.92557" />
    <rect
       transform="translate(-13.259117,-121.11905)"
       y="141.18086"
       x="55.305641"
       height="3.5"
       width="3.5"
       id="rect1017"
       style="fill:#ff002e;fill-opacity:1;stroke:none;stroke-width:1;stroke-miterlimit:4;stroke-dasharray:none;stroke-opacity:1" />
    <rect
       transform="translate(-13.259117,-121.11905)"
       style="fill:#ff002e;fill-opacity:1;stroke:none;stroke-width:1;stroke-miterlimit:4;stroke-dasharray:none;stroke-opacity:1"
       id="rect1019"
       width="3.5"
       height="3.5"
       x="49.102169"
       y="130.43611" />
    <rect
       y="-1.4276571"
       x="42.046524"
       height="3.5"
       width="3.5"
       id="rect1031"
       style="fill:#ff002e;fill-opacity:1;stroke:none;stroke-width:1;stroke-miterlimit:4;stroke-dasharray:none;stroke-opacity:1" />
    <rect
       style="fill:#ff002e;fill-opacity:1;stroke:none;stroke-width:1;stroke-miterlimit:4;stroke-dasharray:none;stroke-opacity:1"
       id="rect1033"
       width="3.5"
       height="3.5"
       x="54.453476"
       y="-1.4276571" />
    <rect
       y="9.3170633"
       x="60.656944"
       height="3.5"
       width="3.5"
       id="rect1035"
       style="fill:#ff002e;fill-opacity:1;stroke:none;stroke-width:1;stroke-miterlimit:4;stroke-dasharray:none;stroke-opacity:1" />
    <rect
       style="fill:#ff002e;fill-opacity:1;stroke:none;stroke-width:1;stroke-miterlimit:4;stroke-dasharray:none;stroke-opacity:1"
       id="rect1037"
       width="3.5"
       height="3.5"
       x="54.453476"
       y="20.061811" />
    <rect
       y="9.3170633"
       x="73.063896"
       height="3.5"
       width="3.5"
       id="rect1039"
       style="fill:#ff002e;fill-opacity:1;stroke:none;stroke-width:1;stroke-miterlimit:4;stroke-dasharray:none;stroke-opacity:1" />
    <rect
       style="fill:#ff002e;fill-opacity:1;stroke:none;stroke-width:1;stroke-miterlimit:4;stroke-dasharray:none;stroke-opacity:1"
       id="rect1041"
       width="3.5"
       height="3.5"
       x="79.267365"
       y="20.061798" />
    <rect
       y="30.806519"
       x="73.063896"
       height="3.5"
       width="3.5"
       id="rect1043"
       style="fill:#ff002e;fill-opacity:1;stroke:none;stroke-width:1;stroke-miterlimit:4;stroke-dasharray:none;stroke-opacity:1" />
    <rect
       style="fill:#ff002e;fill-opacity:1;stroke:none;stroke-width:1;stroke-miterlimit:4;stroke-dasharray:none;stroke-opacity:1"
       id="rect1045"
       width="3.5"
       height="3.5"
       x="60.656944"
       y="30.806519" />
    <rect
       y="41.551254"
       x="54.453472"
       height="3.5"
       width="3.5"
       id="rect1047"
       style="fill:#ff002e;fill-opacity:1;stroke:none;stroke-width:1;stroke-miterlimit:4;stroke-dasharray:none;stroke-opacity:1" />
    <rect
       style="fill:#ff002e;fill-opacity:1;stroke:none;stroke-width:1;stroke-miterlimit:4;stroke-dasharray:none;stroke-opacity:1"
       id="rect1049"
       width="3.5"
       height="3.5"
       x="42.046528"
       y="41.551254" />
    <rect
       y="52.296005"
       x="35.843052"
       height="3.5"
       width="3.5"
       id="rect1051"
       style="fill:#ff002e;fill-opacity:1;stroke:none;stroke-width:1;stroke-miterlimit:4;stroke-dasharray:none;stroke-opacity:1" />
    <rect
       style="fill:#ff002e;fill-opacity:1;stroke:none;stroke-width:1;stroke-miterlimit:4;stroke-dasharray:none;stroke-opacity:1"
       id="rect1053"
       width="3.5"
       height="3.5"
       x="23.436102"
       y="52.295986" />
    <rect
       y="63.040737"
       x="42.046524"
       height="3.5"
       width="3.5"
       id="rect1055"
       style="fill:#ff002e;fill-opacity:1;stroke:none;stroke-width:1;stroke-miterlimit:4;stroke-dasharray:none;stroke-opacity:1" />
    <rect
       style="fill:#ff002e;fill-opacity:1;stroke:none;stroke-width:1;stroke-miterlimit:4;stroke-dasharray:none;stroke-opacity:1"
       id="rect1057"
       width="3.5"
       height="3.5"
       x="54.453476"
       y="63.040737" />
    <rect
       y="52.296001"
       x="60.656952"
       height="3.5"
       width="3.5"
       id="rect1059"
       style="fill:#ff002e;fill-opacity:1;stroke:none;stroke-width:1;stroke-miterlimit:4;stroke-dasharray:none;stroke-opacity:1" />
    <rect
       style="fill:#ff002e;fill-opacity:1;stroke:none;stroke-width:1;stroke-miterlimit:4;stroke-dasharray:none;stroke-opacity:1"
       id="rect1061"
       width="3.5"
       height="3.5"
       x="73.063896"
       y="52.295986" />
    <rect
       y="41.551266"
       x="79.267365"
       height="3.5"
       width="3.5"
       id="rect1063"
       style="fill:#ff002e;fill-opacity:1;stroke:none;stroke-width:1;stroke-miterlimit:4;stroke-dasharray:none;stroke-opacity:1" />
    <rect
       style="fill:#ff002e;fill-opacity:1;stroke:none;stroke-width:1;stroke-miterlimit:4;stroke-dasharray:none;stroke-opacity:1"
       id="rect1065"
       width="3.5"
       height="3.5"
       x="91.674316"
       y="41.551266" />
    <rect
       y="30.806534"
       x="97.877792"
       height="3.5"
       width="3.5"
       id="rect1067"
       style="fill:#ff002e;fill-opacity:1;stroke:none;stroke-width:1;stroke-miterlimit:4;stroke-dasharray:none;stroke-opacity:1" />
    <rect
       style="fill:#ff002e;fill-opacity:1;stroke:none;stroke-width:1;stroke-miterlimit:4;stroke-dasharray:none;stroke-opacity:1"
       id="rect1069"
       width="3.5"
       height="3.5"
       x="91.674316"
       y="20.061798" />
    <rect
       y="9.3170662"
       x="23.436102"
       height="3.5"
       width="3.5"
       id="rect1148"
       style="fill:#ff002e;fill-opacity:1;stroke:none;stroke-width:1;stroke-miterlimit:4;stroke-dasharray:none;stroke-opacity:1" />
  </g>
</svg>
