G04 #@! TF.GenerationSoftware,KiCad,Pcbnew,5.1.5-52549c5~86~ubuntu18.04.1*
G04 #@! TF.CreationDate,2020-05-17T18:20:31-04:00*
G04 #@! TF.ProjectId,2020 05 PSP Joystick Breakout,32303230-2030-4352-9050-5350204a6f79,rev?*
G04 #@! TF.SameCoordinates,Original*
G04 #@! TF.FileFunction,Legend,Top*
G04 #@! TF.FilePolarity,Positive*
%FSLAX46Y46*%
G04 Gerber Fmt 4.6, Leading zero omitted, Abs format (unit mm)*
G04 Created by KiCad (PCBNEW 5.1.5-52549c5~86~ubuntu18.04.1) date 2020-05-17 18:20:31*
%MOMM*%
%LPD*%
G04 APERTURE LIST*
%ADD10C,0.150000*%
G04 APERTURE END LIST*
D10*
X147296190Y-122459523D02*
X147772380Y-122459523D01*
X146772380Y-122792857D02*
X147296190Y-122459523D01*
X146772380Y-122126190D01*
X147772380Y-121030952D02*
X146772380Y-121030952D01*
X147486666Y-120697619D01*
X146772380Y-120364285D01*
X147772380Y-120364285D01*
X147772380Y-119459523D02*
X147248571Y-119459523D01*
X147153333Y-119507142D01*
X147105714Y-119602380D01*
X147105714Y-119792857D01*
X147153333Y-119888095D01*
X147724761Y-119459523D02*
X147772380Y-119554761D01*
X147772380Y-119792857D01*
X147724761Y-119888095D01*
X147629523Y-119935714D01*
X147534285Y-119935714D01*
X147439047Y-119888095D01*
X147391428Y-119792857D01*
X147391428Y-119554761D01*
X147343809Y-119459523D01*
X147772380Y-119078571D02*
X147105714Y-118554761D01*
X147105714Y-119078571D02*
X147772380Y-118554761D01*
X170450000Y-126950000D02*
X170450000Y-129950000D01*
X167950000Y-126950000D02*
X170450000Y-126950000D01*
X170450000Y-129950000D02*
X149350000Y-129950000D01*
X167950000Y-111350000D02*
X167950000Y-126950000D01*
X149350000Y-111350000D02*
X167950000Y-111350000D01*
X149350000Y-129950000D02*
X149350000Y-111350000D01*
X168602380Y-121235714D02*
X169316666Y-121235714D01*
X169459523Y-121283333D01*
X169554761Y-121378571D01*
X169602380Y-121521428D01*
X169602380Y-121616666D01*
X168602380Y-120569047D02*
X168602380Y-120378571D01*
X168650000Y-120283333D01*
X168745238Y-120188095D01*
X168935714Y-120140476D01*
X169269047Y-120140476D01*
X169459523Y-120188095D01*
X169554761Y-120283333D01*
X169602380Y-120378571D01*
X169602380Y-120569047D01*
X169554761Y-120664285D01*
X169459523Y-120759523D01*
X169269047Y-120807142D01*
X168935714Y-120807142D01*
X168745238Y-120759523D01*
X168650000Y-120664285D01*
X168602380Y-120569047D01*
X169126190Y-119521428D02*
X169602380Y-119521428D01*
X168602380Y-119854761D02*
X169126190Y-119521428D01*
X168602380Y-119188095D01*
X169602380Y-118330952D02*
X169602380Y-118902380D01*
X169602380Y-118616666D02*
X168602380Y-118616666D01*
X168745238Y-118711904D01*
X168840476Y-118807142D01*
X168888095Y-118902380D01*
M02*
