G04 #@! TF.GenerationSoftware,KiCad,Pcbnew,5.1.5-52549c5~86~ubuntu18.04.1*
G04 #@! TF.CreationDate,2020-05-17T18:20:31-04:00*
G04 #@! TF.ProjectId,2020 05 PSP Joystick Breakout,32303230-2030-4352-9050-5350204a6f79,rev?*
G04 #@! TF.SameCoordinates,Original*
G04 #@! TF.FileFunction,Copper,L1,Top*
G04 #@! TF.FilePolarity,Positive*
%FSLAX46Y46*%
G04 Gerber Fmt 4.6, Leading zero omitted, Abs format (unit mm)*
G04 Created by KiCad (PCBNEW 5.1.5-52549c5~86~ubuntu18.04.1) date 2020-05-17 18:20:31*
%MOMM*%
%LPD*%
G04 APERTURE LIST*
%ADD10C,1.524000*%
%ADD11R,3.500000X1.500000*%
%ADD12R,1.700000X1.700000*%
%ADD13O,1.700000X1.700000*%
%ADD14R,1.700000X1.200000*%
%ADD15O,1.700000X1.200000*%
%ADD16C,0.800000*%
%ADD17C,0.250000*%
G04 APERTURE END LIST*
D10*
X160650000Y-111850000D03*
X156650000Y-111850000D03*
X158650000Y-111850000D03*
X167450000Y-118650000D03*
X167450000Y-122650000D03*
X167450000Y-120650000D03*
D11*
X150350000Y-117650000D03*
X150350000Y-119650000D03*
X150350000Y-121650000D03*
X150350000Y-123650000D03*
D12*
X180340000Y-128270000D03*
D13*
X177800000Y-128270000D03*
D12*
X180340000Y-112522000D03*
D13*
X177800000Y-112522000D03*
D14*
X170688000Y-113030000D03*
D15*
X170688000Y-115030000D03*
X170688000Y-117030000D03*
X170688000Y-119030000D03*
X170688000Y-121030000D03*
X170688000Y-123030000D03*
D16*
X153162000Y-119634000D03*
D17*
X150350000Y-119650000D02*
X153146000Y-119650000D01*
X153146000Y-119650000D02*
X153162000Y-119634000D01*
X157737001Y-110762999D02*
X157411999Y-111088001D01*
X165320999Y-110762999D02*
X157737001Y-110762999D01*
X157411999Y-111088001D02*
X156650000Y-111850000D01*
X169588000Y-115030000D02*
X165320999Y-110762999D01*
X170688000Y-115030000D02*
X169588000Y-115030000D01*
X148274999Y-116639999D02*
X148274999Y-123574999D01*
X148350000Y-123650000D02*
X150350000Y-123650000D01*
X153064998Y-111850000D02*
X148274999Y-116639999D01*
X148274999Y-123574999D02*
X148350000Y-123650000D01*
X156650000Y-111850000D02*
X153064998Y-111850000D01*
X163830000Y-117030000D02*
X158650000Y-111850000D01*
X170688000Y-117030000D02*
X163830000Y-117030000D01*
X153927630Y-117650000D02*
X152350000Y-117650000D01*
X152350000Y-117650000D02*
X150350000Y-117650000D01*
X158650000Y-112927630D02*
X153927630Y-117650000D01*
X158650000Y-111850000D02*
X158650000Y-112927630D01*
X169070000Y-119030000D02*
X167450000Y-120650000D01*
X170688000Y-119030000D02*
X169070000Y-119030000D01*
X165372370Y-121650000D02*
X152350000Y-121650000D01*
X166372370Y-120650000D02*
X165372370Y-121650000D01*
X152350000Y-121650000D02*
X150350000Y-121650000D01*
X167450000Y-120650000D02*
X166372370Y-120650000D01*
X177800000Y-113724081D02*
X177800000Y-112522000D01*
X171788000Y-121030000D02*
X177800000Y-115018000D01*
X177800000Y-115018000D02*
X177800000Y-113724081D01*
X170688000Y-121030000D02*
X171788000Y-121030000D01*
X170350000Y-123570000D02*
X171450000Y-123570000D01*
X170688000Y-123880000D02*
X170688000Y-123030000D01*
X175078000Y-128270000D02*
X170688000Y-123880000D01*
X177800000Y-128270000D02*
X175078000Y-128270000D01*
M02*
