G04 #@! TF.GenerationSoftware,KiCad,Pcbnew,5.1.5-52549c5~86~ubuntu18.04.1*
G04 #@! TF.CreationDate,2020-05-17T18:20:31-04:00*
G04 #@! TF.ProjectId,2020 05 PSP Joystick Breakout,32303230-2030-4352-9050-5350204a6f79,rev?*
G04 #@! TF.SameCoordinates,Original*
G04 #@! TF.FileFunction,Legend,Bot*
G04 #@! TF.FilePolarity,Positive*
%FSLAX46Y46*%
G04 Gerber Fmt 4.6, Leading zero omitted, Abs format (unit mm)*
G04 Created by KiCad (PCBNEW 5.1.5-52549c5~86~ubuntu18.04.1) date 2020-05-17 18:20:31*
%MOMM*%
%LPD*%
G04 APERTURE LIST*
%ADD10C,0.150000*%
%ADD11C,0.010000*%
%ADD12C,0.120000*%
G04 APERTURE END LIST*
D10*
X175664761Y-122491666D02*
X175712380Y-122634523D01*
X175712380Y-122872619D01*
X175664761Y-122967857D01*
X175617142Y-123015476D01*
X175521904Y-123063095D01*
X175426666Y-123063095D01*
X175331428Y-123015476D01*
X175283809Y-122967857D01*
X175236190Y-122872619D01*
X175188571Y-122682142D01*
X175140952Y-122586904D01*
X175093333Y-122539285D01*
X174998095Y-122491666D01*
X174902857Y-122491666D01*
X174807619Y-122539285D01*
X174760000Y-122586904D01*
X174712380Y-122682142D01*
X174712380Y-122920238D01*
X174760000Y-123063095D01*
X174712380Y-123396428D02*
X175712380Y-123634523D01*
X174998095Y-123825000D01*
X175712380Y-124015476D01*
X174712380Y-124253571D01*
X174807619Y-124586904D02*
X174760000Y-124634523D01*
X174712380Y-124729761D01*
X174712380Y-124967857D01*
X174760000Y-125063095D01*
X174807619Y-125110714D01*
X174902857Y-125158333D01*
X174998095Y-125158333D01*
X175140952Y-125110714D01*
X175712380Y-124539285D01*
X175712380Y-125158333D01*
X174394761Y-119951666D02*
X174442380Y-120094523D01*
X174442380Y-120332619D01*
X174394761Y-120427857D01*
X174347142Y-120475476D01*
X174251904Y-120523095D01*
X174156666Y-120523095D01*
X174061428Y-120475476D01*
X174013809Y-120427857D01*
X173966190Y-120332619D01*
X173918571Y-120142142D01*
X173870952Y-120046904D01*
X173823333Y-119999285D01*
X173728095Y-119951666D01*
X173632857Y-119951666D01*
X173537619Y-119999285D01*
X173490000Y-120046904D01*
X173442380Y-120142142D01*
X173442380Y-120380238D01*
X173490000Y-120523095D01*
X173442380Y-120856428D02*
X174442380Y-121094523D01*
X173728095Y-121285000D01*
X174442380Y-121475476D01*
X173442380Y-121713571D01*
X174442380Y-122618333D02*
X174442380Y-122046904D01*
X174442380Y-122332619D02*
X173442380Y-122332619D01*
X173585238Y-122237380D01*
X173680476Y-122142142D01*
X173728095Y-122046904D01*
X175236190Y-118745000D02*
X175712380Y-118745000D01*
X174712380Y-118411666D02*
X175236190Y-118745000D01*
X174712380Y-119078333D01*
X173442380Y-116506666D02*
X174442380Y-117173333D01*
X173442380Y-117173333D02*
X174442380Y-116506666D01*
X174712380Y-113601666D02*
X175712380Y-113935000D01*
X174712380Y-114268333D01*
X175617142Y-115173095D02*
X175664761Y-115125476D01*
X175712380Y-114982619D01*
X175712380Y-114887380D01*
X175664761Y-114744523D01*
X175569523Y-114649285D01*
X175474285Y-114601666D01*
X175283809Y-114554047D01*
X175140952Y-114554047D01*
X174950476Y-114601666D01*
X174855238Y-114649285D01*
X174760000Y-114744523D01*
X174712380Y-114887380D01*
X174712380Y-114982619D01*
X174760000Y-115125476D01*
X174807619Y-115173095D01*
X175617142Y-116173095D02*
X175664761Y-116125476D01*
X175712380Y-115982619D01*
X175712380Y-115887380D01*
X175664761Y-115744523D01*
X175569523Y-115649285D01*
X175474285Y-115601666D01*
X175283809Y-115554047D01*
X175140952Y-115554047D01*
X174950476Y-115601666D01*
X174855238Y-115649285D01*
X174760000Y-115744523D01*
X174712380Y-115887380D01*
X174712380Y-115982619D01*
X174760000Y-116125476D01*
X174807619Y-116173095D01*
X173442380Y-112553809D02*
X173442380Y-112649047D01*
X173490000Y-112744285D01*
X173537619Y-112791904D01*
X173632857Y-112839523D01*
X173823333Y-112887142D01*
X174061428Y-112887142D01*
X174251904Y-112839523D01*
X174347142Y-112791904D01*
X174394761Y-112744285D01*
X174442380Y-112649047D01*
X174442380Y-112553809D01*
X174394761Y-112458571D01*
X174347142Y-112410952D01*
X174251904Y-112363333D01*
X174061428Y-112315714D01*
X173823333Y-112315714D01*
X173632857Y-112363333D01*
X173537619Y-112410952D01*
X173490000Y-112458571D01*
X173442380Y-112553809D01*
X173442380Y-113172857D02*
X174442380Y-113506190D01*
X173442380Y-113839523D01*
X155772857Y-115563571D02*
X155630000Y-115611190D01*
X155582380Y-115658809D01*
X155534761Y-115754047D01*
X155534761Y-115896904D01*
X155582380Y-115992142D01*
X155630000Y-116039761D01*
X155725238Y-116087380D01*
X156106190Y-116087380D01*
X156106190Y-115087380D01*
X155772857Y-115087380D01*
X155677619Y-115135000D01*
X155630000Y-115182619D01*
X155582380Y-115277857D01*
X155582380Y-115373095D01*
X155630000Y-115468333D01*
X155677619Y-115515952D01*
X155772857Y-115563571D01*
X156106190Y-115563571D01*
X155249047Y-115087380D02*
X154915714Y-116087380D01*
X154582380Y-115087380D01*
X154249047Y-116087380D02*
X154249047Y-115087380D01*
X154249047Y-115563571D02*
X153677619Y-115563571D01*
X153677619Y-116087380D02*
X153677619Y-115087380D01*
X152439523Y-115706428D02*
X151677619Y-115706428D01*
X150487142Y-115801666D02*
X150010952Y-115801666D01*
X150582380Y-116087380D02*
X150249047Y-115087380D01*
X149915714Y-116087380D01*
X149249047Y-115563571D02*
X149106190Y-115611190D01*
X149058571Y-115658809D01*
X149010952Y-115754047D01*
X149010952Y-115896904D01*
X149058571Y-115992142D01*
X149106190Y-116039761D01*
X149201428Y-116087380D01*
X149582380Y-116087380D01*
X149582380Y-115087380D01*
X149249047Y-115087380D01*
X149153809Y-115135000D01*
X149106190Y-115182619D01*
X149058571Y-115277857D01*
X149058571Y-115373095D01*
X149106190Y-115468333D01*
X149153809Y-115515952D01*
X149249047Y-115563571D01*
X149582380Y-115563571D01*
X148153809Y-115420714D02*
X148153809Y-116087380D01*
X148391904Y-115039761D02*
X148630000Y-115754047D01*
X148010952Y-115754047D01*
X147630000Y-115563571D02*
X147296666Y-115563571D01*
X147153809Y-116087380D02*
X147630000Y-116087380D01*
X147630000Y-115087380D01*
X147153809Y-115087380D01*
X146725238Y-116087380D02*
X146725238Y-115087380D01*
X146153809Y-116087380D01*
X146153809Y-115087380D01*
X161677619Y-117737380D02*
X161677619Y-116737380D01*
X161296666Y-116737380D01*
X161201428Y-116785000D01*
X161153809Y-116832619D01*
X161106190Y-116927857D01*
X161106190Y-117070714D01*
X161153809Y-117165952D01*
X161201428Y-117213571D01*
X161296666Y-117261190D01*
X161677619Y-117261190D01*
X160725238Y-117689761D02*
X160582380Y-117737380D01*
X160344285Y-117737380D01*
X160249047Y-117689761D01*
X160201428Y-117642142D01*
X160153809Y-117546904D01*
X160153809Y-117451666D01*
X160201428Y-117356428D01*
X160249047Y-117308809D01*
X160344285Y-117261190D01*
X160534761Y-117213571D01*
X160630000Y-117165952D01*
X160677619Y-117118333D01*
X160725238Y-117023095D01*
X160725238Y-116927857D01*
X160677619Y-116832619D01*
X160630000Y-116785000D01*
X160534761Y-116737380D01*
X160296666Y-116737380D01*
X160153809Y-116785000D01*
X159725238Y-117737380D02*
X159725238Y-116737380D01*
X159344285Y-116737380D01*
X159249047Y-116785000D01*
X159201428Y-116832619D01*
X159153809Y-116927857D01*
X159153809Y-117070714D01*
X159201428Y-117165952D01*
X159249047Y-117213571D01*
X159344285Y-117261190D01*
X159725238Y-117261190D01*
X157439523Y-117737380D02*
X158010952Y-117737380D01*
X157725238Y-117737380D02*
X157725238Y-116737380D01*
X157820476Y-116880238D01*
X157915714Y-116975476D01*
X158010952Y-117023095D01*
X156820476Y-116737380D02*
X156725238Y-116737380D01*
X156630000Y-116785000D01*
X156582380Y-116832619D01*
X156534761Y-116927857D01*
X156487142Y-117118333D01*
X156487142Y-117356428D01*
X156534761Y-117546904D01*
X156582380Y-117642142D01*
X156630000Y-117689761D01*
X156725238Y-117737380D01*
X156820476Y-117737380D01*
X156915714Y-117689761D01*
X156963333Y-117642142D01*
X157010952Y-117546904D01*
X157058571Y-117356428D01*
X157058571Y-117118333D01*
X157010952Y-116927857D01*
X156963333Y-116832619D01*
X156915714Y-116785000D01*
X156820476Y-116737380D01*
X155868095Y-116737380D02*
X155772857Y-116737380D01*
X155677619Y-116785000D01*
X155630000Y-116832619D01*
X155582380Y-116927857D01*
X155534761Y-117118333D01*
X155534761Y-117356428D01*
X155582380Y-117546904D01*
X155630000Y-117642142D01*
X155677619Y-117689761D01*
X155772857Y-117737380D01*
X155868095Y-117737380D01*
X155963333Y-117689761D01*
X156010952Y-117642142D01*
X156058571Y-117546904D01*
X156106190Y-117356428D01*
X156106190Y-117118333D01*
X156058571Y-116927857D01*
X156010952Y-116832619D01*
X155963333Y-116785000D01*
X155868095Y-116737380D01*
X154915714Y-116737380D02*
X154820476Y-116737380D01*
X154725238Y-116785000D01*
X154677619Y-116832619D01*
X154630000Y-116927857D01*
X154582380Y-117118333D01*
X154582380Y-117356428D01*
X154630000Y-117546904D01*
X154677619Y-117642142D01*
X154725238Y-117689761D01*
X154820476Y-117737380D01*
X154915714Y-117737380D01*
X155010952Y-117689761D01*
X155058571Y-117642142D01*
X155106190Y-117546904D01*
X155153809Y-117356428D01*
X155153809Y-117118333D01*
X155106190Y-116927857D01*
X155058571Y-116832619D01*
X155010952Y-116785000D01*
X154915714Y-116737380D01*
X153106190Y-116737380D02*
X153106190Y-117451666D01*
X153153809Y-117594523D01*
X153249047Y-117689761D01*
X153391904Y-117737380D01*
X153487142Y-117737380D01*
X152487142Y-117737380D02*
X152582380Y-117689761D01*
X152630000Y-117642142D01*
X152677619Y-117546904D01*
X152677619Y-117261190D01*
X152630000Y-117165952D01*
X152582380Y-117118333D01*
X152487142Y-117070714D01*
X152344285Y-117070714D01*
X152249047Y-117118333D01*
X152201428Y-117165952D01*
X152153809Y-117261190D01*
X152153809Y-117546904D01*
X152201428Y-117642142D01*
X152249047Y-117689761D01*
X152344285Y-117737380D01*
X152487142Y-117737380D01*
X151820476Y-117070714D02*
X151582380Y-117737380D01*
X151344285Y-117070714D02*
X151582380Y-117737380D01*
X151677619Y-117975476D01*
X151725238Y-118023095D01*
X151820476Y-118070714D01*
X151010952Y-117689761D02*
X150915714Y-117737380D01*
X150725238Y-117737380D01*
X150630000Y-117689761D01*
X150582380Y-117594523D01*
X150582380Y-117546904D01*
X150630000Y-117451666D01*
X150725238Y-117404047D01*
X150868095Y-117404047D01*
X150963333Y-117356428D01*
X151010952Y-117261190D01*
X151010952Y-117213571D01*
X150963333Y-117118333D01*
X150868095Y-117070714D01*
X150725238Y-117070714D01*
X150630000Y-117118333D01*
X150296666Y-117070714D02*
X149915714Y-117070714D01*
X150153809Y-116737380D02*
X150153809Y-117594523D01*
X150106190Y-117689761D01*
X150010952Y-117737380D01*
X149915714Y-117737380D01*
X149582380Y-117737380D02*
X149582380Y-117070714D01*
X149582380Y-116737380D02*
X149630000Y-116785000D01*
X149582380Y-116832619D01*
X149534761Y-116785000D01*
X149582380Y-116737380D01*
X149582380Y-116832619D01*
X148677619Y-117689761D02*
X148772857Y-117737380D01*
X148963333Y-117737380D01*
X149058571Y-117689761D01*
X149106190Y-117642142D01*
X149153809Y-117546904D01*
X149153809Y-117261190D01*
X149106190Y-117165952D01*
X149058571Y-117118333D01*
X148963333Y-117070714D01*
X148772857Y-117070714D01*
X148677619Y-117118333D01*
X148249047Y-117737380D02*
X148249047Y-116737380D01*
X148153809Y-117356428D02*
X147868095Y-117737380D01*
X147868095Y-117070714D02*
X148249047Y-117451666D01*
X146344285Y-117213571D02*
X146201428Y-117261190D01*
X146153809Y-117308809D01*
X146106190Y-117404047D01*
X146106190Y-117546904D01*
X146153809Y-117642142D01*
X146201428Y-117689761D01*
X146296666Y-117737380D01*
X146677619Y-117737380D01*
X146677619Y-116737380D01*
X146344285Y-116737380D01*
X146249047Y-116785000D01*
X146201428Y-116832619D01*
X146153809Y-116927857D01*
X146153809Y-117023095D01*
X146201428Y-117118333D01*
X146249047Y-117165952D01*
X146344285Y-117213571D01*
X146677619Y-117213571D01*
X145677619Y-117737380D02*
X145677619Y-117070714D01*
X145677619Y-117261190D02*
X145630000Y-117165952D01*
X145582380Y-117118333D01*
X145487142Y-117070714D01*
X145391904Y-117070714D01*
X144677619Y-117689761D02*
X144772857Y-117737380D01*
X144963333Y-117737380D01*
X145058571Y-117689761D01*
X145106190Y-117594523D01*
X145106190Y-117213571D01*
X145058571Y-117118333D01*
X144963333Y-117070714D01*
X144772857Y-117070714D01*
X144677619Y-117118333D01*
X144630000Y-117213571D01*
X144630000Y-117308809D01*
X145106190Y-117404047D01*
X143772857Y-117737380D02*
X143772857Y-117213571D01*
X143820476Y-117118333D01*
X143915714Y-117070714D01*
X144106190Y-117070714D01*
X144201428Y-117118333D01*
X143772857Y-117689761D02*
X143868095Y-117737380D01*
X144106190Y-117737380D01*
X144201428Y-117689761D01*
X144249047Y-117594523D01*
X144249047Y-117499285D01*
X144201428Y-117404047D01*
X144106190Y-117356428D01*
X143868095Y-117356428D01*
X143772857Y-117308809D01*
X143296666Y-117737380D02*
X143296666Y-116737380D01*
X143201428Y-117356428D02*
X142915714Y-117737380D01*
X142915714Y-117070714D02*
X143296666Y-117451666D01*
X142344285Y-117737380D02*
X142439523Y-117689761D01*
X142487142Y-117642142D01*
X142534761Y-117546904D01*
X142534761Y-117261190D01*
X142487142Y-117165952D01*
X142439523Y-117118333D01*
X142344285Y-117070714D01*
X142201428Y-117070714D01*
X142106190Y-117118333D01*
X142058571Y-117165952D01*
X142010952Y-117261190D01*
X142010952Y-117546904D01*
X142058571Y-117642142D01*
X142106190Y-117689761D01*
X142201428Y-117737380D01*
X142344285Y-117737380D01*
X141153809Y-117070714D02*
X141153809Y-117737380D01*
X141582380Y-117070714D02*
X141582380Y-117594523D01*
X141534761Y-117689761D01*
X141439523Y-117737380D01*
X141296666Y-117737380D01*
X141201428Y-117689761D01*
X141153809Y-117642142D01*
X140820476Y-117070714D02*
X140439523Y-117070714D01*
X140677619Y-116737380D02*
X140677619Y-117594523D01*
X140630000Y-117689761D01*
X140534761Y-117737380D01*
X140439523Y-117737380D01*
X154796666Y-118482619D02*
X154749047Y-118435000D01*
X154653809Y-118387380D01*
X154415714Y-118387380D01*
X154320476Y-118435000D01*
X154272857Y-118482619D01*
X154225238Y-118577857D01*
X154225238Y-118673095D01*
X154272857Y-118815952D01*
X154844285Y-119387380D01*
X154225238Y-119387380D01*
X153606190Y-118387380D02*
X153510952Y-118387380D01*
X153415714Y-118435000D01*
X153368095Y-118482619D01*
X153320476Y-118577857D01*
X153272857Y-118768333D01*
X153272857Y-119006428D01*
X153320476Y-119196904D01*
X153368095Y-119292142D01*
X153415714Y-119339761D01*
X153510952Y-119387380D01*
X153606190Y-119387380D01*
X153701428Y-119339761D01*
X153749047Y-119292142D01*
X153796666Y-119196904D01*
X153844285Y-119006428D01*
X153844285Y-118768333D01*
X153796666Y-118577857D01*
X153749047Y-118482619D01*
X153701428Y-118435000D01*
X153606190Y-118387380D01*
X152891904Y-118482619D02*
X152844285Y-118435000D01*
X152749047Y-118387380D01*
X152510952Y-118387380D01*
X152415714Y-118435000D01*
X152368095Y-118482619D01*
X152320476Y-118577857D01*
X152320476Y-118673095D01*
X152368095Y-118815952D01*
X152939523Y-119387380D01*
X152320476Y-119387380D01*
X151701428Y-118387380D02*
X151606190Y-118387380D01*
X151510952Y-118435000D01*
X151463333Y-118482619D01*
X151415714Y-118577857D01*
X151368095Y-118768333D01*
X151368095Y-119006428D01*
X151415714Y-119196904D01*
X151463333Y-119292142D01*
X151510952Y-119339761D01*
X151606190Y-119387380D01*
X151701428Y-119387380D01*
X151796666Y-119339761D01*
X151844285Y-119292142D01*
X151891904Y-119196904D01*
X151939523Y-119006428D01*
X151939523Y-118768333D01*
X151891904Y-118577857D01*
X151844285Y-118482619D01*
X151796666Y-118435000D01*
X151701428Y-118387380D01*
X150939523Y-119006428D02*
X150177619Y-119006428D01*
X149510952Y-118387380D02*
X149415714Y-118387380D01*
X149320476Y-118435000D01*
X149272857Y-118482619D01*
X149225238Y-118577857D01*
X149177619Y-118768333D01*
X149177619Y-119006428D01*
X149225238Y-119196904D01*
X149272857Y-119292142D01*
X149320476Y-119339761D01*
X149415714Y-119387380D01*
X149510952Y-119387380D01*
X149606190Y-119339761D01*
X149653809Y-119292142D01*
X149701428Y-119196904D01*
X149749047Y-119006428D01*
X149749047Y-118768333D01*
X149701428Y-118577857D01*
X149653809Y-118482619D01*
X149606190Y-118435000D01*
X149510952Y-118387380D01*
X148272857Y-118387380D02*
X148749047Y-118387380D01*
X148796666Y-118863571D01*
X148749047Y-118815952D01*
X148653809Y-118768333D01*
X148415714Y-118768333D01*
X148320476Y-118815952D01*
X148272857Y-118863571D01*
X148225238Y-118958809D01*
X148225238Y-119196904D01*
X148272857Y-119292142D01*
X148320476Y-119339761D01*
X148415714Y-119387380D01*
X148653809Y-119387380D01*
X148749047Y-119339761D01*
X148796666Y-119292142D01*
X161034761Y-120132619D02*
X160987142Y-120085000D01*
X160891904Y-120037380D01*
X160653809Y-120037380D01*
X160558571Y-120085000D01*
X160510952Y-120132619D01*
X160463333Y-120227857D01*
X160463333Y-120323095D01*
X160510952Y-120465952D01*
X161082380Y-121037380D01*
X160463333Y-121037380D01*
X160082380Y-120037380D02*
X160082380Y-120227857D01*
X159701428Y-120037380D02*
X159701428Y-120227857D01*
X159368095Y-121037380D02*
X158844285Y-120370714D01*
X159368095Y-120370714D02*
X158844285Y-121037380D01*
X157939523Y-121037380D02*
X158510952Y-121037380D01*
X158225238Y-121037380D02*
X158225238Y-120037380D01*
X158320476Y-120180238D01*
X158415714Y-120275476D01*
X158510952Y-120323095D01*
X157558571Y-120037380D02*
X157558571Y-120227857D01*
X157177619Y-120037380D02*
X157177619Y-120227857D01*
X155987142Y-120656428D02*
X155225238Y-120656428D01*
X153987142Y-121037380D02*
X153987142Y-120037380D01*
X153653809Y-120751666D01*
X153320476Y-120037380D01*
X153320476Y-121037380D01*
X152939523Y-120037380D02*
X152320476Y-120037380D01*
X152653809Y-120418333D01*
X152510952Y-120418333D01*
X152415714Y-120465952D01*
X152368095Y-120513571D01*
X152320476Y-120608809D01*
X152320476Y-120846904D01*
X152368095Y-120942142D01*
X152415714Y-120989761D01*
X152510952Y-121037380D01*
X152796666Y-121037380D01*
X152891904Y-120989761D01*
X152939523Y-120942142D01*
X151130000Y-121037380D02*
X151130000Y-120037380D01*
X150796666Y-120751666D01*
X150463333Y-120037380D01*
X150463333Y-121037380D01*
X149844285Y-121037380D02*
X149939523Y-120989761D01*
X149987142Y-120942142D01*
X150034761Y-120846904D01*
X150034761Y-120561190D01*
X149987142Y-120465952D01*
X149939523Y-120418333D01*
X149844285Y-120370714D01*
X149701428Y-120370714D01*
X149606190Y-120418333D01*
X149558571Y-120465952D01*
X149510952Y-120561190D01*
X149510952Y-120846904D01*
X149558571Y-120942142D01*
X149606190Y-120989761D01*
X149701428Y-121037380D01*
X149844285Y-121037380D01*
X148653809Y-120370714D02*
X148653809Y-121037380D01*
X149082380Y-120370714D02*
X149082380Y-120894523D01*
X149034761Y-120989761D01*
X148939523Y-121037380D01*
X148796666Y-121037380D01*
X148701428Y-120989761D01*
X148653809Y-120942142D01*
X148177619Y-120370714D02*
X148177619Y-121037380D01*
X148177619Y-120465952D02*
X148130000Y-120418333D01*
X148034761Y-120370714D01*
X147891904Y-120370714D01*
X147796666Y-120418333D01*
X147749047Y-120513571D01*
X147749047Y-121037380D01*
X147415714Y-120370714D02*
X147034761Y-120370714D01*
X147272857Y-120037380D02*
X147272857Y-120894523D01*
X147225238Y-120989761D01*
X147130000Y-121037380D01*
X147034761Y-121037380D01*
X145939523Y-120656428D02*
X145177619Y-120656428D01*
X143415714Y-121037380D02*
X143987142Y-121037380D01*
X143701428Y-121037380D02*
X143701428Y-120037380D01*
X143796666Y-120180238D01*
X143891904Y-120275476D01*
X143987142Y-120323095D01*
X142987142Y-120942142D02*
X142939523Y-120989761D01*
X142987142Y-121037380D01*
X143034761Y-120989761D01*
X142987142Y-120942142D01*
X142987142Y-121037380D01*
X142606190Y-120037380D02*
X141939523Y-120037380D01*
X142368095Y-121037380D01*
X141606190Y-120037380D02*
X141606190Y-120227857D01*
X141225238Y-120037380D02*
X141225238Y-120227857D01*
D11*
G36*
X146910298Y-121410258D02*
G01*
X146578909Y-121466286D01*
X146399876Y-121521229D01*
X145989271Y-121765609D01*
X145597286Y-122123859D01*
X145275268Y-122543710D01*
X145134378Y-122809476D01*
X144934263Y-123271777D01*
X144468596Y-123273694D01*
X143837187Y-123342976D01*
X143274308Y-123536902D01*
X142803961Y-123842715D01*
X142450145Y-124247658D01*
X142368595Y-124389916D01*
X142230443Y-124790937D01*
X142164366Y-125269057D01*
X142173530Y-125753536D01*
X142261101Y-126173635D01*
X142285875Y-126238000D01*
X142590210Y-126751510D01*
X143014574Y-127154759D01*
X143540594Y-127435050D01*
X144149897Y-127579686D01*
X144239865Y-127588313D01*
X144827879Y-127635000D01*
X144351904Y-128242653D01*
X144142553Y-128514443D01*
X143980140Y-128733903D01*
X143888164Y-128868854D01*
X143875930Y-128894395D01*
X143952059Y-128924286D01*
X144146540Y-128952100D01*
X144295549Y-128964076D01*
X144715168Y-128989667D01*
X144118880Y-129779609D01*
X143888060Y-130090555D01*
X143703857Y-130348629D01*
X143585317Y-130526435D01*
X143551094Y-130596312D01*
X143626462Y-130559026D01*
X143823619Y-130440125D01*
X144123371Y-130251785D01*
X144506521Y-130006182D01*
X144953875Y-129715492D01*
X145357596Y-129450410D01*
X147135596Y-128277746D01*
X146435181Y-128252707D01*
X145734765Y-128227667D01*
X146258925Y-127592667D01*
X148475261Y-127590807D01*
X149153200Y-127589383D01*
X149684469Y-127585369D01*
X150091727Y-127577245D01*
X150397631Y-127563491D01*
X150624842Y-127542584D01*
X150796018Y-127513005D01*
X150933819Y-127473233D01*
X151060904Y-127421746D01*
X151072596Y-127416483D01*
X151586188Y-127100403D01*
X151967697Y-126685144D01*
X152209277Y-126186590D01*
X152303077Y-125620625D01*
X152258865Y-125147566D01*
X150060838Y-125147566D01*
X149910551Y-125336732D01*
X149664614Y-125639262D01*
X149421604Y-125926244D01*
X149206923Y-126168998D01*
X149045973Y-126338841D01*
X148964159Y-126407095D01*
X148962315Y-126407334D01*
X148877153Y-126356883D01*
X148698171Y-126223209D01*
X148460512Y-126032824D01*
X148404068Y-125986150D01*
X148159324Y-125786757D01*
X147966953Y-125637743D01*
X147861542Y-125565699D01*
X147853421Y-125562817D01*
X147788775Y-125625248D01*
X147639728Y-125798781D01*
X147425281Y-126060420D01*
X147164438Y-126387172D01*
X147015611Y-126576667D01*
X146221976Y-127592667D01*
X145543831Y-127592667D01*
X145210686Y-127590201D01*
X145019472Y-127577901D01*
X144942804Y-127548409D01*
X144953298Y-127494370D01*
X144992259Y-127444500D01*
X145158261Y-127243055D01*
X145381328Y-126962433D01*
X145642138Y-126628065D01*
X145921366Y-126265383D01*
X146199690Y-125899817D01*
X146457785Y-125556798D01*
X146676329Y-125261758D01*
X146835996Y-125040127D01*
X146917465Y-124917337D01*
X146923930Y-124902304D01*
X146859878Y-124825109D01*
X146687362Y-124674437D01*
X146435843Y-124475048D01*
X146246596Y-124333000D01*
X145960350Y-124117769D01*
X145733963Y-123938656D01*
X145596749Y-123819369D01*
X145569263Y-123785200D01*
X145644626Y-123740778D01*
X145849469Y-123657201D01*
X146151925Y-123546702D01*
X146495970Y-123429478D01*
X147422676Y-123123319D01*
X148741757Y-124135442D01*
X150060838Y-125147566D01*
X152258865Y-125147566D01*
X152248490Y-125036560D01*
X152162056Y-124737111D01*
X152022262Y-124491973D01*
X151787643Y-124230757D01*
X151754794Y-124198535D01*
X151369365Y-123893737D01*
X150942530Y-123707013D01*
X150430369Y-123622384D01*
X150146104Y-123613334D01*
X149853640Y-123593221D01*
X149724767Y-123532732D01*
X149717863Y-123507500D01*
X149671249Y-123318222D01*
X149548991Y-123040516D01*
X149377216Y-122721294D01*
X149182052Y-122407464D01*
X148989628Y-122145937D01*
X148909763Y-122056660D01*
X148444228Y-121685199D01*
X147917586Y-121465201D01*
X147309632Y-121388456D01*
X147264572Y-121388234D01*
X146910298Y-121410258D01*
G37*
X146910298Y-121410258D02*
X146578909Y-121466286D01*
X146399876Y-121521229D01*
X145989271Y-121765609D01*
X145597286Y-122123859D01*
X145275268Y-122543710D01*
X145134378Y-122809476D01*
X144934263Y-123271777D01*
X144468596Y-123273694D01*
X143837187Y-123342976D01*
X143274308Y-123536902D01*
X142803961Y-123842715D01*
X142450145Y-124247658D01*
X142368595Y-124389916D01*
X142230443Y-124790937D01*
X142164366Y-125269057D01*
X142173530Y-125753536D01*
X142261101Y-126173635D01*
X142285875Y-126238000D01*
X142590210Y-126751510D01*
X143014574Y-127154759D01*
X143540594Y-127435050D01*
X144149897Y-127579686D01*
X144239865Y-127588313D01*
X144827879Y-127635000D01*
X144351904Y-128242653D01*
X144142553Y-128514443D01*
X143980140Y-128733903D01*
X143888164Y-128868854D01*
X143875930Y-128894395D01*
X143952059Y-128924286D01*
X144146540Y-128952100D01*
X144295549Y-128964076D01*
X144715168Y-128989667D01*
X144118880Y-129779609D01*
X143888060Y-130090555D01*
X143703857Y-130348629D01*
X143585317Y-130526435D01*
X143551094Y-130596312D01*
X143626462Y-130559026D01*
X143823619Y-130440125D01*
X144123371Y-130251785D01*
X144506521Y-130006182D01*
X144953875Y-129715492D01*
X145357596Y-129450410D01*
X147135596Y-128277746D01*
X146435181Y-128252707D01*
X145734765Y-128227667D01*
X146258925Y-127592667D01*
X148475261Y-127590807D01*
X149153200Y-127589383D01*
X149684469Y-127585369D01*
X150091727Y-127577245D01*
X150397631Y-127563491D01*
X150624842Y-127542584D01*
X150796018Y-127513005D01*
X150933819Y-127473233D01*
X151060904Y-127421746D01*
X151072596Y-127416483D01*
X151586188Y-127100403D01*
X151967697Y-126685144D01*
X152209277Y-126186590D01*
X152303077Y-125620625D01*
X152258865Y-125147566D01*
X150060838Y-125147566D01*
X149910551Y-125336732D01*
X149664614Y-125639262D01*
X149421604Y-125926244D01*
X149206923Y-126168998D01*
X149045973Y-126338841D01*
X148964159Y-126407095D01*
X148962315Y-126407334D01*
X148877153Y-126356883D01*
X148698171Y-126223209D01*
X148460512Y-126032824D01*
X148404068Y-125986150D01*
X148159324Y-125786757D01*
X147966953Y-125637743D01*
X147861542Y-125565699D01*
X147853421Y-125562817D01*
X147788775Y-125625248D01*
X147639728Y-125798781D01*
X147425281Y-126060420D01*
X147164438Y-126387172D01*
X147015611Y-126576667D01*
X146221976Y-127592667D01*
X145543831Y-127592667D01*
X145210686Y-127590201D01*
X145019472Y-127577901D01*
X144942804Y-127548409D01*
X144953298Y-127494370D01*
X144992259Y-127444500D01*
X145158261Y-127243055D01*
X145381328Y-126962433D01*
X145642138Y-126628065D01*
X145921366Y-126265383D01*
X146199690Y-125899817D01*
X146457785Y-125556798D01*
X146676329Y-125261758D01*
X146835996Y-125040127D01*
X146917465Y-124917337D01*
X146923930Y-124902304D01*
X146859878Y-124825109D01*
X146687362Y-124674437D01*
X146435843Y-124475048D01*
X146246596Y-124333000D01*
X145960350Y-124117769D01*
X145733963Y-123938656D01*
X145596749Y-123819369D01*
X145569263Y-123785200D01*
X145644626Y-123740778D01*
X145849469Y-123657201D01*
X146151925Y-123546702D01*
X146495970Y-123429478D01*
X147422676Y-123123319D01*
X148741757Y-124135442D01*
X150060838Y-125147566D01*
X152258865Y-125147566D01*
X152248490Y-125036560D01*
X152162056Y-124737111D01*
X152022262Y-124491973D01*
X151787643Y-124230757D01*
X151754794Y-124198535D01*
X151369365Y-123893737D01*
X150942530Y-123707013D01*
X150430369Y-123622384D01*
X150146104Y-123613334D01*
X149853640Y-123593221D01*
X149724767Y-123532732D01*
X149717863Y-123507500D01*
X149671249Y-123318222D01*
X149548991Y-123040516D01*
X149377216Y-122721294D01*
X149182052Y-122407464D01*
X148989628Y-122145937D01*
X148909763Y-122056660D01*
X148444228Y-121685199D01*
X147917586Y-121465201D01*
X147309632Y-121388456D01*
X147264572Y-121388234D01*
X146910298Y-121410258D01*
D12*
X176470000Y-129600000D02*
X176470000Y-126940000D01*
X179070000Y-129600000D02*
X176470000Y-129600000D01*
X179070000Y-126940000D02*
X176470000Y-126940000D01*
X179070000Y-129600000D02*
X179070000Y-126940000D01*
X180340000Y-129600000D02*
X181670000Y-129600000D01*
X181670000Y-129600000D02*
X181670000Y-128270000D01*
X176470000Y-113852000D02*
X176470000Y-111192000D01*
X179070000Y-113852000D02*
X176470000Y-113852000D01*
X179070000Y-111192000D02*
X176470000Y-111192000D01*
X179070000Y-113852000D02*
X179070000Y-111192000D01*
X180340000Y-113852000D02*
X181670000Y-113852000D01*
X181670000Y-113852000D02*
X181670000Y-112522000D01*
X168888000Y-110980000D02*
X173588000Y-110980000D01*
X173588000Y-110980000D02*
X173588000Y-125080000D01*
X173588000Y-125080000D02*
X168888000Y-125080000D01*
X168888000Y-125080000D02*
X168888000Y-110980000D01*
X168888000Y-113530000D02*
X169488000Y-113530000D01*
X169488000Y-113530000D02*
X169488000Y-111580000D01*
X169488000Y-111580000D02*
X172988000Y-111580000D01*
X172988000Y-111580000D02*
X172988000Y-124480000D01*
X172988000Y-124480000D02*
X169488000Y-124480000D01*
X169488000Y-124480000D02*
X169488000Y-122530000D01*
X169488000Y-122530000D02*
X168888000Y-122530000D01*
X170188000Y-110980000D02*
X170188000Y-111580000D01*
X171488000Y-110980000D02*
X171488000Y-111580000D01*
X170188000Y-125080000D02*
X170188000Y-124480000D01*
X171488000Y-125080000D02*
X171488000Y-124480000D01*
X168888000Y-112730000D02*
X168688000Y-112730000D01*
X168688000Y-112730000D02*
X168688000Y-112430000D01*
X168688000Y-112430000D02*
X168888000Y-112430000D01*
X168788000Y-112730000D02*
X168788000Y-112430000D01*
X172988000Y-113930000D02*
X172488000Y-113930000D01*
X172488000Y-113930000D02*
X172488000Y-114130000D01*
X172488000Y-114130000D02*
X172988000Y-114130000D01*
X172988000Y-114030000D02*
X172488000Y-114030000D01*
X172988000Y-115930000D02*
X172488000Y-115930000D01*
X172488000Y-115930000D02*
X172488000Y-116130000D01*
X172488000Y-116130000D02*
X172988000Y-116130000D01*
X172988000Y-116030000D02*
X172488000Y-116030000D01*
X172988000Y-117930000D02*
X172488000Y-117930000D01*
X172488000Y-117930000D02*
X172488000Y-118130000D01*
X172488000Y-118130000D02*
X172988000Y-118130000D01*
X172988000Y-118030000D02*
X172488000Y-118030000D01*
X172988000Y-119930000D02*
X172488000Y-119930000D01*
X172488000Y-119930000D02*
X172488000Y-120130000D01*
X172488000Y-120130000D02*
X172988000Y-120130000D01*
X172988000Y-120030000D02*
X172488000Y-120030000D01*
X172988000Y-121930000D02*
X172488000Y-121930000D01*
X172488000Y-121930000D02*
X172488000Y-122130000D01*
X172488000Y-122130000D02*
X172988000Y-122130000D01*
X172988000Y-122030000D02*
X172488000Y-122030000D01*
X168588000Y-111930000D02*
X168588000Y-110680000D01*
X168588000Y-110680000D02*
X169838000Y-110680000D01*
D10*
X182122380Y-127936666D02*
X182836666Y-127936666D01*
X182979523Y-127889047D01*
X183074761Y-127793809D01*
X183122380Y-127650952D01*
X183122380Y-127555714D01*
X182122380Y-128317619D02*
X182122380Y-128936666D01*
X182503333Y-128603333D01*
X182503333Y-128746190D01*
X182550952Y-128841428D01*
X182598571Y-128889047D01*
X182693809Y-128936666D01*
X182931904Y-128936666D01*
X183027142Y-128889047D01*
X183074761Y-128841428D01*
X183122380Y-128746190D01*
X183122380Y-128460476D01*
X183074761Y-128365238D01*
X183027142Y-128317619D01*
X182122380Y-112188666D02*
X182836666Y-112188666D01*
X182979523Y-112141047D01*
X183074761Y-112045809D01*
X183122380Y-111902952D01*
X183122380Y-111807714D01*
X182217619Y-112617238D02*
X182170000Y-112664857D01*
X182122380Y-112760095D01*
X182122380Y-112998190D01*
X182170000Y-113093428D01*
X182217619Y-113141047D01*
X182312857Y-113188666D01*
X182408095Y-113188666D01*
X182550952Y-113141047D01*
X183122380Y-112569619D01*
X183122380Y-113188666D01*
X167340380Y-114196666D02*
X168054666Y-114196666D01*
X168197523Y-114149047D01*
X168292761Y-114053809D01*
X168340380Y-113910952D01*
X168340380Y-113815714D01*
X168340380Y-115196666D02*
X168340380Y-114625238D01*
X168340380Y-114910952D02*
X167340380Y-114910952D01*
X167483238Y-114815714D01*
X167578476Y-114720476D01*
X167626095Y-114625238D01*
M02*
