<?xml version="1.0" encoding="UTF-8" standalone="no"?>
<!-- Generator: Adobe Illustrator 17.1.0, SVG Export Plug-In . SVG Version: 6.00 Build 0)  -->

<svg
   xmlns:dc="http://purl.org/dc/elements/1.1/"
   xmlns:cc="http://creativecommons.org/ns#"
   xmlns:rdf="http://www.w3.org/1999/02/22-rdf-syntax-ns#"
   xmlns:svg="http://www.w3.org/2000/svg"
   xmlns="http://www.w3.org/2000/svg"
   xmlns:sodipodi="http://sodipodi.sourceforge.net/DTD/sodipodi-0.dtd"
   xmlns:inkscape="http://www.inkscape.org/namespaces/inkscape"
   version="1.1"
   id="Layer_1"
   x="0px"
   y="0px"
   viewBox="0 0 193.33332 193.33332"
   enable-background="new 0 0 602.353 172.259"
   xml:space="preserve"
   sodipodi:docname="alltrails - sign - logo only.svg"
   inkscape:version="0.92.2 (5c3e80d, 2017-08-06)"
   width="193.33333"
   height="193.33333"><metadata
     id="metadata35"><rdf:RDF><cc:Work
         rdf:about=""><dc:format>image/svg+xml</dc:format><dc:type
           rdf:resource="http://purl.org/dc/dcmitype/StillImage" /><dc:title></dc:title></cc:Work></rdf:RDF></metadata><defs
     id="defs33" /><sodipodi:namedview
     pagecolor="#ffffff"
     bordercolor="#666666"
     borderopacity="1"
     objecttolerance="10"
     gridtolerance="10"
     guidetolerance="10"
     inkscape:pageopacity="0"
     inkscape:pageshadow="2"
     inkscape:window-width="2147"
     inkscape:window-height="1036"
     id="namedview31"
     showgrid="false"
     inkscape:zoom="2.0718747"
     inkscape:cx="161.93363"
     inkscape:cy="67.838205"
     inkscape:window-x="0"
     inkscape:window-y="27"
     inkscape:window-maximized="0"
     inkscape:current-layer="Layer_1"
     fit-margin-top="0"
     fit-margin-left="0"
     fit-margin-right="0"
     fit-margin-bottom="0" /><g
     style="fill:#0000ff;fill-opacity:1;stroke:#000000;stroke-opacity:1"
     id="g26"
     transform="translate(-19.318765,-29.185707)"><path
       inkscape:connector-curvature="0"
       style="fill:#0000ff;fill-opacity:1;stroke:#000000;stroke-opacity:1"
       id="path24"
       d="M 179.141,122.373 C 158.38,100.457 113.887,91.296 85.473,105.003 l 29.725,-41.167 14.199,22.48 c 0.48,0.795 1.353,1.327 2.349,1.327 0.548,0 1.056,-0.165 1.484,-0.442 l 0.006,0.001 0.036,-0.024 c 0,0 0.009,-0.006 0.013,-0.009 l 10.712,-7.168 c 0,0 16.71,17.991 25.86,27.816 0.009,0.009 0.017,0.019 0.026,0.028 0,0 0.007,0.008 0.011,0.011 l 0.002,-10e-4 c 0.185,0.175 0.433,0.284 0.708,0.284 0.57,0 1.032,-0.462 1.032,-1.032 0,-0.173 -0.046,-0.333 -0.121,-0.476 l 0.004,-0.003 c -5.368,-9.39 -14.965,-26.007 -22.954,-39.768 -1.369,-2.343 -2.982,-2.715 -5.324,-1.179 l -7.238,4.975 -18.263,-28.223 c -0.032,-0.051 -0.062,-0.101 -0.097,-0.149 l -0.027,-0.042 h -0.008 c -0.574,-0.78 -1.491,-1.293 -2.534,-1.293 -0.961,0 -1.811,0.439 -2.39,1.118 l -0.015,-10e-4 c -0.044,0.059 -0.092,0.124 -0.137,0.185 -0.031,0.042 -0.064,0.082 -0.093,0.125 -10.541,14.21 -46.343,62.065 -60.826,81.361 l 0.004,0.004 c -0.274,0.377 -0.441,0.838 -0.441,1.34 0,1.263 1.024,2.287 2.287,2.287 0.358,0 0.693,-0.09 0.995,-0.237 l 0.005,0.006 c 0.523,-0.253 1.082,-0.551 1.638,-0.853 16.968,-8.777 55.066,-21.575 81.4,-1.398 11.564,9.815 51.896,7.601 41.64,-2.513 z" /></g><rect
     style="fill:none;fill-opacity:1;stroke:#ffff00;stroke-width:1.33333337;stroke-miterlimit:4;stroke-dasharray:none;stroke-opacity:1"
     id="rect4586"
     width="192"
     height="192"
     x="0.66666669"
     y="0.66666669" /></svg>