<?xml version="1.0" encoding="UTF-8" standalone="no"?>
<!-- Generator: Adobe Illustrator 17.1.0, SVG Export Plug-In . SVG Version: 6.00 Build 0)  -->

<svg
   xmlns:dc="http://purl.org/dc/elements/1.1/"
   xmlns:cc="http://creativecommons.org/ns#"
   xmlns:rdf="http://www.w3.org/1999/02/22-rdf-syntax-ns#"
   xmlns:svg="http://www.w3.org/2000/svg"
   xmlns="http://www.w3.org/2000/svg"
   xmlns:sodipodi="http://sodipodi.sourceforge.net/DTD/sodipodi-0.dtd"
   xmlns:inkscape="http://www.inkscape.org/namespaces/inkscape"
   version="1.1"
   id="Layer_1"
   x="0px"
   y="0px"
   viewBox="0 0 576.00132 192.00132"
   enable-background="new 0 0 602.353 172.259"
   xml:space="preserve"
   sodipodi:docname="alltrails - sign - separated.svg"
   inkscape:version="0.92.2 (5c3e80d, 2017-08-06)"
   width="576.00134"
   height="192.00133"><metadata
     id="metadata35"><rdf:RDF><cc:Work
         rdf:about=""><dc:format>image/svg+xml</dc:format><dc:type
           rdf:resource="http://purl.org/dc/dcmitype/StillImage" /><dc:title></dc:title></cc:Work></rdf:RDF></metadata><defs
     id="defs33" /><sodipodi:namedview
     pagecolor="#ffffff"
     bordercolor="#666666"
     borderopacity="1"
     objecttolerance="10"
     gridtolerance="10"
     guidetolerance="10"
     inkscape:pageopacity="0"
     inkscape:pageshadow="2"
     inkscape:window-width="2147"
     inkscape:window-height="1036"
     id="namedview31"
     showgrid="false"
     inkscape:zoom="1.0359374"
     inkscape:cx="189.83695"
     inkscape:cy="98.93986"
     inkscape:window-x="0"
     inkscape:window-y="27"
     inkscape:window-maximized="0"
     inkscape:current-layer="Layer_1"
     fit-margin-top="0"
     fit-margin-left="0"
     fit-margin-right="0"
     fit-margin-bottom="0" /><g
     id="g28"
     style="fill:#0000ff;fill-opacity:1;stroke:#000000;stroke-opacity:1"
     transform="translate(-13.174834,-28.982295)"><g
       id="g22"
       style="fill:#0000ff;fill-opacity:1;stroke:#000000;stroke-opacity:1"><path
         d="m 280.977,51.177 h -6.183 c -1.63,0 -2.951,1.321 -2.951,2.951 v 64.003 c 0,1.63 1.321,2.951 2.951,2.951 h 6.181 c 1.63,0 2.951,-1.321 2.951,-2.951 V 54.128 c 0.002,-1.63 -1.319,-2.951 -2.949,-2.951 z"
         id="path2"
         style="fill:#0000ff;fill-opacity:1;stroke:#000000;stroke-opacity:1"
         inkscape:connector-curvature="0" /><path
         d="m 307,51.177 h -6.183 c -1.63,0 -2.951,1.321 -2.951,2.951 v 64.003 c 0,1.63 1.321,2.951 2.951,2.951 H 307 c 1.63,0 2.951,-1.321 2.951,-2.951 V 54.128 c 0,-1.63 -1.321,-2.951 -2.951,-2.951 z"
         id="path4"
         style="fill:#0000ff;fill-opacity:1;stroke:#000000;stroke-opacity:1"
         inkscape:connector-curvature="0" /><path
         d="m 496.225,51.177 h -6.183 c -1.63,0 -2.951,1.321 -2.951,2.951 v 64.003 c 0,1.63 1.321,2.951 2.951,2.951 h 6.181 c 1.63,0 2.951,-1.321 2.951,-2.951 V 54.128 c 0.002,-1.63 -1.319,-2.951 -2.949,-2.951 z"
         id="path6"
         style="fill:#0000ff;fill-opacity:1;stroke:#000000;stroke-opacity:1"
         inkscape:connector-curvature="0" /><path
         d="m 470.142,70.156 h -6.183 c -1.63,0 -2.951,1.321 -2.951,2.951 v 45.024 c 0,1.63 1.321,2.951 2.951,2.951 h 6.181 c 1.63,0 2.951,-1.321 2.951,-2.951 V 73.107 c 0.002,-1.63 -1.319,-2.951 -2.949,-2.951 z"
         id="path8"
         style="fill:#0000ff;fill-opacity:1;stroke:#000000;stroke-opacity:1"
         inkscape:connector-curvature="0" /><path
         d="m 368.624,51.177 h -50.822 c -1.63,0 -2.951,1.321 -2.951,2.95 v 5.498 c 0,1.63 1.321,2.951 2.951,2.951 h 19.226 v 55.556 c 0,1.63 1.321,2.951 2.951,2.951 h 6.453 c 1.63,0 2.951,-1.321 2.951,-2.951 V 62.576 h 19.24 c 1.63,0 2.951,-1.321 2.951,-2.951 v -5.496 c 0.002,-1.631 -1.32,-2.952 -2.95,-2.952 z"
         id="path10"
         style="fill:#0000ff;fill-opacity:1;stroke:#000000;stroke-opacity:1"
         inkscape:connector-curvature="0" /><path
         d="m 394.871,67.451 c -0.113,0 -0.225,0.006 -0.335,0.019 l 10e-4,-0.004 c -7.459,0.857 -12.5,5.853 -15.389,12.771 v -7.13 c 0,-1.63 -1.321,-2.951 -2.951,-2.951 h -6.182 c -1.63,0 -2.951,1.321 -2.951,2.951 v 0 45.024 c 0,1.63 1.321,2.951 2.951,2.951 h 6.182 c 1.63,0 2.951,-1.321 2.951,-2.951 v -17.122 c 0,-12.823 6.219,-19.677 15.416,-20.725 l -0.002,-0.002 c 1.835,-0.212 3.26,-1.772 3.26,-3.664 v -6.215 c 0,-1.63 -1.321,-2.952 -2.951,-2.952 z"
         id="path12"
         style="fill:#0000ff;fill-opacity:1;stroke:#000000;stroke-opacity:1"
         inkscape:connector-curvature="0" /><path
         d="m 424.431,67.554 c -7.337,0 -12.559,1.314 -17.536,3.315 -1.06,0.448 -1.805,1.493 -1.805,2.716 0,0.329 0.054,0.646 0.154,0.942 l -0.012,-0.011 1.442,4.238 0.002,-0.004 c 0.406,1.145 1.498,1.965 2.782,1.965 0.363,0 0.71,-0.066 1.031,-0.186 3.77,-1.357 7.527,-2.19 12.244,-2.19 8.389,0 12.982,3.995 12.982,11.285 v 0.999 c -4.094,-1.298 -8.189,-2.197 -14.58,-2.197 -12.284,0 -21.371,5.592 -21.371,17.277 v 0.2 c 0,10.586 8.788,16.278 18.775,16.278 7.989,0 13.482,-3.296 17.077,-7.59 v 3.54 c 0,1.63 1.321,2.951 2.951,2.951 h 6.081 c 1.63,0 2.951,-1.321 2.951,-2.951 V 89.825 c 0,-14.082 -7.589,-22.271 -23.168,-22.271 z m 11.484,34.454 c 0,6.591 -5.992,11.085 -13.982,11.085 -5.692,0 -10.186,-2.796 -10.186,-7.789 v -0.2 c 0,-5.093 4.494,-8.189 12.084,-8.189 4.694,0 8.988,0.899 12.084,2.097 z"
         id="path14"
         style="fill:#0000ff;fill-opacity:1;stroke:#000000;stroke-opacity:1"
         inkscape:connector-curvature="0" /><circle
         cx="467.05099"
         cy="56.685001"
         r="6.71"
         id="circle16"
         style="fill:#0000ff;fill-opacity:1;stroke:#000000;stroke-opacity:1" /><path
         d="m 534.798,89.924 c -6.192,-1.997 -11.884,-3.595 -11.884,-7.39 v -0.2 c 0,-3.096 2.697,-5.293 7.39,-5.293 3.704,0 8.118,1.352 12.464,3.63 0.388,0.188 0.821,0.298 1.281,0.298 1.074,0 2.014,-0.575 2.53,-1.433 l 1.63,-2.921 c 0.289,-0.526 0.459,-1.173 0.459,-1.815 0,-1.426 -0.809,-2.663 -1.993,-3.277 l 0.005,-10e-4 c -4.968,-2.551 -10.72,-4.068 -16.077,-4.068 -10.486,0 -18.775,6.092 -18.775,16.078 v 0.2 c 0,10.086 8.688,13.282 16.478,15.479 6.192,1.897 11.784,3.295 11.784,7.39 v 0.2 c 0,3.495 -2.996,5.692 -8.189,5.692 -4.667,0 -9.933,-1.649 -14.955,-4.875 l -10e-4,0.002 c -0.442,-0.263 -0.958,-0.415 -1.509,-0.415 -1.038,0 -1.952,0.536 -2.478,1.347 l -0.004,-0.013 -1.786,2.712 h 0.003 c -0.368,0.574 -0.581,1.256 -0.581,1.988 0,1.238 0.612,2.33 1.547,2.999 6.026,3.846 13.036,5.843 19.464,5.843 10.985,0 19.574,-5.492 19.574,-16.578 v -0.2 c 0.002,-9.487 -8.687,-12.982 -16.377,-15.379 z"
         id="path18"
         style="fill:#0000ff;fill-opacity:1;stroke:#000000;stroke-opacity:1"
         inkscape:connector-curvature="0" /><path
         d="m 266.14,116.973 0.003,0.002 -28.19,-64.524 -0.005,0.004 c -0.454,-1.046 -1.495,-1.777 -2.708,-1.777 h -7.109 c -1.213,0 -2.254,0.732 -2.708,1.777 l -0.004,-0.004 -28.19,64.524 0.003,-0.002 c -0.152,0.356 -0.236,0.747 -0.236,1.158 0,1.63 1.321,2.951 2.951,2.951 h 5.147 c 1.807,0 3.359,-1.084 4.047,-2.637 l 4.725,-11.09 h 35.64 l 4.725,11.09 c 0.688,1.552 2.24,2.637 4.047,2.637 h 5.146 c 1.63,0 2.951,-1.321 2.951,-2.951 10e-4,-0.411 -0.083,-0.802 -0.235,-1.158 z m -34.453,-51.616 11.983,27.963 1.301,3.151 h -26.568 l 1.301,-3.151 z"
         id="path20"
         style="fill:#0000ff;fill-opacity:1;stroke:#000000;stroke-opacity:1"
         inkscape:connector-curvature="0" /></g><g
       id="g26"
       style="fill:#0000ff;fill-opacity:1;stroke:#000000;stroke-opacity:1"><path
         d="M 179.141,122.373 C 158.38,100.457 113.887,91.296 85.473,105.003 l 29.725,-41.167 14.199,22.48 c 0.48,0.795 1.353,1.327 2.349,1.327 0.548,0 1.056,-0.165 1.484,-0.442 l 0.006,0.001 0.036,-0.024 c 0,0 0.009,-0.006 0.013,-0.009 l 10.712,-7.168 c 0,0 16.71,17.991 25.86,27.816 0.009,0.009 0.017,0.019 0.026,0.028 0,0 0.007,0.008 0.011,0.011 l 0.002,-10e-4 c 0.185,0.175 0.433,0.284 0.708,0.284 0.57,0 1.032,-0.462 1.032,-1.032 0,-0.173 -0.046,-0.333 -0.121,-0.476 l 0.004,-0.003 c -5.368,-9.39 -14.965,-26.007 -22.954,-39.768 -1.369,-2.343 -2.982,-2.715 -5.324,-1.179 l -7.238,4.975 -18.263,-28.223 c -0.032,-0.051 -0.062,-0.101 -0.097,-0.149 l -0.027,-0.042 h -0.008 c -0.574,-0.78 -1.491,-1.293 -2.534,-1.293 -0.961,0 -1.811,0.439 -2.39,1.118 l -0.015,-10e-4 c -0.044,0.059 -0.092,0.124 -0.137,0.185 -0.031,0.042 -0.064,0.082 -0.093,0.125 -10.541,14.21 -46.343,62.065 -60.826,81.361 l 0.004,0.004 c -0.274,0.377 -0.441,0.838 -0.441,1.34 0,1.263 1.024,2.287 2.287,2.287 0.358,0 0.693,-0.09 0.995,-0.237 l 0.005,0.006 c 0.523,-0.253 1.082,-0.551 1.638,-0.853 16.968,-8.777 55.066,-21.575 81.4,-1.398 11.564,9.815 51.896,7.601 41.64,-2.513 z"
         id="path24"
         style="fill:#0000ff;fill-opacity:1;stroke:#000000;stroke-opacity:1"
         inkscape:connector-curvature="0" /></g></g><rect
     style="fill:none;fill-opacity:1;stroke:#ffff00;stroke-width:1.33333333;stroke-miterlimit:4;stroke-dasharray:none;stroke-opacity:1"
     id="rect4550"
     width="576"
     height="192"
     x="0.00066666497"
     y="0.00066666497" /><path
     style="fill:none;stroke:#ffff00;stroke-width:1.33333333;stroke-linecap:butt;stroke-linejoin:miter;stroke-opacity:1;stroke-miterlimit:4;stroke-dasharray:none"
     d="M 176.20027,-0.48532451 V 193.36648"
     id="path4552"
     inkscape:connector-curvature="0" /></svg>