<?xml version="1.0" encoding="utf-8" ?>
<svg baseProfile="full" height="11in" version="1.1" width="8.5in" xmlns="http://www.w3.org/2000/svg" xmlns:ev="http://www.w3.org/2001/xml-events" xmlns:xlink="http://www.w3.org/1999/xlink"><defs /><rect fill="none" height="11in" stroke="none" width="8.5in" x="0" y="0" /><svg height="5.5in" width="4.25in" x="0" y="0"><defs /><rect fill="none" height="5.5in" stroke="none" width="4.25in" x="0" y="0" /><text x="0.25in" y="0.3in">Elk Mountain</text><text x="0.25in" y="0.5in">SOTA: W7M/FN-110  @  6pts* K-0028</text><text x=".25in" y="0.75in">Ele: 2388m/7835'</text><text x=".25in" y="1in">Loc: DN38gh   48.3066, -113.4445</text><text x=".5in" y="1.25in">Flathead County, MT, US</text><text x=".25in" y="1.5in">Date (UTC):</text><text x=".25in" y="1.75in">WX:</text><text x=".25in" y="2.25in">Notes:</text><image height="2in" preserveAspectRatio="xMidYMid meet" width="3.75in" x="0.25in" xlink:href="file:///home/benvh/projects/scratch/sota_qsl/W7M-FN-110.png" y="3.5in" /></svg><svg height="5.5in" width="4.25in" x="4.25in" y="0"><defs /><rect fill="none" height="5.5in" stroke="none" width="4.25in" x="0" y="0" /><text x="0.25in" y="0.3in">Blacktail Hills</text><text x="0.25in" y="0.5in">SOTA: W7M/FN-198  @  2pts* K-0028</text><text x=".25in" y="0.75in">Ele: 1857m/6092'</text><text x=".25in" y="1in">Loc: DN38hh   48.3025, -113.3965</text><text x=".5in" y="1.25in">Flathead County, MT, US</text><text x=".25in" y="1.5in">Date (UTC):</text><text x=".25in" y="1.75in">WX:</text><text x=".25in" y="2.25in">Notes:</text><image height="2in" preserveAspectRatio="xMidYMid meet" width="3.75in" x="0.25in" xlink:href="file:///home/benvh/projects/scratch/sota_qsl/W7M-FN-198.png" y="3.5in" /></svg><svg height="5.5in" width="4.25in" x="0" y="5.5in"><defs /><rect fill="none" height="5.5in" stroke="none" width="4.25in" x="0" y="0" /><text x="0.25in" y="0.3in">Mount Henkel</text><text x="0.25in" y="0.5in">SOTA: W7M/GR-042  @  6pts* K-0028</text><text x=".25in" y="0.75in">Ele: 2673m/8770'</text><text x=".25in" y="1in">Loc: DN38dt   48.8216, -113.6835</text><text x=".5in" y="1.25in">Glacier County, MT, US</text><text x=".25in" y="1.5in">Date (UTC):</text><text x=".25in" y="1.75in">WX:</text><text x=".25in" y="2.25in">Notes:</text><image height="2in" preserveAspectRatio="xMidYMid meet" width="3.75in" x="0.25in" xlink:href="file:///home/benvh/projects/scratch/sota_qsl/W7M-GR-042.png" y="3.5in" /></svg><svg height="5.5in" width="4.25in" x="4.25in" y="5.5in"><defs /><rect fill="none" height="5.5in" stroke="none" width="4.25in" x="0" y="0" /><text x="0.25in" y="0.3in">Pyramid Peak</text><text x="0.25in" y="0.5in">SOTA: W7M/GR-100  @  6pts* K-0028</text><text x=".25in" y="0.75in">Ele: 2499m/8200'</text><text x=".25in" y="1in">Loc: DN38cu   48.8737, -113.8308</text><text x=".5in" y="1.25in">Glacier County, MT, US</text><text x=".25in" y="1.5in">Date (UTC):</text><text x=".25in" y="1.75in">WX:</text><text x=".25in" y="2.25in">Notes:</text><image height="2in" preserveAspectRatio="xMidYMid meet" width="3.75in" x="0.25in" xlink:href="file:///home/benvh/projects/scratch/sota_qsl/W7M-GR-100.png" y="3.5in" /></svg></svg>