%TF.GenerationSoftware,KiCad,Pcbnew,5.1.6-c6e7f7d~86~ubuntu18.04.1*%
%TF.CreationDate,2020-05-28T22:35:11-04:00*%
%TF.ProjectId,2020 05 FPC Breakout,32303230-2030-4352-9046-504320427265,rev?*%
%TF.SameCoordinates,Original*%
%TF.FileFunction,Legend,Top*%
%TF.FilePolarity,Positive*%
%FSLAX46Y46*%
G04 Gerber Fmt 4.6, Leading zero omitted, Abs format (unit mm)*
G04 Created by KiCad (PCBNEW 5.1.6-c6e7f7d~86~ubuntu18.04.1) date 2020-05-28 22:35:11*
%MOMM*%
%LPD*%
G01*
G04 APERTURE LIST*
%ADD10C,0.120000*%
%ADD11C,0.150000*%
G04 APERTURE END LIST*
D10*
%TO.C,J2*%
X141614000Y-74636500D02*
X142944000Y-74636500D01*
X141614000Y-75966500D02*
X141614000Y-74636500D01*
X141614000Y-77236500D02*
X144274000Y-77236500D01*
X144274000Y-77236500D02*
X144274000Y-105236500D01*
X141614000Y-77236500D02*
X141614000Y-105236500D01*
X141614000Y-105236500D02*
X144274000Y-105236500D01*
D11*
%TO.C,J1*%
X130048000Y-83931500D02*
X137048000Y-83931500D01*
X130048000Y-95331500D02*
X130048000Y-83931500D01*
X137048000Y-95331500D02*
X130048000Y-95331500D01*
X137048000Y-83931500D02*
X137048000Y-95331500D01*
%TO.C,J2*%
X142610666Y-73088880D02*
X142610666Y-73803166D01*
X142563047Y-73946023D01*
X142467809Y-74041261D01*
X142324952Y-74088880D01*
X142229714Y-74088880D01*
X143039238Y-73184119D02*
X143086857Y-73136500D01*
X143182095Y-73088880D01*
X143420190Y-73088880D01*
X143515428Y-73136500D01*
X143563047Y-73184119D01*
X143610666Y-73279357D01*
X143610666Y-73374595D01*
X143563047Y-73517452D01*
X142991619Y-74088880D01*
X143610666Y-74088880D01*
%TO.C,J1*%
X130400380Y-90214833D02*
X131114666Y-90214833D01*
X131257523Y-90262452D01*
X131352761Y-90357690D01*
X131400380Y-90500547D01*
X131400380Y-90595785D01*
X131400380Y-89214833D02*
X131400380Y-89786261D01*
X131400380Y-89500547D02*
X130400380Y-89500547D01*
X130543238Y-89595785D01*
X130638476Y-89691023D01*
X130686095Y-89786261D01*
X137555142Y-86431500D02*
X137602761Y-86383880D01*
X137650380Y-86431500D01*
X137602761Y-86479119D01*
X137555142Y-86431500D01*
X137650380Y-86431500D01*
%TD*%
M02*
