G04 #@! TF.FileFunction,Legend,Top*
%FSLAX46Y46*%
G04 Gerber Fmt 4.6, Leading zero omitted, Abs format (unit mm)*
G04 Created by KiCad (PCBNEW 4.0.7-e2-6376~58~ubuntu17.04.1) date Wed Mar  7 17:18:45 2018*
%MOMM*%
%LPD*%
G01*
G04 APERTURE LIST*
%ADD10C,0.100000*%
%ADD11C,0.300000*%
%ADD12C,0.120000*%
%ADD13C,0.150000*%
G04 APERTURE END LIST*
D10*
D11*
X136128286Y-112367143D02*
X136342572Y-112438571D01*
X136699715Y-112438571D01*
X136842572Y-112367143D01*
X136914001Y-112295714D01*
X136985429Y-112152857D01*
X136985429Y-112010000D01*
X136914001Y-111867143D01*
X136842572Y-111795714D01*
X136699715Y-111724286D01*
X136414001Y-111652857D01*
X136271143Y-111581429D01*
X136199715Y-111510000D01*
X136128286Y-111367143D01*
X136128286Y-111224286D01*
X136199715Y-111081429D01*
X136271143Y-111010000D01*
X136414001Y-110938571D01*
X136771143Y-110938571D01*
X136985429Y-111010000D01*
X137485429Y-110938571D02*
X137842572Y-112438571D01*
X138128286Y-111367143D01*
X138414000Y-112438571D01*
X138771143Y-110938571D01*
X134374001Y-110938571D02*
X135374001Y-112438571D01*
X135374001Y-110938571D02*
X134374001Y-112438571D01*
X132334000Y-111724286D02*
X132334000Y-112438571D01*
X131834000Y-110938571D02*
X132334000Y-111724286D01*
X132834000Y-110938571D01*
X129968572Y-112438571D02*
X129111429Y-112438571D01*
X129540001Y-112438571D02*
X129540001Y-110938571D01*
X129397144Y-111152857D01*
X129254286Y-111295714D01*
X129111429Y-111367143D01*
X126928572Y-110938571D02*
X127071429Y-110938571D01*
X127214286Y-111010000D01*
X127285715Y-111081429D01*
X127357144Y-111224286D01*
X127428572Y-111510000D01*
X127428572Y-111867143D01*
X127357144Y-112152857D01*
X127285715Y-112295714D01*
X127214286Y-112367143D01*
X127071429Y-112438571D01*
X126928572Y-112438571D01*
X126785715Y-112367143D01*
X126714286Y-112295714D01*
X126642858Y-112152857D01*
X126571429Y-111867143D01*
X126571429Y-111510000D01*
X126642858Y-111224286D01*
X126714286Y-111081429D01*
X126785715Y-111010000D01*
X126928572Y-110938571D01*
X119828571Y-143515714D02*
X121328571Y-142515714D01*
X119828571Y-142515714D02*
X121328571Y-143515714D01*
X121328571Y-141944286D02*
X119828571Y-141944286D01*
X120400000Y-141944286D02*
X120328571Y-141801429D01*
X120328571Y-141515715D01*
X120400000Y-141372858D01*
X120471429Y-141301429D01*
X120614286Y-141230000D01*
X121042857Y-141230000D01*
X121185714Y-141301429D01*
X121257143Y-141372858D01*
X121328571Y-141515715D01*
X121328571Y-141801429D01*
X121257143Y-141944286D01*
X121328571Y-140372857D02*
X121257143Y-140515715D01*
X121185714Y-140587143D01*
X121042857Y-140658572D01*
X120614286Y-140658572D01*
X120471429Y-140587143D01*
X120400000Y-140515715D01*
X120328571Y-140372857D01*
X120328571Y-140158572D01*
X120400000Y-140015715D01*
X120471429Y-139944286D01*
X120614286Y-139872857D01*
X121042857Y-139872857D01*
X121185714Y-139944286D01*
X121257143Y-140015715D01*
X121328571Y-140158572D01*
X121328571Y-140372857D01*
X121328571Y-139372857D02*
X120328571Y-138587143D01*
X120328571Y-139372857D02*
X121328571Y-138587143D01*
X119828571Y-136444286D02*
X120900000Y-136444286D01*
X121114286Y-136515714D01*
X121257143Y-136658571D01*
X121328571Y-136872857D01*
X121328571Y-137015714D01*
X121328571Y-135515714D02*
X121257143Y-135658572D01*
X121185714Y-135730000D01*
X121042857Y-135801429D01*
X120614286Y-135801429D01*
X120471429Y-135730000D01*
X120400000Y-135658572D01*
X120328571Y-135515714D01*
X120328571Y-135301429D01*
X120400000Y-135158572D01*
X120471429Y-135087143D01*
X120614286Y-135015714D01*
X121042857Y-135015714D01*
X121185714Y-135087143D01*
X121257143Y-135158572D01*
X121328571Y-135301429D01*
X121328571Y-135515714D01*
X120328571Y-134515714D02*
X121328571Y-134158571D01*
X120328571Y-133801429D02*
X121328571Y-134158571D01*
X121685714Y-134301429D01*
X121757143Y-134372857D01*
X121828571Y-134515714D01*
X121257143Y-133301429D02*
X121328571Y-133158572D01*
X121328571Y-132872857D01*
X121257143Y-132730000D01*
X121114286Y-132658572D01*
X121042857Y-132658572D01*
X120900000Y-132730000D01*
X120828571Y-132872857D01*
X120828571Y-133087143D01*
X120757143Y-133230000D01*
X120614286Y-133301429D01*
X120542857Y-133301429D01*
X120400000Y-133230000D01*
X120328571Y-133087143D01*
X120328571Y-132872857D01*
X120400000Y-132730000D01*
X120328571Y-132230000D02*
X120328571Y-131658571D01*
X119828571Y-132015714D02*
X121114286Y-132015714D01*
X121257143Y-131944286D01*
X121328571Y-131801428D01*
X121328571Y-131658571D01*
X121328571Y-131158571D02*
X120328571Y-131158571D01*
X119828571Y-131158571D02*
X119900000Y-131230000D01*
X119971429Y-131158571D01*
X119900000Y-131087143D01*
X119828571Y-131158571D01*
X119971429Y-131158571D01*
X121257143Y-129801428D02*
X121328571Y-129944285D01*
X121328571Y-130229999D01*
X121257143Y-130372857D01*
X121185714Y-130444285D01*
X121042857Y-130515714D01*
X120614286Y-130515714D01*
X120471429Y-130444285D01*
X120400000Y-130372857D01*
X120328571Y-130229999D01*
X120328571Y-129944285D01*
X120400000Y-129801428D01*
X121328571Y-129158571D02*
X119828571Y-129158571D01*
X120757143Y-129015714D02*
X121328571Y-128587143D01*
X120328571Y-128587143D02*
X120900000Y-129158571D01*
X120542857Y-126301428D02*
X120542857Y-126801428D01*
X121328571Y-126801428D02*
X119828571Y-126801428D01*
X119828571Y-126087142D01*
X121328571Y-125301428D02*
X121257143Y-125444286D01*
X121185714Y-125515714D01*
X121042857Y-125587143D01*
X120614286Y-125587143D01*
X120471429Y-125515714D01*
X120400000Y-125444286D01*
X120328571Y-125301428D01*
X120328571Y-125087143D01*
X120400000Y-124944286D01*
X120471429Y-124872857D01*
X120614286Y-124801428D01*
X121042857Y-124801428D01*
X121185714Y-124872857D01*
X121257143Y-124944286D01*
X121328571Y-125087143D01*
X121328571Y-125301428D01*
X121328571Y-123944285D02*
X121257143Y-124087143D01*
X121185714Y-124158571D01*
X121042857Y-124230000D01*
X120614286Y-124230000D01*
X120471429Y-124158571D01*
X120400000Y-124087143D01*
X120328571Y-123944285D01*
X120328571Y-123730000D01*
X120400000Y-123587143D01*
X120471429Y-123515714D01*
X120614286Y-123444285D01*
X121042857Y-123444285D01*
X121185714Y-123515714D01*
X121257143Y-123587143D01*
X121328571Y-123730000D01*
X121328571Y-123944285D01*
X120328571Y-123015714D02*
X120328571Y-122444285D01*
X119828571Y-122801428D02*
X121114286Y-122801428D01*
X121257143Y-122730000D01*
X121328571Y-122587142D01*
X121328571Y-122444285D01*
X120328571Y-121944285D02*
X121828571Y-121944285D01*
X120400000Y-121944285D02*
X120328571Y-121801428D01*
X120328571Y-121515714D01*
X120400000Y-121372857D01*
X120471429Y-121301428D01*
X120614286Y-121229999D01*
X121042857Y-121229999D01*
X121185714Y-121301428D01*
X121257143Y-121372857D01*
X121328571Y-121515714D01*
X121328571Y-121801428D01*
X121257143Y-121944285D01*
X121328571Y-120587142D02*
X120328571Y-120587142D01*
X120614286Y-120587142D02*
X120471429Y-120515714D01*
X120400000Y-120444285D01*
X120328571Y-120301428D01*
X120328571Y-120158571D01*
X121328571Y-119658571D02*
X120328571Y-119658571D01*
X119828571Y-119658571D02*
X119900000Y-119730000D01*
X119971429Y-119658571D01*
X119900000Y-119587143D01*
X119828571Y-119658571D01*
X119971429Y-119658571D01*
X120328571Y-118944285D02*
X121328571Y-118944285D01*
X120471429Y-118944285D02*
X120400000Y-118872857D01*
X120328571Y-118729999D01*
X120328571Y-118515714D01*
X120400000Y-118372857D01*
X120542857Y-118301428D01*
X121328571Y-118301428D01*
X120328571Y-117801428D02*
X120328571Y-117229999D01*
X119828571Y-117587142D02*
X121114286Y-117587142D01*
X121257143Y-117515714D01*
X121328571Y-117372856D01*
X121328571Y-117229999D01*
X119828571Y-115801428D02*
X119828571Y-114944285D01*
X121328571Y-115372856D02*
X119828571Y-115372856D01*
X121257143Y-113872857D02*
X121328571Y-114015714D01*
X121328571Y-114301428D01*
X121257143Y-114444285D01*
X121114286Y-114515714D01*
X120542857Y-114515714D01*
X120400000Y-114444285D01*
X120328571Y-114301428D01*
X120328571Y-114015714D01*
X120400000Y-113872857D01*
X120542857Y-113801428D01*
X120685714Y-113801428D01*
X120828571Y-114515714D01*
X121257143Y-113230000D02*
X121328571Y-113087143D01*
X121328571Y-112801428D01*
X121257143Y-112658571D01*
X121114286Y-112587143D01*
X121042857Y-112587143D01*
X120900000Y-112658571D01*
X120828571Y-112801428D01*
X120828571Y-113015714D01*
X120757143Y-113158571D01*
X120614286Y-113230000D01*
X120542857Y-113230000D01*
X120400000Y-113158571D01*
X120328571Y-113015714D01*
X120328571Y-112801428D01*
X120400000Y-112658571D01*
X120328571Y-112158571D02*
X120328571Y-111587142D01*
X119828571Y-111944285D02*
X121114286Y-111944285D01*
X121257143Y-111872857D01*
X121328571Y-111729999D01*
X121328571Y-111587142D01*
X120328571Y-110087142D02*
X121328571Y-109729999D01*
X120328571Y-109372857D01*
X121328571Y-108015714D02*
X121328571Y-108872857D01*
X121328571Y-108444285D02*
X119828571Y-108444285D01*
X120042857Y-108587142D01*
X120185714Y-108730000D01*
X120257143Y-108872857D01*
D12*
X138810000Y-110550000D02*
X138810000Y-107890000D01*
X128590000Y-110550000D02*
X138810000Y-110550000D01*
X128590000Y-107890000D02*
X138810000Y-107890000D01*
X128590000Y-110550000D02*
X128590000Y-107890000D01*
X127320000Y-110550000D02*
X125990000Y-110550000D01*
X125990000Y-110550000D02*
X125990000Y-109220000D01*
D13*
X138900000Y-128900000D02*
G75*
G03X138900000Y-128900000I-6000000J0D01*
G01*
X143900000Y-139900000D02*
X121900000Y-139900000D01*
X143900000Y-112900000D02*
X143900000Y-139900000D01*
X121900000Y-112900000D02*
X143900000Y-112900000D01*
X121900000Y-139900000D02*
X121900000Y-112900000D01*
X121856667Y-138492381D02*
X121523333Y-138016190D01*
X121285238Y-138492381D02*
X121285238Y-137492381D01*
X121666191Y-137492381D01*
X121761429Y-137540000D01*
X121809048Y-137587619D01*
X121856667Y-137682857D01*
X121856667Y-137825714D01*
X121809048Y-137920952D01*
X121761429Y-137968571D01*
X121666191Y-138016190D01*
X121285238Y-138016190D01*
X122285238Y-137968571D02*
X122618572Y-137968571D01*
X122761429Y-138492381D02*
X122285238Y-138492381D01*
X122285238Y-137492381D01*
X122761429Y-137492381D01*
X123523334Y-137968571D02*
X123190000Y-137968571D01*
X123190000Y-138492381D02*
X123190000Y-137492381D01*
X123666191Y-137492381D01*
X124190000Y-137492381D02*
X124190000Y-137730476D01*
X123951905Y-137635238D02*
X124190000Y-137730476D01*
X124428096Y-137635238D01*
X124047143Y-137920952D02*
X124190000Y-137730476D01*
X124332858Y-137920952D01*
X124951905Y-137492381D02*
X124951905Y-137730476D01*
X124713810Y-137635238D02*
X124951905Y-137730476D01*
X125190001Y-137635238D01*
X124809048Y-137920952D02*
X124951905Y-137730476D01*
X125094763Y-137920952D01*
X124442381Y-109553333D02*
X125156667Y-109553333D01*
X125299524Y-109600953D01*
X125394762Y-109696191D01*
X125442381Y-109839048D01*
X125442381Y-109934286D01*
X125442381Y-108553333D02*
X125442381Y-109124762D01*
X125442381Y-108839048D02*
X124442381Y-108839048D01*
X124585238Y-108934286D01*
X124680476Y-109029524D01*
X124728095Y-109124762D01*
X141692381Y-130185714D02*
X142406667Y-130185714D01*
X142549524Y-130233334D01*
X142644762Y-130328572D01*
X142692381Y-130471429D01*
X142692381Y-130566667D01*
X141692381Y-129519048D02*
X141692381Y-129328571D01*
X141740000Y-129233333D01*
X141835238Y-129138095D01*
X142025714Y-129090476D01*
X142359048Y-129090476D01*
X142549524Y-129138095D01*
X142644762Y-129233333D01*
X142692381Y-129328571D01*
X142692381Y-129519048D01*
X142644762Y-129614286D01*
X142549524Y-129709524D01*
X142359048Y-129757143D01*
X142025714Y-129757143D01*
X141835238Y-129709524D01*
X141740000Y-129614286D01*
X141692381Y-129519048D01*
X142216190Y-128471429D02*
X142692381Y-128471429D01*
X141692381Y-128804762D02*
X142216190Y-128471429D01*
X141692381Y-128138095D01*
X142692381Y-127280952D02*
X142692381Y-127852381D01*
X142692381Y-127566667D02*
X141692381Y-127566667D01*
X141835238Y-127661905D01*
X141930476Y-127757143D01*
X141978095Y-127852381D01*
X139636667Y-138492381D02*
X139303333Y-138016190D01*
X139065238Y-138492381D02*
X139065238Y-137492381D01*
X139446191Y-137492381D01*
X139541429Y-137540000D01*
X139589048Y-137587619D01*
X139636667Y-137682857D01*
X139636667Y-137825714D01*
X139589048Y-137920952D01*
X139541429Y-137968571D01*
X139446191Y-138016190D01*
X139065238Y-138016190D01*
X140065238Y-137968571D02*
X140398572Y-137968571D01*
X140541429Y-138492381D02*
X140065238Y-138492381D01*
X140065238Y-137492381D01*
X140541429Y-137492381D01*
X141303334Y-137968571D02*
X140970000Y-137968571D01*
X140970000Y-138492381D02*
X140970000Y-137492381D01*
X141446191Y-137492381D01*
X141970000Y-137492381D02*
X141970000Y-137730476D01*
X141731905Y-137635238D02*
X141970000Y-137730476D01*
X142208096Y-137635238D01*
X141827143Y-137920952D02*
X141970000Y-137730476D01*
X142112858Y-137920952D01*
X142731905Y-137492381D02*
X142731905Y-137730476D01*
X142493810Y-137635238D02*
X142731905Y-137730476D01*
X142970001Y-137635238D01*
X142589048Y-137920952D02*
X142731905Y-137730476D01*
X142874763Y-137920952D01*
M02*
