M48
;DRILL file {KiCad 4.0.7-e2-6376~58~ubuntu17.04.1} date Wed Mar  7 17:19:14 2018
;FORMAT={-:-/ absolute / inch / decimal}
FMAT,2
INCH,TZ
T1C0.016
T2C0.031
T3C0.039
T4C0.060
%
G90
G05
M72
T1
X4.9448Y-5.1895
T2
X5.1142Y-4.5236
X5.1142Y-4.7205
X5.3504Y-4.5236
X5.3504Y-4.7205
T3
X4.8484Y-4.9665
X4.8484Y-5.065
X4.8484Y-5.1634
X5.0126Y-4.3
X5.1126Y-4.3
X5.1339Y-5.4488
X5.2126Y-4.3
X5.2323Y-5.4488
X5.3126Y-4.3
X5.3307Y-5.4488
X5.4126Y-4.3
T4
X4.9272Y-4.7992
X4.9272Y-5.3307
X5.5472Y-4.7992
X5.5472Y-5.3307
T0
M30
