%TF.GenerationSoftware,KiCad,Pcbnew,5.99.0-unknown-56f6e7cc17~117~ubuntu20.04.1*%
%TF.CreationDate,2021-03-07T11:01:33-05:00*%
%TF.ProjectId,LC24.2 Breakout,4c433234-2e32-4204-9272-65616b6f7574,rev?*%
%TF.SameCoordinates,Original*%
%TF.FileFunction,Copper,L2,Bot*%
%TF.FilePolarity,Positive*%
%FSLAX46Y46*%
G04 Gerber Fmt 4.6, Leading zero omitted, Abs format (unit mm)*
G04 Created by KiCad (PCBNEW 5.99.0-unknown-56f6e7cc17~117~ubuntu20.04.1) date 2021-03-07 11:01:33*
%MOMM*%
%LPD*%
G01*
G04 APERTURE LIST*
G04 Aperture macros list*
%AMRoundRect*
0 Rectangle with rounded corners*
0 $1 Rounding radius*
0 $2 $3 $4 $5 $6 $7 $8 $9 X,Y pos of 4 corners*
0 Add a 4 corners polygon primitive as box body*
4,1,4,$2,$3,$4,$5,$6,$7,$8,$9,$2,$3,0*
0 Add four circle primitives for the rounded corners*
1,1,$1+$1,$2,$3*
1,1,$1+$1,$4,$5*
1,1,$1+$1,$6,$7*
1,1,$1+$1,$8,$9*
0 Add four rect primitives between the rounded corners*
20,1,$1+$1,$2,$3,$4,$5,0*
20,1,$1+$1,$4,$5,$6,$7,0*
20,1,$1+$1,$6,$7,$8,$9,0*
20,1,$1+$1,$8,$9,$2,$3,0*%
G04 Aperture macros list end*
%TA.AperFunction,ComponentPad*%
%ADD10C,2.000000*%
%TD*%
%TA.AperFunction,ComponentPad*%
%ADD11O,1.200000X1.750000*%
%TD*%
%TA.AperFunction,ComponentPad*%
%ADD12RoundRect,0.250000X0.350000X0.625000X-0.350000X0.625000X-0.350000X-0.625000X0.350000X-0.625000X0*%
%TD*%
G04 APERTURE END LIST*
D10*
%TO.P,SW1,5*%
%TO.N,SW1*%
X167285000Y-105500000D03*
%TO.P,SW1,6*%
%TO.N,SW2*%
X164765000Y-105500000D03*
%TO.P,SW1,4,DAT*%
%TO.N,DAT*%
X158515000Y-111500000D03*
%TO.P,SW1,2,5V*%
%TO.N,+5V*%
X173515000Y-111500000D03*
%TO.P,SW1,1,GND*%
%TO.N,GND*%
X173515000Y-99500000D03*
%TO.P,SW1,3,CLK*%
%TO.N,CLK*%
X158515000Y-99500000D03*
%TD*%
D11*
%TO.P,J1,6,Pin_6*%
%TO.N,SW2*%
X161000000Y-119500000D03*
%TO.P,J1,5,Pin_5*%
%TO.N,SW1*%
X163000000Y-119500000D03*
%TO.P,J1,4,Pin_4*%
%TO.N,CLK*%
X165000000Y-119500000D03*
%TO.P,J1,3,Pin_3*%
%TO.N,DAT*%
X167000000Y-119500000D03*
%TO.P,J1,2,Pin_2*%
%TO.N,+5V*%
X169000000Y-119500000D03*
D12*
%TO.P,J1,1,Pin_1*%
%TO.N,GND*%
X171000000Y-119500000D03*
%TD*%
%TA.AperFunction,Conductor*%
%TO.N,GND*%
G36*
X184939027Y-93509874D02*
G01*
X184947679Y-93511383D01*
X184947680Y-93511383D01*
X184952473Y-93512219D01*
X184957332Y-93512308D01*
X184957337Y-93512308D01*
X185067689Y-93514318D01*
X185074380Y-93514618D01*
X185090883Y-93515798D01*
X185119546Y-93517848D01*
X185128453Y-93518806D01*
X185294048Y-93542615D01*
X185302876Y-93544208D01*
X185329239Y-93549942D01*
X185337945Y-93552165D01*
X185498462Y-93599297D01*
X185506996Y-93602137D01*
X185532236Y-93611551D01*
X185540547Y-93614994D01*
X185692736Y-93684497D01*
X185700778Y-93688522D01*
X185724425Y-93701434D01*
X185732160Y-93706024D01*
X185872883Y-93796460D01*
X185880273Y-93801590D01*
X185901864Y-93817753D01*
X185908867Y-93823397D01*
X186035292Y-93932945D01*
X186041874Y-93939074D01*
X186060927Y-93958127D01*
X186067057Y-93964710D01*
X186176607Y-94091139D01*
X186182246Y-94098137D01*
X186198406Y-94119722D01*
X186203533Y-94127106D01*
X186293981Y-94267847D01*
X186298570Y-94275581D01*
X186311478Y-94299220D01*
X186315500Y-94307255D01*
X186384997Y-94459430D01*
X186388440Y-94467742D01*
X186397867Y-94493018D01*
X186400707Y-94501551D01*
X186447832Y-94662044D01*
X186450055Y-94670753D01*
X186455787Y-94697097D01*
X186457383Y-94705942D01*
X186457386Y-94705959D01*
X186481193Y-94871550D01*
X186482154Y-94880490D01*
X186485382Y-94925616D01*
X186485682Y-94932311D01*
X186487381Y-95025565D01*
X186487721Y-95044250D01*
X186488437Y-95048671D01*
X186488437Y-95048676D01*
X186490381Y-95060685D01*
X186492000Y-95080816D01*
X186492000Y-121417379D01*
X186490126Y-121439027D01*
X186487781Y-121452473D01*
X186487692Y-121457332D01*
X186487692Y-121457337D01*
X186485682Y-121567689D01*
X186485382Y-121574380D01*
X186482152Y-121619546D01*
X186481195Y-121628450D01*
X186472761Y-121687107D01*
X186457385Y-121794045D01*
X186455789Y-121802891D01*
X186450056Y-121829244D01*
X186447840Y-121837928D01*
X186419443Y-121934640D01*
X186400702Y-121998465D01*
X186397862Y-122006998D01*
X186388450Y-122032233D01*
X186385008Y-122040543D01*
X186315501Y-122192742D01*
X186311475Y-122200785D01*
X186298571Y-122224417D01*
X186293981Y-122232152D01*
X186203535Y-122372891D01*
X186198411Y-122380271D01*
X186185105Y-122398046D01*
X186182255Y-122401853D01*
X186176614Y-122408853D01*
X186067063Y-122535284D01*
X186060933Y-122541867D01*
X186041868Y-122560932D01*
X186035285Y-122567062D01*
X185908859Y-122676610D01*
X185901865Y-122682246D01*
X185880260Y-122698420D01*
X185872902Y-122703528D01*
X185761071Y-122775397D01*
X185732156Y-122793979D01*
X185724428Y-122798565D01*
X185700769Y-122811483D01*
X185692735Y-122815505D01*
X185540549Y-122885006D01*
X185532238Y-122888448D01*
X185506989Y-122897865D01*
X185498457Y-122900705D01*
X185433057Y-122919908D01*
X185337953Y-122947833D01*
X185329247Y-122950055D01*
X185302894Y-122955788D01*
X185294047Y-122957385D01*
X185253048Y-122963280D01*
X185128451Y-122981193D01*
X185119510Y-122982154D01*
X185074383Y-122985382D01*
X185067688Y-122985682D01*
X184960233Y-122987639D01*
X184960228Y-122987639D01*
X184955751Y-122987721D01*
X184940891Y-122990126D01*
X184939309Y-122990382D01*
X184919179Y-122992000D01*
X147082621Y-122992000D01*
X147060973Y-122990126D01*
X147052321Y-122988617D01*
X147052320Y-122988617D01*
X147047527Y-122987781D01*
X147042668Y-122987692D01*
X147042663Y-122987692D01*
X146932311Y-122985682D01*
X146925620Y-122985382D01*
X146909117Y-122984202D01*
X146880454Y-122982152D01*
X146871550Y-122981195D01*
X146732990Y-122961272D01*
X146705955Y-122957385D01*
X146697108Y-122955789D01*
X146670756Y-122950056D01*
X146662072Y-122947840D01*
X146565360Y-122919443D01*
X146501535Y-122900702D01*
X146493002Y-122897862D01*
X146467767Y-122888450D01*
X146459457Y-122885008D01*
X146307258Y-122815501D01*
X146299215Y-122811475D01*
X146275583Y-122798571D01*
X146267848Y-122793981D01*
X146157161Y-122722848D01*
X146127104Y-122703532D01*
X146119729Y-122698411D01*
X146098147Y-122682255D01*
X146091147Y-122676614D01*
X145964716Y-122567063D01*
X145958133Y-122560933D01*
X145939068Y-122541868D01*
X145932938Y-122535285D01*
X145823390Y-122408859D01*
X145817749Y-122401859D01*
X145817745Y-122401853D01*
X145801580Y-122380260D01*
X145796472Y-122372902D01*
X145706021Y-122232156D01*
X145701431Y-122224421D01*
X145688521Y-122200778D01*
X145684495Y-122192735D01*
X145614994Y-122040549D01*
X145611552Y-122032238D01*
X145602135Y-122006989D01*
X145599295Y-121998457D01*
X145552169Y-121837962D01*
X145549945Y-121829247D01*
X145544212Y-121802894D01*
X145542614Y-121794041D01*
X145518807Y-121628451D01*
X145517846Y-121619510D01*
X145514618Y-121574383D01*
X145514318Y-121567688D01*
X145512361Y-121460233D01*
X145512361Y-121460228D01*
X145512279Y-121455751D01*
X145509618Y-121439309D01*
X145508000Y-121419179D01*
X145508000Y-119122762D01*
X159891500Y-119122762D01*
X159891500Y-119827406D01*
X159906589Y-119985558D01*
X159966131Y-120188518D01*
X160062978Y-120376558D01*
X160193635Y-120542891D01*
X160198165Y-120546822D01*
X160198166Y-120546823D01*
X160348856Y-120677587D01*
X160348861Y-120677591D01*
X160353387Y-120681518D01*
X160536471Y-120787434D01*
X160542147Y-120789405D01*
X160730607Y-120854850D01*
X160730610Y-120854851D01*
X160736281Y-120856820D01*
X160855237Y-120874068D01*
X160939666Y-120886310D01*
X160939669Y-120886310D01*
X160945606Y-120887171D01*
X161156894Y-120877391D01*
X161288460Y-120845683D01*
X161356687Y-120829241D01*
X161356689Y-120829240D01*
X161362520Y-120827835D01*
X161367978Y-120825353D01*
X161367982Y-120825352D01*
X161484776Y-120772249D01*
X161555066Y-120740290D01*
X161727584Y-120617914D01*
X161736782Y-120608306D01*
X161869698Y-120469460D01*
X161869702Y-120469455D01*
X161873848Y-120465124D01*
X161877101Y-120460086D01*
X161877105Y-120460081D01*
X161894741Y-120432767D01*
X161948496Y-120386389D01*
X162018791Y-120376435D01*
X162083309Y-120406066D01*
X162099678Y-120423280D01*
X162184592Y-120531379D01*
X162193635Y-120542891D01*
X162198165Y-120546822D01*
X162198166Y-120546823D01*
X162348856Y-120677587D01*
X162348861Y-120677591D01*
X162353387Y-120681518D01*
X162536471Y-120787434D01*
X162542147Y-120789405D01*
X162730607Y-120854850D01*
X162730610Y-120854851D01*
X162736281Y-120856820D01*
X162855237Y-120874068D01*
X162939666Y-120886310D01*
X162939669Y-120886310D01*
X162945606Y-120887171D01*
X163156894Y-120877391D01*
X163288460Y-120845683D01*
X163356687Y-120829241D01*
X163356689Y-120829240D01*
X163362520Y-120827835D01*
X163367978Y-120825353D01*
X163367982Y-120825352D01*
X163484776Y-120772249D01*
X163555066Y-120740290D01*
X163727584Y-120617914D01*
X163736782Y-120608306D01*
X163869698Y-120469460D01*
X163869702Y-120469455D01*
X163873848Y-120465124D01*
X163877101Y-120460086D01*
X163877105Y-120460081D01*
X163894741Y-120432767D01*
X163948496Y-120386389D01*
X164018791Y-120376435D01*
X164083309Y-120406066D01*
X164099678Y-120423280D01*
X164184592Y-120531379D01*
X164193635Y-120542891D01*
X164198165Y-120546822D01*
X164198166Y-120546823D01*
X164348856Y-120677587D01*
X164348861Y-120677591D01*
X164353387Y-120681518D01*
X164536471Y-120787434D01*
X164542147Y-120789405D01*
X164730607Y-120854850D01*
X164730610Y-120854851D01*
X164736281Y-120856820D01*
X164855237Y-120874068D01*
X164939666Y-120886310D01*
X164939669Y-120886310D01*
X164945606Y-120887171D01*
X165156894Y-120877391D01*
X165288460Y-120845683D01*
X165356687Y-120829241D01*
X165356689Y-120829240D01*
X165362520Y-120827835D01*
X165367978Y-120825353D01*
X165367982Y-120825352D01*
X165484776Y-120772249D01*
X165555066Y-120740290D01*
X165727584Y-120617914D01*
X165736782Y-120608306D01*
X165869698Y-120469460D01*
X165869702Y-120469455D01*
X165873848Y-120465124D01*
X165877101Y-120460086D01*
X165877105Y-120460081D01*
X165894741Y-120432767D01*
X165948496Y-120386389D01*
X166018791Y-120376435D01*
X166083309Y-120406066D01*
X166099678Y-120423280D01*
X166184592Y-120531379D01*
X166193635Y-120542891D01*
X166198165Y-120546822D01*
X166198166Y-120546823D01*
X166348856Y-120677587D01*
X166348861Y-120677591D01*
X166353387Y-120681518D01*
X166536471Y-120787434D01*
X166542147Y-120789405D01*
X166730607Y-120854850D01*
X166730610Y-120854851D01*
X166736281Y-120856820D01*
X166855237Y-120874068D01*
X166939666Y-120886310D01*
X166939669Y-120886310D01*
X166945606Y-120887171D01*
X167156894Y-120877391D01*
X167288460Y-120845683D01*
X167356687Y-120829241D01*
X167356689Y-120829240D01*
X167362520Y-120827835D01*
X167367978Y-120825353D01*
X167367982Y-120825352D01*
X167484776Y-120772249D01*
X167555066Y-120740290D01*
X167727584Y-120617914D01*
X167736782Y-120608306D01*
X167869698Y-120469460D01*
X167869702Y-120469455D01*
X167873848Y-120465124D01*
X167877101Y-120460086D01*
X167877105Y-120460081D01*
X167894741Y-120432767D01*
X167948496Y-120386389D01*
X168018791Y-120376435D01*
X168083309Y-120406066D01*
X168099678Y-120423280D01*
X168184592Y-120531379D01*
X168193635Y-120542891D01*
X168198165Y-120546822D01*
X168198166Y-120546823D01*
X168348856Y-120677587D01*
X168348861Y-120677591D01*
X168353387Y-120681518D01*
X168536471Y-120787434D01*
X168542147Y-120789405D01*
X168730607Y-120854850D01*
X168730610Y-120854851D01*
X168736281Y-120856820D01*
X168855237Y-120874068D01*
X168939666Y-120886310D01*
X168939669Y-120886310D01*
X168945606Y-120887171D01*
X169156894Y-120877391D01*
X169288460Y-120845683D01*
X169356687Y-120829241D01*
X169356689Y-120829240D01*
X169362520Y-120827835D01*
X169367978Y-120825353D01*
X169367982Y-120825352D01*
X169484776Y-120772249D01*
X169555066Y-120740290D01*
X169727584Y-120617914D01*
X169819460Y-120521939D01*
X169881013Y-120486564D01*
X169951923Y-120490083D01*
X170009673Y-120531379D01*
X170015848Y-120539986D01*
X170060641Y-120608306D01*
X170069965Y-120619458D01*
X170187629Y-120730922D01*
X170199276Y-120739635D01*
X170339429Y-120821043D01*
X170352754Y-120826837D01*
X170508700Y-120874068D01*
X170521323Y-120876516D01*
X170591184Y-120882751D01*
X170596779Y-120883000D01*
X170727885Y-120883000D01*
X170743124Y-120878525D01*
X170744329Y-120877135D01*
X170746000Y-120869452D01*
X170746000Y-119767548D01*
X171254000Y-119767548D01*
X171254000Y-120864885D01*
X171258475Y-120880124D01*
X171259865Y-120881329D01*
X171267548Y-120883000D01*
X171389223Y-120883000D01*
X171396524Y-120882576D01*
X171518255Y-120868383D01*
X171532410Y-120865037D01*
X171684761Y-120809737D01*
X171697760Y-120803227D01*
X171833306Y-120714359D01*
X171844458Y-120705035D01*
X171955922Y-120587371D01*
X171964635Y-120575724D01*
X172046043Y-120435571D01*
X172051837Y-120422246D01*
X172099068Y-120266300D01*
X172101516Y-120253677D01*
X172107751Y-120183816D01*
X172108000Y-120178221D01*
X172108000Y-119772115D01*
X172103525Y-119756876D01*
X172102135Y-119755671D01*
X172094452Y-119754000D01*
X171272115Y-119754000D01*
X171256876Y-119758475D01*
X171255671Y-119759865D01*
X171254000Y-119767548D01*
X170746000Y-119767548D01*
X170746000Y-118135115D01*
X170744659Y-118130548D01*
X171254000Y-118130548D01*
X171254000Y-119227885D01*
X171258475Y-119243124D01*
X171259865Y-119244329D01*
X171267548Y-119246000D01*
X172089885Y-119246000D01*
X172105124Y-119241525D01*
X172106329Y-119240135D01*
X172108000Y-119232452D01*
X172108000Y-118835777D01*
X172107576Y-118828476D01*
X172093383Y-118706745D01*
X172090037Y-118692590D01*
X172034737Y-118540239D01*
X172028227Y-118527240D01*
X171939359Y-118391694D01*
X171930035Y-118380542D01*
X171812371Y-118269078D01*
X171800724Y-118260365D01*
X171660571Y-118178957D01*
X171647246Y-118173163D01*
X171491300Y-118125932D01*
X171478677Y-118123484D01*
X171408816Y-118117249D01*
X171403221Y-118117000D01*
X171272115Y-118117000D01*
X171256876Y-118121475D01*
X171255671Y-118122865D01*
X171254000Y-118130548D01*
X170744659Y-118130548D01*
X170741525Y-118119876D01*
X170740135Y-118118671D01*
X170732452Y-118117000D01*
X170610777Y-118117000D01*
X170603476Y-118117424D01*
X170481745Y-118131617D01*
X170467590Y-118134963D01*
X170315239Y-118190263D01*
X170302240Y-118196773D01*
X170166694Y-118285641D01*
X170155542Y-118294965D01*
X170044078Y-118412629D01*
X170035362Y-118424279D01*
X170020347Y-118450129D01*
X169968836Y-118498987D01*
X169899087Y-118512239D01*
X169833246Y-118485679D01*
X169812307Y-118464674D01*
X169806365Y-118457109D01*
X169801834Y-118453177D01*
X169651144Y-118322413D01*
X169651139Y-118322409D01*
X169646613Y-118318482D01*
X169463529Y-118212566D01*
X169418050Y-118196773D01*
X169269393Y-118145150D01*
X169269390Y-118145149D01*
X169263719Y-118143180D01*
X169131535Y-118124014D01*
X169060334Y-118113690D01*
X169060331Y-118113690D01*
X169054394Y-118112829D01*
X168843106Y-118122609D01*
X168711540Y-118154317D01*
X168643313Y-118170759D01*
X168643311Y-118170760D01*
X168637480Y-118172165D01*
X168632022Y-118174647D01*
X168632018Y-118174648D01*
X168597675Y-118190263D01*
X168444934Y-118259710D01*
X168272416Y-118382086D01*
X168268267Y-118386420D01*
X168268266Y-118386421D01*
X168130302Y-118530540D01*
X168130298Y-118530545D01*
X168126152Y-118534876D01*
X168122899Y-118539914D01*
X168122895Y-118539919D01*
X168105259Y-118567233D01*
X168051504Y-118613611D01*
X167981209Y-118623565D01*
X167916691Y-118593934D01*
X167900322Y-118576720D01*
X167810072Y-118461828D01*
X167810069Y-118461825D01*
X167806365Y-118457109D01*
X167801834Y-118453177D01*
X167651144Y-118322413D01*
X167651139Y-118322409D01*
X167646613Y-118318482D01*
X167463529Y-118212566D01*
X167418050Y-118196773D01*
X167269393Y-118145150D01*
X167269390Y-118145149D01*
X167263719Y-118143180D01*
X167131535Y-118124014D01*
X167060334Y-118113690D01*
X167060331Y-118113690D01*
X167054394Y-118112829D01*
X166843106Y-118122609D01*
X166711540Y-118154317D01*
X166643313Y-118170759D01*
X166643311Y-118170760D01*
X166637480Y-118172165D01*
X166632022Y-118174647D01*
X166632018Y-118174648D01*
X166597675Y-118190263D01*
X166444934Y-118259710D01*
X166272416Y-118382086D01*
X166268267Y-118386420D01*
X166268266Y-118386421D01*
X166130302Y-118530540D01*
X166130298Y-118530545D01*
X166126152Y-118534876D01*
X166122899Y-118539914D01*
X166122895Y-118539919D01*
X166105259Y-118567233D01*
X166051504Y-118613611D01*
X165981209Y-118623565D01*
X165916691Y-118593934D01*
X165900322Y-118576720D01*
X165810072Y-118461828D01*
X165810069Y-118461825D01*
X165806365Y-118457109D01*
X165801834Y-118453177D01*
X165651144Y-118322413D01*
X165651139Y-118322409D01*
X165646613Y-118318482D01*
X165463529Y-118212566D01*
X165418050Y-118196773D01*
X165269393Y-118145150D01*
X165269390Y-118145149D01*
X165263719Y-118143180D01*
X165131535Y-118124014D01*
X165060334Y-118113690D01*
X165060331Y-118113690D01*
X165054394Y-118112829D01*
X164843106Y-118122609D01*
X164711540Y-118154317D01*
X164643313Y-118170759D01*
X164643311Y-118170760D01*
X164637480Y-118172165D01*
X164632022Y-118174647D01*
X164632018Y-118174648D01*
X164597675Y-118190263D01*
X164444934Y-118259710D01*
X164272416Y-118382086D01*
X164268267Y-118386420D01*
X164268266Y-118386421D01*
X164130302Y-118530540D01*
X164130298Y-118530545D01*
X164126152Y-118534876D01*
X164122899Y-118539914D01*
X164122895Y-118539919D01*
X164105259Y-118567233D01*
X164051504Y-118613611D01*
X163981209Y-118623565D01*
X163916691Y-118593934D01*
X163900322Y-118576720D01*
X163810072Y-118461828D01*
X163810069Y-118461825D01*
X163806365Y-118457109D01*
X163801834Y-118453177D01*
X163651144Y-118322413D01*
X163651139Y-118322409D01*
X163646613Y-118318482D01*
X163463529Y-118212566D01*
X163418050Y-118196773D01*
X163269393Y-118145150D01*
X163269390Y-118145149D01*
X163263719Y-118143180D01*
X163131535Y-118124014D01*
X163060334Y-118113690D01*
X163060331Y-118113690D01*
X163054394Y-118112829D01*
X162843106Y-118122609D01*
X162711540Y-118154317D01*
X162643313Y-118170759D01*
X162643311Y-118170760D01*
X162637480Y-118172165D01*
X162632022Y-118174647D01*
X162632018Y-118174648D01*
X162597675Y-118190263D01*
X162444934Y-118259710D01*
X162272416Y-118382086D01*
X162268267Y-118386420D01*
X162268266Y-118386421D01*
X162130302Y-118530540D01*
X162130298Y-118530545D01*
X162126152Y-118534876D01*
X162122899Y-118539914D01*
X162122895Y-118539919D01*
X162105259Y-118567233D01*
X162051504Y-118613611D01*
X161981209Y-118623565D01*
X161916691Y-118593934D01*
X161900322Y-118576720D01*
X161810072Y-118461828D01*
X161810069Y-118461825D01*
X161806365Y-118457109D01*
X161801834Y-118453177D01*
X161651144Y-118322413D01*
X161651139Y-118322409D01*
X161646613Y-118318482D01*
X161463529Y-118212566D01*
X161418050Y-118196773D01*
X161269393Y-118145150D01*
X161269390Y-118145149D01*
X161263719Y-118143180D01*
X161131535Y-118124014D01*
X161060334Y-118113690D01*
X161060331Y-118113690D01*
X161054394Y-118112829D01*
X160843106Y-118122609D01*
X160711540Y-118154317D01*
X160643313Y-118170759D01*
X160643311Y-118170760D01*
X160637480Y-118172165D01*
X160632022Y-118174647D01*
X160632018Y-118174648D01*
X160597675Y-118190263D01*
X160444934Y-118259710D01*
X160272416Y-118382086D01*
X160268267Y-118386420D01*
X160268266Y-118386421D01*
X160130302Y-118530540D01*
X160130298Y-118530545D01*
X160126152Y-118534876D01*
X160122900Y-118539912D01*
X160122898Y-118539915D01*
X160015178Y-118706745D01*
X160011418Y-118712568D01*
X159932354Y-118908749D01*
X159931206Y-118914630D01*
X159931204Y-118914635D01*
X159909309Y-119026754D01*
X159891814Y-119116341D01*
X159891500Y-119122762D01*
X145508000Y-119122762D01*
X145508000Y-111605576D01*
X157005187Y-111605576D01*
X157041488Y-111845609D01*
X157043034Y-111850425D01*
X157043035Y-111850428D01*
X157091964Y-112002821D01*
X157115700Y-112076750D01*
X157225911Y-112293053D01*
X157228901Y-112297138D01*
X157330187Y-112435527D01*
X157369288Y-112488952D01*
X157542141Y-112659408D01*
X157546266Y-112662340D01*
X157546269Y-112662342D01*
X157735898Y-112797105D01*
X157735902Y-112797108D01*
X157740023Y-112800036D01*
X157744561Y-112802269D01*
X157744566Y-112802272D01*
X157902602Y-112880035D01*
X157957843Y-112907217D01*
X157962678Y-112908695D01*
X157962680Y-112908696D01*
X158041295Y-112932730D01*
X158189998Y-112978193D01*
X158195017Y-112978880D01*
X158195019Y-112978881D01*
X158370240Y-113002883D01*
X158430514Y-113011140D01*
X158499858Y-113009445D01*
X158668143Y-113005333D01*
X158668147Y-113005333D01*
X158673204Y-113005209D01*
X158911823Y-112960552D01*
X159140234Y-112878320D01*
X159352558Y-112760626D01*
X159356536Y-112757496D01*
X159356540Y-112757493D01*
X159539358Y-112613629D01*
X159539359Y-112613628D01*
X159543334Y-112610500D01*
X159655104Y-112488952D01*
X159704231Y-112435527D01*
X159704234Y-112435523D01*
X159707654Y-112431804D01*
X159841290Y-112229134D01*
X159907746Y-112081263D01*
X159938730Y-112012322D01*
X159938732Y-112012316D01*
X159940804Y-112007706D01*
X159982946Y-111850428D01*
X160002327Y-111778098D01*
X160002327Y-111778097D01*
X160003635Y-111773216D01*
X160020663Y-111605576D01*
X172005187Y-111605576D01*
X172041488Y-111845609D01*
X172043034Y-111850425D01*
X172043035Y-111850428D01*
X172091964Y-112002821D01*
X172115700Y-112076750D01*
X172225911Y-112293053D01*
X172228901Y-112297138D01*
X172330187Y-112435527D01*
X172369288Y-112488952D01*
X172542141Y-112659408D01*
X172546266Y-112662340D01*
X172546269Y-112662342D01*
X172735898Y-112797105D01*
X172735902Y-112797108D01*
X172740023Y-112800036D01*
X172744561Y-112802269D01*
X172744566Y-112802272D01*
X172902602Y-112880035D01*
X172957843Y-112907217D01*
X172962678Y-112908695D01*
X172962680Y-112908696D01*
X173041295Y-112932730D01*
X173189998Y-112978193D01*
X173195017Y-112978880D01*
X173195019Y-112978881D01*
X173370240Y-113002883D01*
X173430514Y-113011140D01*
X173499858Y-113009445D01*
X173668143Y-113005333D01*
X173668147Y-113005333D01*
X173673204Y-113005209D01*
X173911823Y-112960552D01*
X174140234Y-112878320D01*
X174352558Y-112760626D01*
X174356536Y-112757496D01*
X174356540Y-112757493D01*
X174539358Y-112613629D01*
X174539359Y-112613628D01*
X174543334Y-112610500D01*
X174655104Y-112488952D01*
X174704231Y-112435527D01*
X174704234Y-112435523D01*
X174707654Y-112431804D01*
X174841290Y-112229134D01*
X174907746Y-112081263D01*
X174938730Y-112012322D01*
X174938732Y-112012316D01*
X174940804Y-112007706D01*
X174982946Y-111850428D01*
X175002327Y-111778098D01*
X175002327Y-111778097D01*
X175003635Y-111773216D01*
X175028168Y-111531696D01*
X175028500Y-111500000D01*
X175009031Y-111258020D01*
X174977243Y-111128600D01*
X174952331Y-111027179D01*
X174951124Y-111022265D01*
X174898741Y-110898857D01*
X174858245Y-110803456D01*
X174858245Y-110803455D01*
X174856269Y-110798801D01*
X174726907Y-110593378D01*
X174566365Y-110411279D01*
X174378775Y-110257191D01*
X174168962Y-110135076D01*
X174164235Y-110133262D01*
X174164232Y-110133260D01*
X173947048Y-110049891D01*
X173947044Y-110049890D01*
X173942324Y-110048078D01*
X173937374Y-110047044D01*
X173937371Y-110047043D01*
X173709643Y-109999468D01*
X173709639Y-109999468D01*
X173704692Y-109998434D01*
X173462180Y-109987422D01*
X173457160Y-109988003D01*
X173457156Y-109988003D01*
X173226056Y-110014742D01*
X173221026Y-110015324D01*
X173216155Y-110016702D01*
X173216152Y-110016703D01*
X173108955Y-110047037D01*
X172987436Y-110081424D01*
X172877427Y-110132722D01*
X172772001Y-110181882D01*
X172771997Y-110181884D01*
X172767419Y-110184019D01*
X172566635Y-110320472D01*
X172390250Y-110487271D01*
X172387172Y-110491297D01*
X172387171Y-110491298D01*
X172245875Y-110676105D01*
X172245872Y-110676109D01*
X172242802Y-110680125D01*
X172128085Y-110894072D01*
X172126439Y-110898853D01*
X172126437Y-110898857D01*
X172083944Y-111022265D01*
X172049049Y-111123608D01*
X172007729Y-111362828D01*
X172005187Y-111605576D01*
X160020663Y-111605576D01*
X160028168Y-111531696D01*
X160028500Y-111500000D01*
X160009031Y-111258020D01*
X159977243Y-111128600D01*
X159952331Y-111027179D01*
X159951124Y-111022265D01*
X159898741Y-110898857D01*
X159858245Y-110803456D01*
X159858245Y-110803455D01*
X159856269Y-110798801D01*
X159726907Y-110593378D01*
X159566365Y-110411279D01*
X159378775Y-110257191D01*
X159168962Y-110135076D01*
X159164235Y-110133262D01*
X159164232Y-110133260D01*
X158947048Y-110049891D01*
X158947044Y-110049890D01*
X158942324Y-110048078D01*
X158937374Y-110047044D01*
X158937371Y-110047043D01*
X158709643Y-109999468D01*
X158709639Y-109999468D01*
X158704692Y-109998434D01*
X158462180Y-109987422D01*
X158457160Y-109988003D01*
X158457156Y-109988003D01*
X158226056Y-110014742D01*
X158221026Y-110015324D01*
X158216155Y-110016702D01*
X158216152Y-110016703D01*
X158108955Y-110047037D01*
X157987436Y-110081424D01*
X157877427Y-110132722D01*
X157772001Y-110181882D01*
X157771997Y-110181884D01*
X157767419Y-110184019D01*
X157566635Y-110320472D01*
X157390250Y-110487271D01*
X157387172Y-110491297D01*
X157387171Y-110491298D01*
X157245875Y-110676105D01*
X157245872Y-110676109D01*
X157242802Y-110680125D01*
X157128085Y-110894072D01*
X157126439Y-110898853D01*
X157126437Y-110898857D01*
X157083944Y-111022265D01*
X157049049Y-111123608D01*
X157007729Y-111362828D01*
X157005187Y-111605576D01*
X145508000Y-111605576D01*
X145508000Y-105477868D01*
X146886616Y-105477868D01*
X146903166Y-105764892D01*
X146903991Y-105769097D01*
X146903992Y-105769105D01*
X146915223Y-105826348D01*
X146958516Y-106047014D01*
X146959903Y-106051065D01*
X147042754Y-106293053D01*
X147051642Y-106319014D01*
X147053568Y-106322843D01*
X147128048Y-106470929D01*
X147180822Y-106575859D01*
X147230133Y-106647607D01*
X147309497Y-106763082D01*
X147343664Y-106812796D01*
X147537155Y-107025440D01*
X147757716Y-107209857D01*
X147761357Y-107212141D01*
X147997624Y-107360352D01*
X147997628Y-107360354D01*
X148001264Y-107362635D01*
X148263293Y-107480945D01*
X148267412Y-107482165D01*
X148534841Y-107561382D01*
X148534846Y-107561383D01*
X148538954Y-107562600D01*
X148543188Y-107563248D01*
X148543193Y-107563249D01*
X148796037Y-107601940D01*
X148823147Y-107606088D01*
X148969498Y-107608387D01*
X149106321Y-107610537D01*
X149106327Y-107610537D01*
X149110612Y-107610604D01*
X149114864Y-107610089D01*
X149114872Y-107610089D01*
X149336529Y-107583265D01*
X149396030Y-107576064D01*
X149400179Y-107574976D01*
X149400182Y-107574975D01*
X149669970Y-107504198D01*
X149674121Y-107503109D01*
X149939736Y-107393087D01*
X149988827Y-107364401D01*
X150184255Y-107250202D01*
X150184257Y-107250200D01*
X150187963Y-107248035D01*
X150414208Y-107070637D01*
X150471865Y-107011140D01*
X150571139Y-106908696D01*
X150614283Y-106864175D01*
X150616816Y-106860727D01*
X150616820Y-106860722D01*
X150781949Y-106635925D01*
X150784487Y-106632470D01*
X150815224Y-106575859D01*
X150919621Y-106383585D01*
X150919622Y-106383583D01*
X150921671Y-106379809D01*
X151023295Y-106110869D01*
X151054255Y-105975689D01*
X151086521Y-105834808D01*
X151086522Y-105834804D01*
X151087479Y-105830624D01*
X151092970Y-105769105D01*
X151107445Y-105606915D01*
X154953366Y-105606915D01*
X154953693Y-105610471D01*
X154953693Y-105610478D01*
X154974839Y-105840604D01*
X154985150Y-105952814D01*
X155055886Y-106292892D01*
X155057003Y-106296279D01*
X155057005Y-106296287D01*
X155161649Y-106613629D01*
X155164666Y-106622777D01*
X155166161Y-106626019D01*
X155166161Y-106626020D01*
X155283264Y-106880035D01*
X155310090Y-106938226D01*
X155490289Y-107235186D01*
X155492473Y-107238006D01*
X155492478Y-107238014D01*
X155698581Y-107504198D01*
X155702947Y-107509837D01*
X155945329Y-107758649D01*
X156214320Y-107978424D01*
X156241577Y-107995956D01*
X156503457Y-108164404D01*
X156503465Y-108164408D01*
X156506460Y-108166335D01*
X156817995Y-108319967D01*
X156821352Y-108321172D01*
X156821356Y-108321174D01*
X156939131Y-108363459D01*
X157144919Y-108437344D01*
X157483029Y-108516959D01*
X157486560Y-108517377D01*
X157486566Y-108517378D01*
X157824435Y-108557367D01*
X157824441Y-108557367D01*
X157827978Y-108557786D01*
X157831540Y-108557802D01*
X157831547Y-108557802D01*
X158001655Y-108558544D01*
X158175331Y-108559302D01*
X158520623Y-108521486D01*
X158524104Y-108520698D01*
X158524112Y-108520697D01*
X158772873Y-108464407D01*
X158859415Y-108444825D01*
X159187351Y-108330305D01*
X159206282Y-108321174D01*
X159497003Y-108180946D01*
X159497006Y-108180945D01*
X159500214Y-108179397D01*
X159793984Y-107994043D01*
X160064882Y-107776624D01*
X160309426Y-107529937D01*
X160325272Y-107509837D01*
X160522259Y-107259958D01*
X160524472Y-107257151D01*
X160526350Y-107254116D01*
X160526355Y-107254109D01*
X160705376Y-106964814D01*
X160707256Y-106961776D01*
X160855428Y-106647607D01*
X160967082Y-106318685D01*
X160967892Y-106314958D01*
X161040026Y-105982723D01*
X161040783Y-105979237D01*
X161075584Y-105633628D01*
X161076196Y-105605576D01*
X163255187Y-105605576D01*
X163255944Y-105610579D01*
X163255944Y-105610584D01*
X163290731Y-105840604D01*
X163291488Y-105845609D01*
X163293034Y-105850425D01*
X163293035Y-105850428D01*
X163356153Y-106047014D01*
X163365700Y-106076750D01*
X163475911Y-106293053D01*
X163478901Y-106297138D01*
X163580187Y-106435527D01*
X163619288Y-106488952D01*
X163792141Y-106659408D01*
X163796266Y-106662340D01*
X163796269Y-106662342D01*
X163985898Y-106797105D01*
X163985902Y-106797108D01*
X163990023Y-106800036D01*
X163994561Y-106802269D01*
X163994566Y-106802272D01*
X164152602Y-106880035D01*
X164207843Y-106907217D01*
X164212678Y-106908695D01*
X164212680Y-106908696D01*
X164291295Y-106932730D01*
X164439998Y-106978193D01*
X164445017Y-106978880D01*
X164445019Y-106978881D01*
X164620240Y-107002883D01*
X164680514Y-107011140D01*
X164749858Y-107009445D01*
X164918143Y-107005333D01*
X164918147Y-107005333D01*
X164923204Y-107005209D01*
X165161823Y-106960552D01*
X165390234Y-106878320D01*
X165602558Y-106760626D01*
X165606536Y-106757496D01*
X165606540Y-106757493D01*
X165789358Y-106613629D01*
X165789359Y-106613628D01*
X165793334Y-106610500D01*
X165931672Y-106460059D01*
X165992505Y-106423455D01*
X166063470Y-106425550D01*
X166126097Y-106470929D01*
X166139288Y-106488952D01*
X166312141Y-106659408D01*
X166316266Y-106662340D01*
X166316269Y-106662342D01*
X166505898Y-106797105D01*
X166505902Y-106797108D01*
X166510023Y-106800036D01*
X166514561Y-106802269D01*
X166514566Y-106802272D01*
X166672602Y-106880035D01*
X166727843Y-106907217D01*
X166732678Y-106908695D01*
X166732680Y-106908696D01*
X166811295Y-106932730D01*
X166959998Y-106978193D01*
X166965017Y-106978880D01*
X166965019Y-106978881D01*
X167140240Y-107002883D01*
X167200514Y-107011140D01*
X167269858Y-107009445D01*
X167438143Y-107005333D01*
X167438147Y-107005333D01*
X167443204Y-107005209D01*
X167681823Y-106960552D01*
X167910234Y-106878320D01*
X168122558Y-106760626D01*
X168126536Y-106757496D01*
X168126540Y-106757493D01*
X168309358Y-106613629D01*
X168309359Y-106613628D01*
X168313334Y-106610500D01*
X168341938Y-106579394D01*
X168474231Y-106435527D01*
X168474234Y-106435523D01*
X168477654Y-106431804D01*
X168611290Y-106229134D01*
X168677746Y-106081263D01*
X168708730Y-106012322D01*
X168708732Y-106012316D01*
X168710804Y-106007706D01*
X168752946Y-105850428D01*
X168772327Y-105778098D01*
X168772327Y-105778097D01*
X168773635Y-105773216D01*
X168790527Y-105606915D01*
X170953366Y-105606915D01*
X170953693Y-105610471D01*
X170953693Y-105610478D01*
X170974839Y-105840604D01*
X170985150Y-105952814D01*
X171055886Y-106292892D01*
X171057003Y-106296279D01*
X171057005Y-106296287D01*
X171161649Y-106613629D01*
X171164666Y-106622777D01*
X171166161Y-106626019D01*
X171166161Y-106626020D01*
X171283264Y-106880035D01*
X171310090Y-106938226D01*
X171490289Y-107235186D01*
X171492473Y-107238006D01*
X171492478Y-107238014D01*
X171698581Y-107504198D01*
X171702947Y-107509837D01*
X171945329Y-107758649D01*
X172214320Y-107978424D01*
X172241577Y-107995956D01*
X172503457Y-108164404D01*
X172503465Y-108164408D01*
X172506460Y-108166335D01*
X172817995Y-108319967D01*
X172821352Y-108321172D01*
X172821356Y-108321174D01*
X172939131Y-108363459D01*
X173144919Y-108437344D01*
X173483029Y-108516959D01*
X173486560Y-108517377D01*
X173486566Y-108517378D01*
X173824435Y-108557367D01*
X173824441Y-108557367D01*
X173827978Y-108557786D01*
X173831540Y-108557802D01*
X173831547Y-108557802D01*
X174001655Y-108558544D01*
X174175331Y-108559302D01*
X174520623Y-108521486D01*
X174524104Y-108520698D01*
X174524112Y-108520697D01*
X174772873Y-108464407D01*
X174859415Y-108444825D01*
X175187351Y-108330305D01*
X175206282Y-108321174D01*
X175497003Y-108180946D01*
X175497006Y-108180945D01*
X175500214Y-108179397D01*
X175793984Y-107994043D01*
X176064882Y-107776624D01*
X176309426Y-107529937D01*
X176325272Y-107509837D01*
X176522259Y-107259958D01*
X176524472Y-107257151D01*
X176526350Y-107254116D01*
X176526355Y-107254109D01*
X176705376Y-106964814D01*
X176707256Y-106961776D01*
X176855428Y-106647607D01*
X176967082Y-106318685D01*
X176967892Y-106314958D01*
X177040026Y-105982723D01*
X177040783Y-105979237D01*
X177075584Y-105633628D01*
X177078500Y-105500000D01*
X177077243Y-105477868D01*
X180886616Y-105477868D01*
X180903166Y-105764892D01*
X180903991Y-105769097D01*
X180903992Y-105769105D01*
X180915223Y-105826348D01*
X180958516Y-106047014D01*
X180959903Y-106051065D01*
X181042754Y-106293053D01*
X181051642Y-106319014D01*
X181053568Y-106322843D01*
X181128048Y-106470929D01*
X181180822Y-106575859D01*
X181230133Y-106647607D01*
X181309497Y-106763082D01*
X181343664Y-106812796D01*
X181537155Y-107025440D01*
X181757716Y-107209857D01*
X181761357Y-107212141D01*
X181997624Y-107360352D01*
X181997628Y-107360354D01*
X182001264Y-107362635D01*
X182263293Y-107480945D01*
X182267412Y-107482165D01*
X182534841Y-107561382D01*
X182534846Y-107561383D01*
X182538954Y-107562600D01*
X182543188Y-107563248D01*
X182543193Y-107563249D01*
X182796037Y-107601940D01*
X182823147Y-107606088D01*
X182969498Y-107608387D01*
X183106321Y-107610537D01*
X183106327Y-107610537D01*
X183110612Y-107610604D01*
X183114864Y-107610089D01*
X183114872Y-107610089D01*
X183336529Y-107583265D01*
X183396030Y-107576064D01*
X183400179Y-107574976D01*
X183400182Y-107574975D01*
X183669970Y-107504198D01*
X183674121Y-107503109D01*
X183939736Y-107393087D01*
X183988827Y-107364401D01*
X184184255Y-107250202D01*
X184184257Y-107250200D01*
X184187963Y-107248035D01*
X184414208Y-107070637D01*
X184471865Y-107011140D01*
X184571139Y-106908696D01*
X184614283Y-106864175D01*
X184616816Y-106860727D01*
X184616820Y-106860722D01*
X184781949Y-106635925D01*
X184784487Y-106632470D01*
X184815224Y-106575859D01*
X184919621Y-106383585D01*
X184919622Y-106383583D01*
X184921671Y-106379809D01*
X185023295Y-106110869D01*
X185054255Y-105975689D01*
X185086521Y-105834808D01*
X185086522Y-105834804D01*
X185087479Y-105830624D01*
X185092970Y-105769105D01*
X185112816Y-105546728D01*
X185112816Y-105546726D01*
X185113036Y-105544262D01*
X185113500Y-105500000D01*
X185103809Y-105357839D01*
X185094238Y-105217442D01*
X185094237Y-105217436D01*
X185093946Y-105213165D01*
X185089409Y-105191254D01*
X185036513Y-104935835D01*
X185035644Y-104931638D01*
X184939674Y-104660628D01*
X184807812Y-104405150D01*
X184642498Y-104169931D01*
X184639573Y-104166783D01*
X184449711Y-103962468D01*
X184449708Y-103962466D01*
X184446790Y-103959325D01*
X184443474Y-103956611D01*
X184443471Y-103956608D01*
X184227629Y-103779942D01*
X184227622Y-103779937D01*
X184224311Y-103777227D01*
X183979176Y-103627009D01*
X183975240Y-103625281D01*
X183719851Y-103513172D01*
X183719847Y-103513171D01*
X183715923Y-103511448D01*
X183439421Y-103432685D01*
X183228794Y-103402708D01*
X183159041Y-103392781D01*
X183159039Y-103392781D01*
X183154789Y-103392176D01*
X183003976Y-103391387D01*
X182871579Y-103390693D01*
X182871573Y-103390693D01*
X182867292Y-103390671D01*
X182863048Y-103391230D01*
X182863044Y-103391230D01*
X182737864Y-103407710D01*
X182582251Y-103428197D01*
X182578111Y-103429330D01*
X182578109Y-103429330D01*
X182561547Y-103433861D01*
X182304940Y-103504061D01*
X182283580Y-103513172D01*
X182044433Y-103615176D01*
X182044426Y-103615180D01*
X182040491Y-103616858D01*
X182036810Y-103619061D01*
X181797479Y-103762297D01*
X181797475Y-103762300D01*
X181793797Y-103764501D01*
X181790454Y-103767179D01*
X181790450Y-103767182D01*
X181685739Y-103851072D01*
X181569423Y-103944259D01*
X181566479Y-103947361D01*
X181566475Y-103947365D01*
X181388343Y-104135076D01*
X181371520Y-104152804D01*
X181203752Y-104386279D01*
X181069222Y-104640362D01*
X181005540Y-104814380D01*
X180974626Y-104898857D01*
X180970419Y-104910352D01*
X180909173Y-105191254D01*
X180886616Y-105477868D01*
X177077243Y-105477868D01*
X177070711Y-105362828D01*
X177059010Y-105156770D01*
X177059009Y-105156763D01*
X177058807Y-105153202D01*
X177020042Y-104927600D01*
X177000588Y-104814380D01*
X177000586Y-104814371D01*
X176999983Y-104810862D01*
X176997825Y-104803456D01*
X176903785Y-104480824D01*
X176903785Y-104480823D01*
X176902782Y-104477383D01*
X176875063Y-104411279D01*
X176835790Y-104317624D01*
X176768456Y-104157050D01*
X176598730Y-103853983D01*
X176395787Y-103572077D01*
X176339649Y-103510273D01*
X176164646Y-103317610D01*
X176164644Y-103317608D01*
X176162236Y-103314957D01*
X175901079Y-103085929D01*
X175615674Y-102887937D01*
X175612527Y-102886246D01*
X175612522Y-102886243D01*
X175312847Y-102725222D01*
X175309691Y-102723526D01*
X174987063Y-102594810D01*
X174651937Y-102503445D01*
X174471532Y-102475678D01*
X174312146Y-102451146D01*
X174312142Y-102451146D01*
X174308623Y-102450604D01*
X174271812Y-102449158D01*
X173965105Y-102437107D01*
X173965100Y-102437107D01*
X173961535Y-102436967D01*
X173770733Y-102451146D01*
X173618695Y-102462444D01*
X173618690Y-102462445D01*
X173615133Y-102462709D01*
X173273872Y-102527499D01*
X172942140Y-102630505D01*
X172938862Y-102631948D01*
X172938855Y-102631950D01*
X172627481Y-102768958D01*
X172627476Y-102768960D01*
X172624200Y-102770402D01*
X172324141Y-102945391D01*
X172045820Y-103153223D01*
X172043222Y-103155667D01*
X172043216Y-103155672D01*
X171795420Y-103388776D01*
X171792816Y-103391226D01*
X171790506Y-103393955D01*
X171593211Y-103627009D01*
X171568380Y-103656340D01*
X171566400Y-103659304D01*
X171566398Y-103659306D01*
X171377787Y-103941582D01*
X171375399Y-103945156D01*
X171373760Y-103948338D01*
X171373759Y-103948340D01*
X171353512Y-103987652D01*
X171216353Y-104253962D01*
X171215087Y-104257303D01*
X171215085Y-104257308D01*
X171192234Y-104317624D01*
X171093288Y-104578788D01*
X171071477Y-104664669D01*
X171008665Y-104911990D01*
X171008663Y-104911998D01*
X171007785Y-104915457D01*
X170960944Y-105259641D01*
X170953366Y-105606915D01*
X168790527Y-105606915D01*
X168798168Y-105531696D01*
X168798500Y-105500000D01*
X168787062Y-105357839D01*
X168779437Y-105263061D01*
X168779436Y-105263056D01*
X168779031Y-105258020D01*
X168747243Y-105128600D01*
X168722331Y-105027179D01*
X168721124Y-105022265D01*
X168668741Y-104898857D01*
X168628245Y-104803456D01*
X168628245Y-104803455D01*
X168626269Y-104798801D01*
X168496907Y-104593378D01*
X168336365Y-104411279D01*
X168148775Y-104257191D01*
X167938962Y-104135076D01*
X167934235Y-104133262D01*
X167934232Y-104133260D01*
X167717048Y-104049891D01*
X167717044Y-104049890D01*
X167712324Y-104048078D01*
X167707374Y-104047044D01*
X167707371Y-104047043D01*
X167479643Y-103999468D01*
X167479639Y-103999468D01*
X167474692Y-103998434D01*
X167232180Y-103987422D01*
X167227160Y-103988003D01*
X167227156Y-103988003D01*
X166996056Y-104014742D01*
X166991026Y-104015324D01*
X166986155Y-104016702D01*
X166986152Y-104016703D01*
X166878955Y-104047037D01*
X166757436Y-104081424D01*
X166647427Y-104132722D01*
X166542001Y-104181882D01*
X166541997Y-104181884D01*
X166537419Y-104184019D01*
X166336635Y-104320472D01*
X166247091Y-104405150D01*
X166167068Y-104480824D01*
X166160250Y-104487271D01*
X166157172Y-104491297D01*
X166157171Y-104491298D01*
X166124819Y-104533613D01*
X166067555Y-104575581D01*
X165996691Y-104579926D01*
X165930209Y-104540410D01*
X165924217Y-104533613D01*
X165816365Y-104411279D01*
X165628775Y-104257191D01*
X165418962Y-104135076D01*
X165414235Y-104133262D01*
X165414232Y-104133260D01*
X165197048Y-104049891D01*
X165197044Y-104049890D01*
X165192324Y-104048078D01*
X165187374Y-104047044D01*
X165187371Y-104047043D01*
X164959643Y-103999468D01*
X164959639Y-103999468D01*
X164954692Y-103998434D01*
X164712180Y-103987422D01*
X164707160Y-103988003D01*
X164707156Y-103988003D01*
X164476056Y-104014742D01*
X164471026Y-104015324D01*
X164466155Y-104016702D01*
X164466152Y-104016703D01*
X164358955Y-104047037D01*
X164237436Y-104081424D01*
X164127427Y-104132722D01*
X164022001Y-104181882D01*
X164021997Y-104181884D01*
X164017419Y-104184019D01*
X163816635Y-104320472D01*
X163727091Y-104405150D01*
X163647068Y-104480824D01*
X163640250Y-104487271D01*
X163637172Y-104491297D01*
X163637171Y-104491298D01*
X163495875Y-104676105D01*
X163495872Y-104676109D01*
X163492802Y-104680125D01*
X163378085Y-104894072D01*
X163376439Y-104898853D01*
X163376437Y-104898857D01*
X163333944Y-105022265D01*
X163299049Y-105123608D01*
X163257729Y-105362828D01*
X163257676Y-105367888D01*
X163256480Y-105482148D01*
X163255187Y-105605576D01*
X161076196Y-105605576D01*
X161078500Y-105500000D01*
X161070711Y-105362828D01*
X161059010Y-105156770D01*
X161059009Y-105156763D01*
X161058807Y-105153202D01*
X161020042Y-104927600D01*
X161000588Y-104814380D01*
X161000586Y-104814371D01*
X160999983Y-104810862D01*
X160997825Y-104803456D01*
X160903785Y-104480824D01*
X160903785Y-104480823D01*
X160902782Y-104477383D01*
X160875063Y-104411279D01*
X160835790Y-104317624D01*
X160768456Y-104157050D01*
X160598730Y-103853983D01*
X160395787Y-103572077D01*
X160339649Y-103510273D01*
X160164646Y-103317610D01*
X160164644Y-103317608D01*
X160162236Y-103314957D01*
X159901079Y-103085929D01*
X159615674Y-102887937D01*
X159612527Y-102886246D01*
X159612522Y-102886243D01*
X159312847Y-102725222D01*
X159309691Y-102723526D01*
X158987063Y-102594810D01*
X158651937Y-102503445D01*
X158471532Y-102475678D01*
X158312146Y-102451146D01*
X158312142Y-102451146D01*
X158308623Y-102450604D01*
X158271812Y-102449158D01*
X157965105Y-102437107D01*
X157965100Y-102437107D01*
X157961535Y-102436967D01*
X157770733Y-102451146D01*
X157618695Y-102462444D01*
X157618690Y-102462445D01*
X157615133Y-102462709D01*
X157273872Y-102527499D01*
X156942140Y-102630505D01*
X156938862Y-102631948D01*
X156938855Y-102631950D01*
X156627481Y-102768958D01*
X156627476Y-102768960D01*
X156624200Y-102770402D01*
X156324141Y-102945391D01*
X156045820Y-103153223D01*
X156043222Y-103155667D01*
X156043216Y-103155672D01*
X155795420Y-103388776D01*
X155792816Y-103391226D01*
X155790506Y-103393955D01*
X155593211Y-103627009D01*
X155568380Y-103656340D01*
X155566400Y-103659304D01*
X155566398Y-103659306D01*
X155377787Y-103941582D01*
X155375399Y-103945156D01*
X155373760Y-103948338D01*
X155373759Y-103948340D01*
X155353512Y-103987652D01*
X155216353Y-104253962D01*
X155215087Y-104257303D01*
X155215085Y-104257308D01*
X155192234Y-104317624D01*
X155093288Y-104578788D01*
X155071477Y-104664669D01*
X155008665Y-104911990D01*
X155008663Y-104911998D01*
X155007785Y-104915457D01*
X154960944Y-105259641D01*
X154953366Y-105606915D01*
X151107445Y-105606915D01*
X151112816Y-105546728D01*
X151112816Y-105546726D01*
X151113036Y-105544262D01*
X151113500Y-105500000D01*
X151103809Y-105357839D01*
X151094238Y-105217442D01*
X151094237Y-105217436D01*
X151093946Y-105213165D01*
X151089409Y-105191254D01*
X151036513Y-104935835D01*
X151035644Y-104931638D01*
X150939674Y-104660628D01*
X150807812Y-104405150D01*
X150642498Y-104169931D01*
X150639573Y-104166783D01*
X150449711Y-103962468D01*
X150449708Y-103962466D01*
X150446790Y-103959325D01*
X150443474Y-103956611D01*
X150443471Y-103956608D01*
X150227629Y-103779942D01*
X150227622Y-103779937D01*
X150224311Y-103777227D01*
X149979176Y-103627009D01*
X149975240Y-103625281D01*
X149719851Y-103513172D01*
X149719847Y-103513171D01*
X149715923Y-103511448D01*
X149439421Y-103432685D01*
X149228794Y-103402708D01*
X149159041Y-103392781D01*
X149159039Y-103392781D01*
X149154789Y-103392176D01*
X149003976Y-103391387D01*
X148871579Y-103390693D01*
X148871573Y-103390693D01*
X148867292Y-103390671D01*
X148863048Y-103391230D01*
X148863044Y-103391230D01*
X148737864Y-103407710D01*
X148582251Y-103428197D01*
X148578111Y-103429330D01*
X148578109Y-103429330D01*
X148561547Y-103433861D01*
X148304940Y-103504061D01*
X148283580Y-103513172D01*
X148044433Y-103615176D01*
X148044426Y-103615180D01*
X148040491Y-103616858D01*
X148036810Y-103619061D01*
X147797479Y-103762297D01*
X147797475Y-103762300D01*
X147793797Y-103764501D01*
X147790454Y-103767179D01*
X147790450Y-103767182D01*
X147685739Y-103851072D01*
X147569423Y-103944259D01*
X147566479Y-103947361D01*
X147566475Y-103947365D01*
X147388343Y-104135076D01*
X147371520Y-104152804D01*
X147203752Y-104386279D01*
X147069222Y-104640362D01*
X147005540Y-104814380D01*
X146974626Y-104898857D01*
X146970419Y-104910352D01*
X146909173Y-105191254D01*
X146886616Y-105477868D01*
X145508000Y-105477868D01*
X145508000Y-101094786D01*
X163753485Y-101094786D01*
X163753937Y-101098945D01*
X163753937Y-101098949D01*
X163755508Y-101113404D01*
X163785888Y-101393053D01*
X163786884Y-101397110D01*
X163786885Y-101397113D01*
X163790704Y-101412659D01*
X163857453Y-101684414D01*
X163966924Y-101963751D01*
X164112377Y-102226157D01*
X164114860Y-102229500D01*
X164114863Y-102229505D01*
X164268939Y-102436967D01*
X164291258Y-102467019D01*
X164500423Y-102682108D01*
X164503701Y-102684688D01*
X164503706Y-102684692D01*
X164732904Y-102865053D01*
X164736197Y-102867644D01*
X164739802Y-102869776D01*
X164739805Y-102869778D01*
X164836382Y-102926893D01*
X164994439Y-103020368D01*
X165270610Y-103137596D01*
X165559860Y-103217269D01*
X165564005Y-103217837D01*
X165564006Y-103217837D01*
X165574774Y-103219312D01*
X165857106Y-103257986D01*
X165861282Y-103258001D01*
X165861288Y-103258001D01*
X166009666Y-103258518D01*
X166157126Y-103259033D01*
X166454649Y-103220392D01*
X166744448Y-103142741D01*
X166748290Y-103141142D01*
X166748298Y-103141139D01*
X167017581Y-103029047D01*
X167021432Y-103027444D01*
X167025029Y-103025350D01*
X167025036Y-103025347D01*
X167174155Y-102938557D01*
X167280733Y-102876527D01*
X167295526Y-102865053D01*
X167514480Y-102695214D01*
X167514481Y-102695213D01*
X167517797Y-102692641D01*
X167679600Y-102528563D01*
X167725519Y-102481999D01*
X167725524Y-102481994D01*
X167728458Y-102479018D01*
X167740748Y-102462709D01*
X167906504Y-102242743D01*
X167906506Y-102242740D01*
X167909016Y-102239409D01*
X168056298Y-101978026D01*
X168167716Y-101699460D01*
X168241314Y-101408605D01*
X168243114Y-101393053D01*
X168275470Y-101113404D01*
X168275798Y-101110571D01*
X168278500Y-101000000D01*
X168260558Y-100729877D01*
X172649739Y-100729877D01*
X172658846Y-100741734D01*
X172736157Y-100796677D01*
X172744815Y-100801838D01*
X172953488Y-100904518D01*
X172962872Y-100908233D01*
X173185257Y-100976223D01*
X173195127Y-100978393D01*
X173425520Y-101009953D01*
X173435611Y-101010517D01*
X173668091Y-101004836D01*
X173678124Y-101003781D01*
X173906716Y-100961001D01*
X173916455Y-100958355D01*
X174135263Y-100879579D01*
X174144456Y-100875409D01*
X174347848Y-100762667D01*
X174356264Y-100757076D01*
X174373704Y-100743353D01*
X174382173Y-100731451D01*
X174375676Y-100719886D01*
X173527812Y-99872022D01*
X173513868Y-99864408D01*
X173512035Y-99864539D01*
X173505420Y-99868790D01*
X172656243Y-100717967D01*
X172649739Y-100729877D01*
X168260558Y-100729877D01*
X168258616Y-100700638D01*
X168199315Y-100406535D01*
X168101637Y-100122858D01*
X168010654Y-99941168D01*
X167969172Y-99858331D01*
X167969171Y-99858329D01*
X167967300Y-99854593D01*
X167798662Y-99606450D01*
X167793323Y-99600479D01*
X172005739Y-99600479D01*
X172006443Y-99610550D01*
X172041218Y-99840490D01*
X172043522Y-99850314D01*
X172114613Y-100071735D01*
X172118461Y-100081071D01*
X172224040Y-100288283D01*
X172229325Y-100296874D01*
X172273392Y-100357083D01*
X172284404Y-100365513D01*
X172297146Y-100358644D01*
X173142978Y-99512812D01*
X173149356Y-99501132D01*
X173879408Y-99501132D01*
X173879539Y-99502965D01*
X173883790Y-99509580D01*
X174733567Y-100359357D01*
X174745947Y-100366117D01*
X174754680Y-100359579D01*
X174838069Y-100233113D01*
X174842926Y-100224278D01*
X174938259Y-100012154D01*
X174941642Y-100002653D01*
X175001836Y-99778007D01*
X175003655Y-99768095D01*
X175027378Y-99534540D01*
X175027698Y-99528816D01*
X175027970Y-99502857D01*
X175027771Y-99497152D01*
X175008943Y-99263142D01*
X175007331Y-99253189D01*
X174951856Y-99027337D01*
X174948673Y-99017767D01*
X174857803Y-98803690D01*
X174853130Y-98794753D01*
X174757036Y-98642155D01*
X174746465Y-98632824D01*
X174737303Y-98636907D01*
X173887022Y-99487188D01*
X173879408Y-99501132D01*
X173149356Y-99501132D01*
X173150592Y-99498868D01*
X173150461Y-99497035D01*
X173146210Y-99490420D01*
X172296314Y-98640524D01*
X172283746Y-98633661D01*
X172272697Y-98641845D01*
X172246296Y-98676375D01*
X172240832Y-98684854D01*
X172130936Y-98889809D01*
X172126894Y-98899061D01*
X172051182Y-99118947D01*
X172048673Y-99128719D01*
X172009089Y-99357885D01*
X172008174Y-99367933D01*
X172005739Y-99600479D01*
X167793323Y-99600479D01*
X167700939Y-99497152D01*
X167601475Y-99385908D01*
X167601474Y-99385907D01*
X167598688Y-99382791D01*
X167370890Y-99187545D01*
X167265061Y-99118819D01*
X167122780Y-99026420D01*
X167122775Y-99026417D01*
X167119270Y-99024141D01*
X167105847Y-99017767D01*
X166922585Y-98930748D01*
X166848250Y-98895451D01*
X166562590Y-98803736D01*
X166267310Y-98750606D01*
X166101140Y-98743060D01*
X165971767Y-98737185D01*
X165971762Y-98737185D01*
X165967597Y-98736996D01*
X165963449Y-98737359D01*
X165963445Y-98737359D01*
X165771744Y-98754131D01*
X165668717Y-98763145D01*
X165664645Y-98764055D01*
X165664640Y-98764056D01*
X165379999Y-98827681D01*
X165379996Y-98827682D01*
X165375920Y-98828593D01*
X165094352Y-98932190D01*
X165090664Y-98934134D01*
X165090656Y-98934138D01*
X164932340Y-99017609D01*
X164828958Y-99072116D01*
X164584402Y-99245913D01*
X164581353Y-99248757D01*
X164581346Y-99248762D01*
X164464376Y-99357839D01*
X164364980Y-99450528D01*
X164362327Y-99453757D01*
X164362323Y-99453762D01*
X164233536Y-99610550D01*
X164174546Y-99682365D01*
X164016448Y-99937351D01*
X163893462Y-100211007D01*
X163888058Y-100229134D01*
X163808940Y-100494528D01*
X163808938Y-100494536D01*
X163807749Y-100498525D01*
X163807097Y-100502642D01*
X163807096Y-100502646D01*
X163765848Y-100763082D01*
X163760816Y-100794853D01*
X163760635Y-100802272D01*
X163755533Y-101011016D01*
X163753485Y-101094786D01*
X145508000Y-101094786D01*
X145508000Y-99605576D01*
X157005187Y-99605576D01*
X157005944Y-99610579D01*
X157005944Y-99610584D01*
X157029765Y-99768095D01*
X157041488Y-99845609D01*
X157043034Y-99850425D01*
X157043035Y-99850428D01*
X157114090Y-100071735D01*
X157115700Y-100076750D01*
X157225911Y-100293053D01*
X157228901Y-100297138D01*
X157330187Y-100435527D01*
X157369288Y-100488952D01*
X157542141Y-100659408D01*
X157546266Y-100662340D01*
X157546269Y-100662342D01*
X157735898Y-100797105D01*
X157735902Y-100797108D01*
X157740023Y-100800036D01*
X157744561Y-100802269D01*
X157744566Y-100802272D01*
X157901675Y-100879579D01*
X157957843Y-100907217D01*
X157962678Y-100908695D01*
X157962680Y-100908696D01*
X158041295Y-100932730D01*
X158189998Y-100978193D01*
X158195017Y-100978880D01*
X158195019Y-100978881D01*
X158349191Y-101000000D01*
X158430514Y-101011140D01*
X158499858Y-101009445D01*
X158668143Y-101005333D01*
X158668147Y-101005333D01*
X158673204Y-101005209D01*
X158911823Y-100960552D01*
X158917926Y-100958355D01*
X159059968Y-100907217D01*
X159140234Y-100878320D01*
X159352558Y-100760626D01*
X159356536Y-100757496D01*
X159356540Y-100757493D01*
X159539358Y-100613629D01*
X159539359Y-100613628D01*
X159543334Y-100610500D01*
X159546756Y-100606779D01*
X159704231Y-100435527D01*
X159704234Y-100435523D01*
X159707654Y-100431804D01*
X159841290Y-100229134D01*
X159887277Y-100126809D01*
X159938730Y-100012322D01*
X159938732Y-100012316D01*
X159940804Y-100007706D01*
X159958633Y-99941168D01*
X160002327Y-99778098D01*
X160002327Y-99778097D01*
X160003635Y-99773216D01*
X160028168Y-99531696D01*
X160028500Y-99500000D01*
X160028271Y-99497152D01*
X160009437Y-99263061D01*
X160009436Y-99263056D01*
X160009031Y-99258020D01*
X159977884Y-99131210D01*
X159952331Y-99027179D01*
X159951124Y-99022265D01*
X159912890Y-98932190D01*
X159858245Y-98803456D01*
X159858245Y-98803455D01*
X159856269Y-98798801D01*
X159726907Y-98593378D01*
X159566365Y-98411279D01*
X159393099Y-98268957D01*
X172649891Y-98268957D01*
X172657081Y-98282871D01*
X173502188Y-99127978D01*
X173516132Y-99135592D01*
X173517965Y-99135461D01*
X173524580Y-99131210D01*
X174376493Y-98279297D01*
X174383701Y-98266096D01*
X174377495Y-98257403D01*
X174374120Y-98255057D01*
X174173114Y-98138069D01*
X174164023Y-98133714D01*
X173946907Y-98050371D01*
X173937230Y-98047523D01*
X173709591Y-97999967D01*
X173699564Y-97998700D01*
X173467251Y-97988152D01*
X173457173Y-97988503D01*
X173226150Y-98015233D01*
X173216256Y-98017192D01*
X172992473Y-98080516D01*
X172983029Y-98084028D01*
X172772247Y-98182318D01*
X172763482Y-98187297D01*
X172658215Y-98258836D01*
X172649891Y-98268957D01*
X159393099Y-98268957D01*
X159378775Y-98257191D01*
X159168962Y-98135076D01*
X159164235Y-98133262D01*
X159164232Y-98133260D01*
X158947048Y-98049891D01*
X158947044Y-98049890D01*
X158942324Y-98048078D01*
X158937374Y-98047044D01*
X158937371Y-98047043D01*
X158709643Y-97999468D01*
X158709639Y-97999468D01*
X158704692Y-97998434D01*
X158462180Y-97987422D01*
X158457160Y-97988003D01*
X158457156Y-97988003D01*
X158226056Y-98014742D01*
X158221026Y-98015324D01*
X158216155Y-98016702D01*
X158216152Y-98016703D01*
X158108955Y-98047037D01*
X157987436Y-98081424D01*
X157877427Y-98132722D01*
X157772001Y-98181882D01*
X157771997Y-98181884D01*
X157767419Y-98184019D01*
X157763238Y-98186861D01*
X157763237Y-98186861D01*
X157704503Y-98226777D01*
X157566635Y-98320472D01*
X157390250Y-98487271D01*
X157387172Y-98491297D01*
X157387171Y-98491298D01*
X157245875Y-98676105D01*
X157245872Y-98676109D01*
X157242802Y-98680125D01*
X157240412Y-98684583D01*
X157240411Y-98684584D01*
X157204614Y-98751345D01*
X157128085Y-98894072D01*
X157126439Y-98898853D01*
X157126437Y-98898857D01*
X157085493Y-99017767D01*
X157049049Y-99123608D01*
X157007729Y-99362828D01*
X157007676Y-99367888D01*
X157006841Y-99447674D01*
X157005187Y-99605576D01*
X145508000Y-99605576D01*
X145508000Y-95082621D01*
X145509874Y-95060973D01*
X145511383Y-95052321D01*
X145511383Y-95052320D01*
X145512219Y-95047527D01*
X145512361Y-95039770D01*
X145514318Y-94932311D01*
X145514618Y-94925620D01*
X145517845Y-94880490D01*
X145517848Y-94880454D01*
X145518806Y-94871547D01*
X145542615Y-94705952D01*
X145544208Y-94697124D01*
X145549942Y-94670761D01*
X145552165Y-94662055D01*
X145599297Y-94501538D01*
X145602137Y-94493004D01*
X145611551Y-94467764D01*
X145614994Y-94459453D01*
X145684497Y-94307264D01*
X145688522Y-94299222D01*
X145701434Y-94275575D01*
X145706024Y-94267840D01*
X145796460Y-94127117D01*
X145801590Y-94119727D01*
X145817753Y-94098136D01*
X145823397Y-94091133D01*
X145932945Y-93964708D01*
X145939074Y-93958126D01*
X145958127Y-93939073D01*
X145964710Y-93932943D01*
X146091139Y-93823393D01*
X146098137Y-93817754D01*
X146119722Y-93801594D01*
X146127106Y-93796467D01*
X146267851Y-93706016D01*
X146275581Y-93701430D01*
X146299231Y-93688517D01*
X146307255Y-93684500D01*
X146459450Y-93614994D01*
X146467745Y-93611558D01*
X146493022Y-93602131D01*
X146501553Y-93599292D01*
X146662044Y-93552168D01*
X146670753Y-93549945D01*
X146687294Y-93546346D01*
X146697109Y-93544211D01*
X146705942Y-93542617D01*
X146769739Y-93533444D01*
X146871550Y-93518807D01*
X146880490Y-93517846D01*
X146925616Y-93514618D01*
X146932311Y-93514318D01*
X147039770Y-93512361D01*
X147039776Y-93512360D01*
X147044250Y-93512279D01*
X147048671Y-93511563D01*
X147048676Y-93511563D01*
X147060685Y-93509619D01*
X147080816Y-93508000D01*
X184917379Y-93508000D01*
X184939027Y-93509874D01*
G37*
%TD.AperFunction*%
%TD*%
M02*
