<?xml version="1.0" encoding="UTF-8" standalone="no"?>
<!-- Created with Inkscape (http://www.inkscape.org/) -->

<svg
   xmlns:dc="http://purl.org/dc/elements/1.1/"
   xmlns:cc="http://creativecommons.org/ns#"
   xmlns:rdf="http://www.w3.org/1999/02/22-rdf-syntax-ns#"
   xmlns:svg="http://www.w3.org/2000/svg"
   xmlns="http://www.w3.org/2000/svg"
   xmlns:sodipodi="http://sodipodi.sourceforge.net/DTD/sodipodi-0.dtd"
   xmlns:inkscape="http://www.inkscape.org/namespaces/inkscape"
   width="44.231369mm"
   height="24.098345mm"
   viewBox="0 0 44.231369 24.098345"
   version="1.1"
   id="svg909"
   inkscape:version="0.92.3 (2405546, 2018-03-11)"
   sodipodi:docname="dontpanic.svg">
  <defs
     id="defs903" />
  <sodipodi:namedview
     id="base"
     pagecolor="#ffffff"
     bordercolor="#666666"
     borderopacity="1.0"
     inkscape:pageopacity="0.0"
     inkscape:pageshadow="2"
     inkscape:zoom="3.959798"
     inkscape:cx="53.585504"
     inkscape:cy="51.914808"
     inkscape:document-units="mm"
     inkscape:current-layer="layer1"
     showgrid="false"
     fit-margin-top="0"
     fit-margin-left="0"
     fit-margin-right="0"
     fit-margin-bottom="0"
     inkscape:window-width="2560"
     inkscape:window-height="1376"
     inkscape:window-x="0"
     inkscape:window-y="27"
     inkscape:window-maximized="1" />
  <metadata
     id="metadata906">
    <rdf:RDF>
      <cc:Work
         rdf:about="">
        <dc:format>image/svg+xml</dc:format>
        <dc:type
           rdf:resource="http://purl.org/dc/dcmitype/StillImage" />
        <dc:title></dc:title>
      </cc:Work>
    </rdf:RDF>
  </metadata>
  <g
     inkscape:label="SilkS"
     inkscape:groupmode="layer"
     id="layer1"
     transform="translate(-82.884315,-136.45083)">
    <path
       inkscape:connector-curvature="0"
       id="path1487"
       style="font-style:normal;font-variant:normal;font-weight:normal;font-stretch:normal;font-size:16.93333244px;line-height:1.25;font-family:Dyuthi;-inkscape-font-specification:Dyuthi;text-align:center;letter-spacing:0px;word-spacing:0px;text-anchor:middle;fill:#000000;fill-opacity:0.98823529;stroke:none;stroke-width:0.26458332"
       d="m 85.935291,146.19081 q -0.330729,0 -0.578776,-0.23978 -0.223242,-0.23151 -0.223242,-0.57878 v -6.45749 q 0,-0.35553 0.223242,-0.57877 0.239779,-0.23978 0.578776,-0.23978 h 0.0083 q 1.5875,0 2.703711,1.02526 1.016992,0.93431 1.016992,2.4722 0,2.63756 -1.016992,3.57187 -1.116211,1.02527 -2.703711,1.02527 z m -2.315104,-9.1612 q -0.314193,0.0248 -0.520898,0.23978 -0.214974,0.22324 -0.214974,0.5457 v 8.59896 q 0,0.33073 0.206705,0.56224 0.214974,0.22324 0.545703,0.23978 2.050521,0.0992 2.596224,0.0992 2.960026,0 4.62194,-1.44694 1.537891,-1.37252 1.537891,-3.62148 0,-2.50527 -1.876888,-3.96875 -1.777669,-1.37253 -4.555794,-1.37253 -0.553972,0 -2.339909,0.12403 z" />
    <path
       inkscape:connector-curvature="0"
       id="path1489"
       style="font-style:normal;font-variant:normal;font-weight:normal;font-stretch:normal;font-size:16.93333244px;line-height:1.25;font-family:Dyuthi;-inkscape-font-specification:Dyuthi;text-align:center;letter-spacing:0px;word-spacing:0px;text-anchor:middle;fill:#000000;fill-opacity:0.98823529;stroke:none;stroke-width:0.26458332"
       d="m 96.998181,145.19862 q -0.802018,-1.00873 -0.79375,-3.66283 0,-1.34772 0.79375,-2.33991 0.785482,-0.97565 1.876888,-0.97565 0.992187,0 1.827281,0.97565 0.83509,0.97565 0.83509,2.33991 0,2.68718 -0.83509,3.66283 -0.835094,0.97565 -1.87689,0.97565 -1.041797,0 -1.827279,-0.97565 z m 1.876888,-8.36745 q -0.115755,0 -0.355534,0.0331 -2.00918,0.1819 -3.423047,1.59577 -1.463476,1.44694 -1.463476,3.81165 0,2.18282 1.281575,3.53881 1.281576,1.35599 3.604948,1.57923 0.157096,0.0413 0.223242,0.0331 0.02481,-0.008 0.05788,0 h 0.14056 q 0.0248,0.008 0.05788,0 0.07441,-0.0248 0.223242,-0.0331 2.257221,-0.14056 3.604941,-1.57923 1.28985,-1.3808 1.28158,-3.53881 0.008,-2.34817 -1.46348,-3.81165 -1.32292,-1.33945 -3.423041,-1.59577 -0.223242,-0.0331 -0.347265,-0.0331 z" />
    <path
       inkscape:connector-curvature="0"
       id="path1491"
       style="font-style:normal;font-variant:normal;font-weight:normal;font-stretch:normal;font-size:16.93333244px;line-height:1.25;font-family:Dyuthi;-inkscape-font-specification:Dyuthi;text-align:center;letter-spacing:0px;word-spacing:0px;text-anchor:middle;fill:#000000;fill-opacity:0.98823529;stroke:none;stroke-width:0.26458332"
       d="m 107.39135,140.42785 3.67936,6.00273 q 0.57051,0.93431 1.62884,0.93431 h 0.0496 q 0.8847,0 1.35599,-0.57877 0.55397,-0.87643 0.55397,-1.35599 v -7.24297 q 0,-0.51263 -0.34727,-0.8599 -0.35553,-0.34726 -1.00872,-0.34726 h -0.0331 q -0.47956,0 -0.84336,0.34726 -0.37207,0.37207 -0.36381,0.8599 l 0.1571,5.74642 -4.34909,-6.44095 Q 107.52364,136.98 106.87872,136.98 h -0.72761 q -0.51263,0 -0.84336,0.34726 -0.3638,0.36381 -0.3638,0.8599 v 7.95404 q 0,0.51263 0.3638,0.85989 0.35554,0.3638 0.99219,0.3638 h 0.0331 q 0.51263,0 0.8599,-0.3638 0.35553,-0.38861 0.34726,-0.85989 z" />
    <path
       inkscape:connector-curvature="0"
       id="path1493"
       style="font-style:normal;font-variant:normal;font-weight:normal;font-stretch:normal;font-size:16.93333244px;line-height:1.25;font-family:Dyuthi;-inkscape-font-specification:Dyuthi;text-align:center;letter-spacing:0px;word-spacing:0px;text-anchor:middle;fill:#000000;fill-opacity:0.98823529;stroke:none;stroke-width:0.26458332"
       d="m 117.65221,140.05578 q -0.0248,0.22324 -0.1819,0.37207 -0.16536,0.1571 -0.3886,0.1571 h -0.42168 q -0.21498,0 -0.38034,-0.14883 -0.16537,-0.1571 -0.1819,-0.38034 l -0.22324,-2.52181 q -0.0331,-0.42168 0.23977,-0.75241 0.30593,-0.33073 0.75241,-0.33073 h 0.0165 q 0.43822,0 0.73587,0.33073 0.30593,0.33073 0.24805,0.75241 z" />
    <path
       inkscape:connector-curvature="0"
       id="path1495"
       style="font-style:normal;font-variant:normal;font-weight:normal;font-stretch:normal;font-size:16.93333244px;line-height:1.25;font-family:Dyuthi;-inkscape-font-specification:Dyuthi;text-align:center;letter-spacing:0px;word-spacing:0px;text-anchor:middle;fill:#000000;fill-opacity:0.98823529;stroke:none;stroke-width:0.26458332"
       d="m 119.10743,138.18716 q 0.0413,0.23151 0.29765,0.45475 0.23978,0.19844 0.51263,0.17364 l 1.9017,-0.14883 v 7.50755 q 0,0.5457 0.3638,0.9095 0.35553,0.36381 0.89297,0.36381 h 0.008 q 0.54571,0 0.90951,-0.36381 0.3638,-0.3638 0.3638,-0.9095 v -7.50755 l 1.90169,0.14883 q 0.23978,0.0248 0.51263,-0.17364 0.23152,-0.19017 0.29766,-0.45475 v -0.0331 q 0.14056,-0.47129 -0.14883,-0.8599 -0.24804,-0.31419 -0.66146,-0.31419 h -6.34173 q -0.41341,0 -0.66146,0.31419 -0.27285,0.34727 -0.14882,0.8599 z" />
    <path
       inkscape:connector-curvature="0"
       id="path1498"
       style="font-style:normal;font-variant:normal;font-weight:normal;font-stretch:normal;font-size:16.93333244px;line-height:1.25;font-family:Dyuthi;-inkscape-font-specification:Dyuthi;letter-spacing:0px;word-spacing:0px;fill:#000000;fill-opacity:0.98823529;stroke:none;stroke-width:0.26458332"
       d="m 86.714768,151.09032 h 1.190625 q 0.620117,0 1.041797,0.47129 0.51263,0.53744 0.51263,1.79421 0,1.32291 -0.51263,1.86862 -0.42168,0.45475 -1.041797,0.45475 h -1.190625 z m 1.909961,5.73815 q 1.604036,-0.0165 2.447395,-1.33118 0.636654,-0.99219 0.636654,-1.99264 0,-1.24024 -0.818555,-2.18282 -0.802018,-0.94257 -2.009179,-1.12448 l -0.07441,-0.008 q -0.239779,-0.0331 -0.446485,-0.0331 H 85.50761 q -0.51263,0 -0.876432,0.36381 -0.363802,0.3638 -0.363802,0.84335 v 7.92097 q 0,0.52916 0.363802,0.85989 0.330729,0.36381 0.843359,0.34727 h 0.03307 q 0.479558,0.0165 0.84336,-0.34727 0.363802,-0.34726 0.363802,-0.85989 v -2.43086 z" />
    <path
       inkscape:connector-curvature="0"
       id="path1500"
       style="font-style:normal;font-variant:normal;font-weight:normal;font-stretch:normal;font-size:16.93333244px;line-height:1.25;font-family:Dyuthi;-inkscape-font-specification:Dyuthi;letter-spacing:0px;word-spacing:0px;fill:#000000;fill-opacity:0.98823529;stroke:none;stroke-width:0.26458332"
       d="m 95.396408,156.02646 1.347721,-3.71244 1.339453,3.71244 z m 3.249414,-4.51446 q -0.214974,-0.59531 -0.744141,-0.96738 -0.537435,-0.37207 -1.074869,-0.37207 h -0.231511 q -0.545703,0 -1.07487,0.37207 -0.529166,0.37207 -0.74414,1.00046 l -2.505273,7.27604 q -0.206706,0.59531 0.165364,1.11621 0.363802,0.51263 0.983919,0.51263 h 0.181901 q 0.471289,0 0.826823,-0.24805 0.347266,-0.23151 0.42168,-0.62838 l 0.396875,-2.02572 h 3.133659 l 0.429947,2.05052 q 0.06615,0.3638 0.42168,0.60358 0.330729,0.24805 0.719336,0.24805 h 0.181898 q 0.61185,0 1.00046,-0.52917 0.3638,-0.51263 0.14883,-1.09967 z" />
    <path
       inkscape:connector-curvature="0"
       id="path1502"
       style="font-style:normal;font-variant:normal;font-weight:normal;font-stretch:normal;font-size:16.93333244px;line-height:1.25;font-family:Dyuthi;-inkscape-font-specification:Dyuthi;letter-spacing:0px;word-spacing:0px;fill:#000000;fill-opacity:0.98823529;stroke:none;stroke-width:0.26458332"
       d="m 105.33482,153.56252 3.67936,6.00274 q 0.57051,0.93431 1.62884,0.93431 h 0.0496 q 0.8847,0 1.35599,-0.57878 0.55397,-0.87643 0.55397,-1.35599 v -7.24297 q 0,-0.51263 -0.34726,-0.85989 -0.35554,-0.34727 -1.00873,-0.34727 h -0.0331 q -0.47956,0 -0.84336,0.34727 -0.37207,0.37207 -0.3638,0.85989 l 0.1571,5.74642 -4.34909,-6.44095 q -0.34727,-0.51263 -0.99219,-0.51263 h -0.7276 q -0.51263,0 -0.84336,0.34727 -0.36381,0.3638 -0.36381,0.85989 v 7.95404 q 0,0.51263 0.36381,0.8599 0.35553,0.3638 0.99218,0.3638 h 0.0331 q 0.51263,0 0.85989,-0.3638 0.35554,-0.38861 0.34727,-0.8599 z" />
    <path
       inkscape:connector-curvature="0"
       id="path1504"
       style="font-style:normal;font-variant:normal;font-weight:normal;font-stretch:normal;font-size:16.93333244px;line-height:1.25;font-family:Dyuthi;-inkscape-font-specification:Dyuthi;letter-spacing:0px;word-spacing:0px;fill:#000000;fill-opacity:0.98823529;stroke:none;stroke-width:0.26458332"
       d="m 116.3233,159.28414 q 0,0.50436 -0.36381,0.87643 -0.34726,0.35553 -0.85989,0.35553 h -0.0248 q -0.51263,0 -0.87643,-0.35553 -0.3638,-0.3638 -0.3638,-0.87643 v -8.0946 q 0,-0.5209 0.3638,-0.87643 0.3638,-0.3638 0.87643,-0.3638 h 0.0248 q 0.49609,0 0.85989,0.3638 0.36381,0.35553 0.36381,0.87643 z" />
    <path
       inkscape:connector-curvature="0"
       id="path1506"
       style="font-style:normal;font-variant:normal;font-weight:normal;font-stretch:normal;font-size:16.93333244px;line-height:1.25;font-family:Dyuthi;-inkscape-font-specification:Dyuthi;letter-spacing:0px;word-spacing:0px;fill:#000000;fill-opacity:0.98823529;stroke:none;stroke-width:0.26458332"
       d="m 125.02147,158.47385 q -0.33073,-0.0909 -0.69453,0.0579 -0.56224,0.23978 -1.16582,0.23978 -1.29811,0 -2.20762,-1.02526 -0.90124,-1.02526 -0.90124,-2.4722 0,-1.45521 0.90951,-2.50528 0.90124,-1.02526 2.19935,-1.02526 0.60358,0 1.18236,0.26459 0.33072,0.15709 0.66145,0.0496 l 0.0331,-0.0165 q 0.62838,-0.20671 0.64492,-0.87643 0,-0.69453 -0.63665,-0.87643 -0.71934,-0.23978 -1.52136,-0.29766 -0.23978,-0.0331 -0.3638,-0.0165 -0.11576,-0.0165 -0.3638,0.0165 -2.32338,0.2067 -3.77032,1.59577 -1.50481,1.45521 -1.50481,3.80338 0,2.17455 1.32291,3.56361 1.42214,1.44694 3.95222,1.57096 0.15709,0.0248 0.24804,0.0248 h 0.0579 q 0.0331,0 0.0579,0 0.0331,0 0.0661,0 h 0.0579 q 0.091,0 0.23978,-0.0248 0.80202,-0.0331 1.49655,-0.21497 0.71107,-0.1819 0.71107,-0.90124 0.008,-0.7276 -0.68626,-0.93431 z" />
  </g>
</svg>
