%TF.GenerationSoftware,KiCad,Pcbnew,5.1.6-c6e7f7d~86~ubuntu18.04.1*%
%TF.CreationDate,2020-06-16T08:09:56-04:00*%
%TF.ProjectId,FPC 18 0.5 Breakout,46504320-3138-4203-902e-352042726561,rev?*%
%TF.SameCoordinates,Original*%
%TF.FileFunction,Paste,Top*%
%TF.FilePolarity,Positive*%
%FSLAX46Y46*%
G04 Gerber Fmt 4.6, Leading zero omitted, Abs format (unit mm)*
G04 Created by KiCad (PCBNEW 5.1.6-c6e7f7d~86~ubuntu18.04.1) date 2020-06-16 08:09:56*
%MOMM*%
%LPD*%
G01*
G04 APERTURE LIST*
%ADD10R,1.300000X1.650000*%
%ADD11R,1.000000X0.300000*%
G04 APERTURE END LIST*
D10*
%TO.C,J3*%
X172600000Y-124525000D03*
X172600000Y-111475000D03*
D11*
X174500000Y-120750000D03*
X174500000Y-119250000D03*
X174500000Y-120250000D03*
X174500000Y-118250000D03*
X174500000Y-118750000D03*
X174500000Y-122250000D03*
X174500000Y-119750000D03*
X174500000Y-121250000D03*
X174500000Y-121750000D03*
X174500000Y-117750000D03*
X174500000Y-117250000D03*
X174500000Y-116750000D03*
X174500000Y-116250000D03*
X174500000Y-115750000D03*
X174500000Y-115250000D03*
X174500000Y-114750000D03*
X174500000Y-114250000D03*
X174500000Y-113750000D03*
%TD*%
D10*
%TO.C,J1*%
X195400000Y-111475000D03*
X195400000Y-124525000D03*
D11*
X193500000Y-115250000D03*
X193500000Y-116750000D03*
X193500000Y-115750000D03*
X193500000Y-117750000D03*
X193500000Y-117250000D03*
X193500000Y-113750000D03*
X193500000Y-116250000D03*
X193500000Y-114750000D03*
X193500000Y-114250000D03*
X193500000Y-118250000D03*
X193500000Y-118750000D03*
X193500000Y-119250000D03*
X193500000Y-119750000D03*
X193500000Y-120250000D03*
X193500000Y-120750000D03*
X193500000Y-121250000D03*
X193500000Y-121750000D03*
X193500000Y-122250000D03*
%TD*%
M02*
