%TF.GenerationSoftware,KiCad,Pcbnew,5.1.6-c6e7f7d~86~ubuntu18.04.1*%
%TF.CreationDate,2020-06-16T08:09:56-04:00*%
%TF.ProjectId,FPC 18 0.5 Breakout,46504320-3138-4203-902e-352042726561,rev?*%
%TF.SameCoordinates,Original*%
%TF.FileFunction,Copper,L1,Top*%
%TF.FilePolarity,Positive*%
%FSLAX46Y46*%
G04 Gerber Fmt 4.6, Leading zero omitted, Abs format (unit mm)*
G04 Created by KiCad (PCBNEW 5.1.6-c6e7f7d~86~ubuntu18.04.1) date 2020-06-16 08:09:56*
%MOMM*%
%LPD*%
G01*
G04 APERTURE LIST*
%TA.AperFunction,SMDPad,CuDef*%
%ADD10R,1.300000X1.650000*%
%TD*%
%TA.AperFunction,SMDPad,CuDef*%
%ADD11R,1.000000X0.300000*%
%TD*%
%TA.AperFunction,ComponentPad*%
%ADD12O,1.700000X1.700000*%
%TD*%
%TA.AperFunction,ComponentPad*%
%ADD13R,1.700000X1.700000*%
%TD*%
%TA.AperFunction,Conductor*%
%ADD14C,0.250000*%
%TD*%
G04 APERTURE END LIST*
D10*
%TO.P,J3,*%
%TO.N,*%
X172600000Y-124525000D03*
X172600000Y-111475000D03*
D11*
%TO.P,J3,15*%
%TO.N,Net-(J1-Pad4)*%
X174500000Y-120750000D03*
%TO.P,J3,12*%
%TO.N,Net-(J1-Pad7)*%
X174500000Y-119250000D03*
%TO.P,J3,14*%
%TO.N,Net-(J1-Pad5)*%
X174500000Y-120250000D03*
%TO.P,J3,10*%
%TO.N,Net-(J1-Pad9)*%
X174500000Y-118250000D03*
%TO.P,J3,11*%
%TO.N,Net-(J1-Pad8)*%
X174500000Y-118750000D03*
%TO.P,J3,18*%
%TO.N,Net-(J1-Pad1)*%
X174500000Y-122250000D03*
%TO.P,J3,13*%
%TO.N,Net-(J1-Pad6)*%
X174500000Y-119750000D03*
%TO.P,J3,16*%
%TO.N,Net-(J1-Pad3)*%
X174500000Y-121250000D03*
%TO.P,J3,17*%
%TO.N,Net-(J1-Pad2)*%
X174500000Y-121750000D03*
%TO.P,J3,9*%
%TO.N,Net-(J1-Pad10)*%
X174500000Y-117750000D03*
%TO.P,J3,8*%
%TO.N,Net-(J1-Pad11)*%
X174500000Y-117250000D03*
%TO.P,J3,7*%
%TO.N,Net-(J1-Pad12)*%
X174500000Y-116750000D03*
%TO.P,J3,6*%
%TO.N,Net-(J1-Pad13)*%
X174500000Y-116250000D03*
%TO.P,J3,5*%
%TO.N,Net-(J1-Pad14)*%
X174500000Y-115750000D03*
%TO.P,J3,4*%
%TO.N,Net-(J1-Pad15)*%
X174500000Y-115250000D03*
%TO.P,J3,3*%
%TO.N,Net-(J1-Pad16)*%
X174500000Y-114750000D03*
%TO.P,J3,2*%
%TO.N,Net-(J1-Pad17)*%
X174500000Y-114250000D03*
%TO.P,J3,1*%
%TO.N,Net-(J1-Pad18)*%
X174500000Y-113750000D03*
%TD*%
D12*
%TO.P,J2,18*%
%TO.N,Net-(J1-Pad1)*%
X184275001Y-139305001D03*
%TO.P,J2,17*%
%TO.N,Net-(J1-Pad2)*%
X184275001Y-136765001D03*
%TO.P,J2,16*%
%TO.N,Net-(J1-Pad3)*%
X184275001Y-134225001D03*
%TO.P,J2,15*%
%TO.N,Net-(J1-Pad4)*%
X184275001Y-131685001D03*
%TO.P,J2,14*%
%TO.N,Net-(J1-Pad5)*%
X184275001Y-129145001D03*
%TO.P,J2,13*%
%TO.N,Net-(J1-Pad6)*%
X184275001Y-126605001D03*
%TO.P,J2,12*%
%TO.N,Net-(J1-Pad7)*%
X184275001Y-124065001D03*
%TO.P,J2,11*%
%TO.N,Net-(J1-Pad8)*%
X184275001Y-121525001D03*
%TO.P,J2,10*%
%TO.N,Net-(J1-Pad9)*%
X184275001Y-118985001D03*
%TO.P,J2,9*%
%TO.N,Net-(J1-Pad10)*%
X184275001Y-116445001D03*
%TO.P,J2,8*%
%TO.N,Net-(J1-Pad11)*%
X184275001Y-113905001D03*
%TO.P,J2,7*%
%TO.N,Net-(J1-Pad12)*%
X184275001Y-111365001D03*
%TO.P,J2,6*%
%TO.N,Net-(J1-Pad13)*%
X184275001Y-108825001D03*
%TO.P,J2,5*%
%TO.N,Net-(J1-Pad14)*%
X184275001Y-106285001D03*
%TO.P,J2,4*%
%TO.N,Net-(J1-Pad15)*%
X184275001Y-103745001D03*
%TO.P,J2,3*%
%TO.N,Net-(J1-Pad16)*%
X184275001Y-101205001D03*
%TO.P,J2,2*%
%TO.N,Net-(J1-Pad17)*%
X184275001Y-98665001D03*
D13*
%TO.P,J2,1*%
%TO.N,Net-(J1-Pad18)*%
X184275001Y-96125001D03*
%TD*%
D10*
%TO.P,J1,*%
%TO.N,*%
X195400000Y-111475000D03*
X195400000Y-124525000D03*
D11*
%TO.P,J1,15*%
%TO.N,Net-(J1-Pad15)*%
X193500000Y-115250000D03*
%TO.P,J1,12*%
%TO.N,Net-(J1-Pad12)*%
X193500000Y-116750000D03*
%TO.P,J1,14*%
%TO.N,Net-(J1-Pad14)*%
X193500000Y-115750000D03*
%TO.P,J1,10*%
%TO.N,Net-(J1-Pad10)*%
X193500000Y-117750000D03*
%TO.P,J1,11*%
%TO.N,Net-(J1-Pad11)*%
X193500000Y-117250000D03*
%TO.P,J1,18*%
%TO.N,Net-(J1-Pad18)*%
X193500000Y-113750000D03*
%TO.P,J1,13*%
%TO.N,Net-(J1-Pad13)*%
X193500000Y-116250000D03*
%TO.P,J1,16*%
%TO.N,Net-(J1-Pad16)*%
X193500000Y-114750000D03*
%TO.P,J1,17*%
%TO.N,Net-(J1-Pad17)*%
X193500000Y-114250000D03*
%TO.P,J1,9*%
%TO.N,Net-(J1-Pad9)*%
X193500000Y-118250000D03*
%TO.P,J1,8*%
%TO.N,Net-(J1-Pad8)*%
X193500000Y-118750000D03*
%TO.P,J1,7*%
%TO.N,Net-(J1-Pad7)*%
X193500000Y-119250000D03*
%TO.P,J1,6*%
%TO.N,Net-(J1-Pad6)*%
X193500000Y-119750000D03*
%TO.P,J1,5*%
%TO.N,Net-(J1-Pad5)*%
X193500000Y-120250000D03*
%TO.P,J1,4*%
%TO.N,Net-(J1-Pad4)*%
X193500000Y-120750000D03*
%TO.P,J1,3*%
%TO.N,Net-(J1-Pad3)*%
X193500000Y-121250000D03*
%TO.P,J1,2*%
%TO.N,Net-(J1-Pad2)*%
X193500000Y-121750000D03*
%TO.P,J1,1*%
%TO.N,Net-(J1-Pad1)*%
X193500000Y-122250000D03*
%TD*%
D14*
%TO.N,Net-(J1-Pad15)*%
X175507824Y-115250000D02*
X182974990Y-107782833D01*
X174500000Y-115250000D02*
X175507824Y-115250000D01*
X182974990Y-107782833D02*
X182974990Y-105045012D01*
X182974990Y-105045012D02*
X184275001Y-103745001D01*
X184275001Y-103745001D02*
X185549989Y-105019989D01*
X185900013Y-108074600D02*
X185900013Y-108521426D01*
X185549989Y-107724577D02*
X185900013Y-108074600D01*
X185549989Y-105019989D02*
X185549989Y-107724577D01*
X192628587Y-115250000D02*
X193500000Y-115250000D01*
X185900013Y-108521426D02*
X192628587Y-115250000D01*
%TO.N,Net-(J1-Pad12)*%
X184275001Y-112165999D02*
X184275001Y-111365001D01*
X188859002Y-116750000D02*
X184275001Y-112165999D01*
X193500000Y-116750000D02*
X188859002Y-116750000D01*
X174524999Y-116725001D02*
X174500000Y-116750000D01*
X178915001Y-116725001D02*
X174524999Y-116725001D01*
X184275001Y-111365001D02*
X178915001Y-116725001D01*
%TO.N,Net-(J1-Pad14)*%
X184275001Y-106285001D02*
X183425002Y-107135000D01*
X183425002Y-107135000D02*
X183425002Y-107969233D01*
X183425002Y-107969233D02*
X175644235Y-115750000D01*
X175644235Y-115750000D02*
X174500000Y-115750000D01*
X185450002Y-108261000D02*
X184275001Y-107085999D01*
X184275001Y-107085999D02*
X184275001Y-106285001D01*
X185450002Y-108707826D02*
X185450002Y-108261000D01*
X192492176Y-115750000D02*
X185450002Y-108707826D01*
X193500000Y-115750000D02*
X192492176Y-115750000D01*
%TO.N,Net-(J1-Pad10)*%
X185580000Y-117750000D02*
X184275001Y-116445001D01*
X193500000Y-117750000D02*
X185580000Y-117750000D01*
X182970002Y-117750000D02*
X174500000Y-117750000D01*
X184275001Y-116445001D02*
X182970002Y-117750000D01*
%TO.N,Net-(J1-Pad11)*%
X187620000Y-117250000D02*
X193500000Y-117250000D01*
X184275001Y-113905001D02*
X187620000Y-117250000D01*
X180930002Y-117250000D02*
X184275001Y-113905001D01*
X174500000Y-117250000D02*
X180930002Y-117250000D01*
%TO.N,Net-(J1-Pad18)*%
X193500000Y-105350000D02*
X184275001Y-96125001D01*
X193500000Y-113750000D02*
X193500000Y-105350000D01*
X174500000Y-105900002D02*
X174500000Y-113750000D01*
X184275001Y-96125001D02*
X174500000Y-105900002D01*
%TO.N,Net-(J1-Pad13)*%
X176850002Y-116250000D02*
X184275001Y-108825001D01*
X174500000Y-116250000D02*
X176850002Y-116250000D01*
X191700000Y-116250000D02*
X193500000Y-116250000D01*
X184275001Y-108825001D02*
X191700000Y-116250000D01*
%TO.N,Net-(J1-Pad16)*%
X184275001Y-102005999D02*
X183100000Y-103181000D01*
X184275001Y-101205001D02*
X184275001Y-102005999D01*
X183100000Y-104283592D02*
X182524980Y-104858612D01*
X175371413Y-114750000D02*
X174500000Y-114750000D01*
X182524980Y-107596433D02*
X175371413Y-114750000D01*
X183100000Y-103181000D02*
X183100000Y-104283592D01*
X182524980Y-104858612D02*
X182524980Y-107596433D01*
X192674999Y-109604999D02*
X184275001Y-101205001D01*
X193500000Y-114750000D02*
X194235002Y-114750000D01*
X192739999Y-114725001D02*
X192674999Y-114660001D01*
X194260001Y-114725001D02*
X192739999Y-114725001D01*
X194235002Y-114750000D02*
X194260001Y-114725001D01*
X192674999Y-114660001D02*
X192674999Y-109604999D01*
%TO.N,Net-(J1-Pad17)*%
X184275001Y-99465999D02*
X184275001Y-98665001D01*
X182074973Y-101666027D02*
X184275001Y-99465999D01*
X175260001Y-114225001D02*
X182074970Y-107410032D01*
X174500000Y-114225001D02*
X175260001Y-114225001D01*
X182074970Y-107410032D02*
X182074973Y-101666027D01*
X174500000Y-114250000D02*
X174500000Y-114225001D01*
X194325001Y-114174999D02*
X194250000Y-114250000D01*
X175325001Y-114160001D02*
X175260001Y-114225001D01*
X173739999Y-114225001D02*
X173674999Y-114160001D01*
X183165000Y-94950000D02*
X185385002Y-94950000D01*
X175325001Y-107615001D02*
X175325001Y-114160001D01*
X175260001Y-114225001D02*
X173739999Y-114225001D01*
X185385002Y-94950000D02*
X194325001Y-103889999D01*
X194325001Y-103889999D02*
X194325001Y-114174999D01*
X184275001Y-98665001D02*
X175325001Y-107615001D01*
X173674999Y-104440001D02*
X183165000Y-94950000D01*
X173674999Y-114160001D02*
X173674999Y-104440001D01*
X194250000Y-114250000D02*
X193500000Y-114250000D01*
%TO.N,Net-(J1-Pad9)*%
X183540000Y-118250000D02*
X184275001Y-118985001D01*
X174500000Y-118250000D02*
X183540000Y-118250000D01*
X185010002Y-118250000D02*
X193500000Y-118250000D01*
X184275001Y-118985001D02*
X185010002Y-118250000D01*
%TO.N,Net-(J1-Pad8)*%
X187050002Y-118750000D02*
X184275001Y-121525001D01*
X193500000Y-118750000D02*
X187050002Y-118750000D01*
X181500000Y-118750000D02*
X174500000Y-118750000D01*
X184275001Y-121525001D02*
X181500000Y-118750000D01*
%TO.N,Net-(J1-Pad7)*%
X179460000Y-119250000D02*
X184275001Y-124065001D01*
X174500000Y-119250000D02*
X179460000Y-119250000D01*
X193475001Y-119274999D02*
X193500000Y-119250000D01*
X189065003Y-119274999D02*
X193475001Y-119274999D01*
X184275001Y-124065001D02*
X189065003Y-119274999D01*
%TO.N,Net-(J1-Pad6)*%
X191130002Y-119750000D02*
X184275001Y-126605001D01*
X193500000Y-119750000D02*
X191130002Y-119750000D01*
X177420000Y-119750000D02*
X174500000Y-119750000D01*
X184275001Y-126605001D02*
X177420000Y-119750000D01*
%TO.N,Net-(J1-Pad5)*%
X184275001Y-128880767D02*
X184275001Y-129145001D01*
X175644234Y-120250000D02*
X184275001Y-128880767D01*
X174500000Y-120250000D02*
X175644234Y-120250000D01*
X191324967Y-121280799D02*
X192355766Y-120250000D01*
X191324967Y-122095035D02*
X191324967Y-121280799D01*
X184275001Y-129145001D02*
X191324967Y-122095035D01*
X192355766Y-120250000D02*
X193500000Y-120250000D01*
%TO.N,Net-(J1-Pad4)*%
X176225022Y-121467198D02*
X175507824Y-120750000D01*
X176225022Y-123635022D02*
X176225022Y-121467198D01*
X184275001Y-131685001D02*
X176225022Y-123635022D01*
X175507824Y-120750000D02*
X174500000Y-120750000D01*
X191774978Y-124185024D02*
X184275001Y-131685001D01*
X193500000Y-120750000D02*
X192492176Y-120750000D01*
X191774978Y-121467198D02*
X191774978Y-124185024D01*
X192492176Y-120750000D02*
X191774978Y-121467198D01*
%TO.N,Net-(J1-Pad3)*%
X192628587Y-121250000D02*
X193500000Y-121250000D01*
X192224988Y-121653599D02*
X192628587Y-121250000D01*
X192224988Y-126275014D02*
X192224988Y-121653599D01*
X184275001Y-134225001D02*
X192224988Y-126275014D01*
X175775011Y-121653598D02*
X175775011Y-125725011D01*
X175371413Y-121250000D02*
X175775011Y-121653598D01*
X175775011Y-125725011D02*
X183425002Y-133375002D01*
X183425002Y-133375002D02*
X184275001Y-134225001D01*
X174500000Y-121250000D02*
X175371413Y-121250000D01*
%TO.N,Net-(J1-Pad2)*%
X175325001Y-127815001D02*
X175325001Y-121839998D01*
X175235003Y-121750000D02*
X174500000Y-121750000D01*
X184275001Y-136765001D02*
X175325001Y-127815001D01*
X175325001Y-121839998D02*
X175235003Y-121750000D01*
X192674999Y-121839998D02*
X192674999Y-128365003D01*
X192674999Y-128365003D02*
X184275001Y-136765001D01*
X193500000Y-121750000D02*
X192764997Y-121750000D01*
X192764997Y-121750000D02*
X192674999Y-121839998D01*
%TO.N,Net-(J1-Pad1)*%
X184275001Y-138504003D02*
X184275001Y-139305001D01*
X174500000Y-128729002D02*
X184275001Y-138504003D01*
X174500000Y-122250000D02*
X174500000Y-128729002D01*
X193500000Y-130080002D02*
X193500000Y-122250000D01*
X184275001Y-139305001D02*
X193500000Y-130080002D01*
%TD*%
M02*
