%TF.GenerationSoftware,KiCad,Pcbnew,5.1.6-c6e7f7d~86~ubuntu18.04.1*%
%TF.CreationDate,2020-06-16T08:09:56-04:00*%
%TF.ProjectId,FPC 18 0.5 Breakout,46504320-3138-4203-902e-352042726561,rev?*%
%TF.SameCoordinates,Original*%
%TF.FileFunction,Copper,L2,Bot*%
%TF.FilePolarity,Positive*%
%FSLAX46Y46*%
G04 Gerber Fmt 4.6, Leading zero omitted, Abs format (unit mm)*
G04 Created by KiCad (PCBNEW 5.1.6-c6e7f7d~86~ubuntu18.04.1) date 2020-06-16 08:09:56*
%MOMM*%
%LPD*%
G01*
G04 APERTURE LIST*
%TA.AperFunction,ComponentPad*%
%ADD10O,1.700000X1.700000*%
%TD*%
%TA.AperFunction,ComponentPad*%
%ADD11R,1.700000X1.700000*%
%TD*%
%TA.AperFunction,NonConductor*%
%ADD12C,0.254000*%
%TD*%
G04 APERTURE END LIST*
D10*
%TO.P,J2,18*%
%TO.N,Net-(J1-Pad1)*%
X184275001Y-139305001D03*
%TO.P,J2,17*%
%TO.N,Net-(J1-Pad2)*%
X184275001Y-136765001D03*
%TO.P,J2,16*%
%TO.N,Net-(J1-Pad3)*%
X184275001Y-134225001D03*
%TO.P,J2,15*%
%TO.N,Net-(J1-Pad4)*%
X184275001Y-131685001D03*
%TO.P,J2,14*%
%TO.N,Net-(J1-Pad5)*%
X184275001Y-129145001D03*
%TO.P,J2,13*%
%TO.N,Net-(J1-Pad6)*%
X184275001Y-126605001D03*
%TO.P,J2,12*%
%TO.N,Net-(J1-Pad7)*%
X184275001Y-124065001D03*
%TO.P,J2,11*%
%TO.N,Net-(J1-Pad8)*%
X184275001Y-121525001D03*
%TO.P,J2,10*%
%TO.N,Net-(J1-Pad9)*%
X184275001Y-118985001D03*
%TO.P,J2,9*%
%TO.N,Net-(J1-Pad10)*%
X184275001Y-116445001D03*
%TO.P,J2,8*%
%TO.N,Net-(J1-Pad11)*%
X184275001Y-113905001D03*
%TO.P,J2,7*%
%TO.N,Net-(J1-Pad12)*%
X184275001Y-111365001D03*
%TO.P,J2,6*%
%TO.N,Net-(J1-Pad13)*%
X184275001Y-108825001D03*
%TO.P,J2,5*%
%TO.N,Net-(J1-Pad14)*%
X184275001Y-106285001D03*
%TO.P,J2,4*%
%TO.N,Net-(J1-Pad15)*%
X184275001Y-103745001D03*
%TO.P,J2,3*%
%TO.N,Net-(J1-Pad16)*%
X184275001Y-101205001D03*
%TO.P,J2,2*%
%TO.N,Net-(J1-Pad17)*%
X184275001Y-98665001D03*
D11*
%TO.P,J2,1*%
%TO.N,Net-(J1-Pad18)*%
X184275001Y-96125001D03*
%TD*%
D12*
G36*
X183180821Y-94685499D02*
G01*
X183070507Y-94744464D01*
X182973816Y-94823816D01*
X182894464Y-94920507D01*
X182835499Y-95030821D01*
X182799189Y-95150519D01*
X182786929Y-95275001D01*
X182786929Y-96975001D01*
X182799189Y-97099483D01*
X182835499Y-97219181D01*
X182894464Y-97329495D01*
X182973816Y-97426186D01*
X183070507Y-97505538D01*
X183180821Y-97564503D01*
X183253381Y-97586514D01*
X183121526Y-97718369D01*
X182959011Y-97961590D01*
X182847069Y-98231843D01*
X182790001Y-98518741D01*
X182790001Y-98811261D01*
X182847069Y-99098159D01*
X182959011Y-99368412D01*
X183121526Y-99611633D01*
X183328369Y-99818476D01*
X183502761Y-99935001D01*
X183328369Y-100051526D01*
X183121526Y-100258369D01*
X182959011Y-100501590D01*
X182847069Y-100771843D01*
X182790001Y-101058741D01*
X182790001Y-101351261D01*
X182847069Y-101638159D01*
X182959011Y-101908412D01*
X183121526Y-102151633D01*
X183328369Y-102358476D01*
X183502761Y-102475001D01*
X183328369Y-102591526D01*
X183121526Y-102798369D01*
X182959011Y-103041590D01*
X182847069Y-103311843D01*
X182790001Y-103598741D01*
X182790001Y-103891261D01*
X182847069Y-104178159D01*
X182959011Y-104448412D01*
X183121526Y-104691633D01*
X183328369Y-104898476D01*
X183502761Y-105015001D01*
X183328369Y-105131526D01*
X183121526Y-105338369D01*
X182959011Y-105581590D01*
X182847069Y-105851843D01*
X182790001Y-106138741D01*
X182790001Y-106431261D01*
X182847069Y-106718159D01*
X182959011Y-106988412D01*
X183121526Y-107231633D01*
X183328369Y-107438476D01*
X183502761Y-107555001D01*
X183328369Y-107671526D01*
X183121526Y-107878369D01*
X182959011Y-108121590D01*
X182847069Y-108391843D01*
X182790001Y-108678741D01*
X182790001Y-108971261D01*
X182847069Y-109258159D01*
X182959011Y-109528412D01*
X183121526Y-109771633D01*
X183328369Y-109978476D01*
X183502761Y-110095001D01*
X183328369Y-110211526D01*
X183121526Y-110418369D01*
X182959011Y-110661590D01*
X182847069Y-110931843D01*
X182790001Y-111218741D01*
X182790001Y-111511261D01*
X182847069Y-111798159D01*
X182959011Y-112068412D01*
X183121526Y-112311633D01*
X183328369Y-112518476D01*
X183502761Y-112635001D01*
X183328369Y-112751526D01*
X183121526Y-112958369D01*
X182959011Y-113201590D01*
X182847069Y-113471843D01*
X182790001Y-113758741D01*
X182790001Y-114051261D01*
X182847069Y-114338159D01*
X182959011Y-114608412D01*
X183121526Y-114851633D01*
X183328369Y-115058476D01*
X183502761Y-115175001D01*
X183328369Y-115291526D01*
X183121526Y-115498369D01*
X182959011Y-115741590D01*
X182847069Y-116011843D01*
X182790001Y-116298741D01*
X182790001Y-116591261D01*
X182847069Y-116878159D01*
X182959011Y-117148412D01*
X183121526Y-117391633D01*
X183328369Y-117598476D01*
X183502761Y-117715001D01*
X183328369Y-117831526D01*
X183121526Y-118038369D01*
X182959011Y-118281590D01*
X182847069Y-118551843D01*
X182790001Y-118838741D01*
X182790001Y-119131261D01*
X182847069Y-119418159D01*
X182959011Y-119688412D01*
X183121526Y-119931633D01*
X183328369Y-120138476D01*
X183502761Y-120255001D01*
X183328369Y-120371526D01*
X183121526Y-120578369D01*
X182959011Y-120821590D01*
X182847069Y-121091843D01*
X182790001Y-121378741D01*
X182790001Y-121671261D01*
X182847069Y-121958159D01*
X182959011Y-122228412D01*
X183121526Y-122471633D01*
X183328369Y-122678476D01*
X183502761Y-122795001D01*
X183328369Y-122911526D01*
X183121526Y-123118369D01*
X182959011Y-123361590D01*
X182847069Y-123631843D01*
X182790001Y-123918741D01*
X182790001Y-124211261D01*
X182847069Y-124498159D01*
X182959011Y-124768412D01*
X183121526Y-125011633D01*
X183328369Y-125218476D01*
X183502761Y-125335001D01*
X183328369Y-125451526D01*
X183121526Y-125658369D01*
X182959011Y-125901590D01*
X182847069Y-126171843D01*
X182790001Y-126458741D01*
X182790001Y-126751261D01*
X182847069Y-127038159D01*
X182959011Y-127308412D01*
X183121526Y-127551633D01*
X183328369Y-127758476D01*
X183502761Y-127875001D01*
X183328369Y-127991526D01*
X183121526Y-128198369D01*
X182959011Y-128441590D01*
X182847069Y-128711843D01*
X182790001Y-128998741D01*
X182790001Y-129291261D01*
X182847069Y-129578159D01*
X182959011Y-129848412D01*
X183121526Y-130091633D01*
X183328369Y-130298476D01*
X183502761Y-130415001D01*
X183328369Y-130531526D01*
X183121526Y-130738369D01*
X182959011Y-130981590D01*
X182847069Y-131251843D01*
X182790001Y-131538741D01*
X182790001Y-131831261D01*
X182847069Y-132118159D01*
X182959011Y-132388412D01*
X183121526Y-132631633D01*
X183328369Y-132838476D01*
X183502761Y-132955001D01*
X183328369Y-133071526D01*
X183121526Y-133278369D01*
X182959011Y-133521590D01*
X182847069Y-133791843D01*
X182790001Y-134078741D01*
X182790001Y-134371261D01*
X182847069Y-134658159D01*
X182959011Y-134928412D01*
X183121526Y-135171633D01*
X183328369Y-135378476D01*
X183502761Y-135495001D01*
X183328369Y-135611526D01*
X183121526Y-135818369D01*
X182959011Y-136061590D01*
X182847069Y-136331843D01*
X182790001Y-136618741D01*
X182790001Y-136911261D01*
X182847069Y-137198159D01*
X182959011Y-137468412D01*
X183121526Y-137711633D01*
X183328369Y-137918476D01*
X183502761Y-138035001D01*
X183328369Y-138151526D01*
X183121526Y-138358369D01*
X182959011Y-138601590D01*
X182847069Y-138871843D01*
X182790001Y-139158741D01*
X182790001Y-139451261D01*
X182847069Y-139738159D01*
X182959011Y-140008412D01*
X183121526Y-140251633D01*
X183328369Y-140458476D01*
X183571590Y-140620991D01*
X183841843Y-140732933D01*
X184128741Y-140790001D01*
X184421261Y-140790001D01*
X184708159Y-140732933D01*
X184978412Y-140620991D01*
X185221633Y-140458476D01*
X185428476Y-140251633D01*
X185590991Y-140008412D01*
X185702933Y-139738159D01*
X185760001Y-139451261D01*
X185760001Y-139158741D01*
X185702933Y-138871843D01*
X185590991Y-138601590D01*
X185428476Y-138358369D01*
X185221633Y-138151526D01*
X185047241Y-138035001D01*
X185221633Y-137918476D01*
X185428476Y-137711633D01*
X185590991Y-137468412D01*
X185702933Y-137198159D01*
X185760001Y-136911261D01*
X185760001Y-136618741D01*
X185702933Y-136331843D01*
X185590991Y-136061590D01*
X185428476Y-135818369D01*
X185221633Y-135611526D01*
X185047241Y-135495001D01*
X185221633Y-135378476D01*
X185428476Y-135171633D01*
X185590991Y-134928412D01*
X185702933Y-134658159D01*
X185760001Y-134371261D01*
X185760001Y-134078741D01*
X185702933Y-133791843D01*
X185590991Y-133521590D01*
X185428476Y-133278369D01*
X185221633Y-133071526D01*
X185047241Y-132955001D01*
X185221633Y-132838476D01*
X185428476Y-132631633D01*
X185590991Y-132388412D01*
X185702933Y-132118159D01*
X185760001Y-131831261D01*
X185760001Y-131538741D01*
X185702933Y-131251843D01*
X185590991Y-130981590D01*
X185428476Y-130738369D01*
X185221633Y-130531526D01*
X185047241Y-130415001D01*
X185221633Y-130298476D01*
X185428476Y-130091633D01*
X185590991Y-129848412D01*
X185702933Y-129578159D01*
X185760001Y-129291261D01*
X185760001Y-128998741D01*
X185702933Y-128711843D01*
X185590991Y-128441590D01*
X185428476Y-128198369D01*
X185221633Y-127991526D01*
X185047241Y-127875001D01*
X185221633Y-127758476D01*
X185428476Y-127551633D01*
X185590991Y-127308412D01*
X185702933Y-127038159D01*
X185760001Y-126751261D01*
X185760001Y-126458741D01*
X185702933Y-126171843D01*
X185590991Y-125901590D01*
X185428476Y-125658369D01*
X185221633Y-125451526D01*
X185047241Y-125335001D01*
X185221633Y-125218476D01*
X185428476Y-125011633D01*
X185590991Y-124768412D01*
X185702933Y-124498159D01*
X185760001Y-124211261D01*
X185760001Y-123918741D01*
X185702933Y-123631843D01*
X185590991Y-123361590D01*
X185428476Y-123118369D01*
X185221633Y-122911526D01*
X185047241Y-122795001D01*
X185221633Y-122678476D01*
X185428476Y-122471633D01*
X185590991Y-122228412D01*
X185702933Y-121958159D01*
X185760001Y-121671261D01*
X185760001Y-121378741D01*
X185702933Y-121091843D01*
X185590991Y-120821590D01*
X185428476Y-120578369D01*
X185221633Y-120371526D01*
X185047241Y-120255001D01*
X185221633Y-120138476D01*
X185428476Y-119931633D01*
X185590991Y-119688412D01*
X185702933Y-119418159D01*
X185760001Y-119131261D01*
X185760001Y-118838741D01*
X185702933Y-118551843D01*
X185590991Y-118281590D01*
X185428476Y-118038369D01*
X185221633Y-117831526D01*
X185047241Y-117715001D01*
X185221633Y-117598476D01*
X185428476Y-117391633D01*
X185590991Y-117148412D01*
X185702933Y-116878159D01*
X185760001Y-116591261D01*
X185760001Y-116298741D01*
X185702933Y-116011843D01*
X185590991Y-115741590D01*
X185428476Y-115498369D01*
X185221633Y-115291526D01*
X185047241Y-115175001D01*
X185221633Y-115058476D01*
X185428476Y-114851633D01*
X185590991Y-114608412D01*
X185702933Y-114338159D01*
X185760001Y-114051261D01*
X185760001Y-113758741D01*
X185702933Y-113471843D01*
X185590991Y-113201590D01*
X185428476Y-112958369D01*
X185221633Y-112751526D01*
X185047241Y-112635001D01*
X185221633Y-112518476D01*
X185428476Y-112311633D01*
X185590991Y-112068412D01*
X185702933Y-111798159D01*
X185760001Y-111511261D01*
X185760001Y-111218741D01*
X185702933Y-110931843D01*
X185590991Y-110661590D01*
X185428476Y-110418369D01*
X185221633Y-110211526D01*
X185047241Y-110095001D01*
X185221633Y-109978476D01*
X185428476Y-109771633D01*
X185590991Y-109528412D01*
X185702933Y-109258159D01*
X185760001Y-108971261D01*
X185760001Y-108678741D01*
X185702933Y-108391843D01*
X185590991Y-108121590D01*
X185428476Y-107878369D01*
X185221633Y-107671526D01*
X185047241Y-107555001D01*
X185221633Y-107438476D01*
X185428476Y-107231633D01*
X185590991Y-106988412D01*
X185702933Y-106718159D01*
X185760001Y-106431261D01*
X185760001Y-106138741D01*
X185702933Y-105851843D01*
X185590991Y-105581590D01*
X185428476Y-105338369D01*
X185221633Y-105131526D01*
X185047241Y-105015001D01*
X185221633Y-104898476D01*
X185428476Y-104691633D01*
X185590991Y-104448412D01*
X185702933Y-104178159D01*
X185760001Y-103891261D01*
X185760001Y-103598741D01*
X185702933Y-103311843D01*
X185590991Y-103041590D01*
X185428476Y-102798369D01*
X185221633Y-102591526D01*
X185047241Y-102475001D01*
X185221633Y-102358476D01*
X185428476Y-102151633D01*
X185590991Y-101908412D01*
X185702933Y-101638159D01*
X185760001Y-101351261D01*
X185760001Y-101058741D01*
X185702933Y-100771843D01*
X185590991Y-100501590D01*
X185428476Y-100258369D01*
X185221633Y-100051526D01*
X185047241Y-99935001D01*
X185221633Y-99818476D01*
X185428476Y-99611633D01*
X185590991Y-99368412D01*
X185702933Y-99098159D01*
X185760001Y-98811261D01*
X185760001Y-98518741D01*
X185702933Y-98231843D01*
X185590991Y-97961590D01*
X185428476Y-97718369D01*
X185296621Y-97586514D01*
X185369181Y-97564503D01*
X185479495Y-97505538D01*
X185576186Y-97426186D01*
X185655538Y-97329495D01*
X185714503Y-97219181D01*
X185750813Y-97099483D01*
X185763073Y-96975001D01*
X185763073Y-95275001D01*
X185750813Y-95150519D01*
X185714503Y-95030821D01*
X185655538Y-94920507D01*
X185576186Y-94823816D01*
X185479495Y-94744464D01*
X185369181Y-94685499D01*
X185285122Y-94660000D01*
X197840000Y-94660000D01*
X197840001Y-142340000D01*
X169660000Y-142340000D01*
X169660000Y-94660000D01*
X183264880Y-94660000D01*
X183180821Y-94685499D01*
G37*
X183180821Y-94685499D02*
X183070507Y-94744464D01*
X182973816Y-94823816D01*
X182894464Y-94920507D01*
X182835499Y-95030821D01*
X182799189Y-95150519D01*
X182786929Y-95275001D01*
X182786929Y-96975001D01*
X182799189Y-97099483D01*
X182835499Y-97219181D01*
X182894464Y-97329495D01*
X182973816Y-97426186D01*
X183070507Y-97505538D01*
X183180821Y-97564503D01*
X183253381Y-97586514D01*
X183121526Y-97718369D01*
X182959011Y-97961590D01*
X182847069Y-98231843D01*
X182790001Y-98518741D01*
X182790001Y-98811261D01*
X182847069Y-99098159D01*
X182959011Y-99368412D01*
X183121526Y-99611633D01*
X183328369Y-99818476D01*
X183502761Y-99935001D01*
X183328369Y-100051526D01*
X183121526Y-100258369D01*
X182959011Y-100501590D01*
X182847069Y-100771843D01*
X182790001Y-101058741D01*
X182790001Y-101351261D01*
X182847069Y-101638159D01*
X182959011Y-101908412D01*
X183121526Y-102151633D01*
X183328369Y-102358476D01*
X183502761Y-102475001D01*
X183328369Y-102591526D01*
X183121526Y-102798369D01*
X182959011Y-103041590D01*
X182847069Y-103311843D01*
X182790001Y-103598741D01*
X182790001Y-103891261D01*
X182847069Y-104178159D01*
X182959011Y-104448412D01*
X183121526Y-104691633D01*
X183328369Y-104898476D01*
X183502761Y-105015001D01*
X183328369Y-105131526D01*
X183121526Y-105338369D01*
X182959011Y-105581590D01*
X182847069Y-105851843D01*
X182790001Y-106138741D01*
X182790001Y-106431261D01*
X182847069Y-106718159D01*
X182959011Y-106988412D01*
X183121526Y-107231633D01*
X183328369Y-107438476D01*
X183502761Y-107555001D01*
X183328369Y-107671526D01*
X183121526Y-107878369D01*
X182959011Y-108121590D01*
X182847069Y-108391843D01*
X182790001Y-108678741D01*
X182790001Y-108971261D01*
X182847069Y-109258159D01*
X182959011Y-109528412D01*
X183121526Y-109771633D01*
X183328369Y-109978476D01*
X183502761Y-110095001D01*
X183328369Y-110211526D01*
X183121526Y-110418369D01*
X182959011Y-110661590D01*
X182847069Y-110931843D01*
X182790001Y-111218741D01*
X182790001Y-111511261D01*
X182847069Y-111798159D01*
X182959011Y-112068412D01*
X183121526Y-112311633D01*
X183328369Y-112518476D01*
X183502761Y-112635001D01*
X183328369Y-112751526D01*
X183121526Y-112958369D01*
X182959011Y-113201590D01*
X182847069Y-113471843D01*
X182790001Y-113758741D01*
X182790001Y-114051261D01*
X182847069Y-114338159D01*
X182959011Y-114608412D01*
X183121526Y-114851633D01*
X183328369Y-115058476D01*
X183502761Y-115175001D01*
X183328369Y-115291526D01*
X183121526Y-115498369D01*
X182959011Y-115741590D01*
X182847069Y-116011843D01*
X182790001Y-116298741D01*
X182790001Y-116591261D01*
X182847069Y-116878159D01*
X182959011Y-117148412D01*
X183121526Y-117391633D01*
X183328369Y-117598476D01*
X183502761Y-117715001D01*
X183328369Y-117831526D01*
X183121526Y-118038369D01*
X182959011Y-118281590D01*
X182847069Y-118551843D01*
X182790001Y-118838741D01*
X182790001Y-119131261D01*
X182847069Y-119418159D01*
X182959011Y-119688412D01*
X183121526Y-119931633D01*
X183328369Y-120138476D01*
X183502761Y-120255001D01*
X183328369Y-120371526D01*
X183121526Y-120578369D01*
X182959011Y-120821590D01*
X182847069Y-121091843D01*
X182790001Y-121378741D01*
X182790001Y-121671261D01*
X182847069Y-121958159D01*
X182959011Y-122228412D01*
X183121526Y-122471633D01*
X183328369Y-122678476D01*
X183502761Y-122795001D01*
X183328369Y-122911526D01*
X183121526Y-123118369D01*
X182959011Y-123361590D01*
X182847069Y-123631843D01*
X182790001Y-123918741D01*
X182790001Y-124211261D01*
X182847069Y-124498159D01*
X182959011Y-124768412D01*
X183121526Y-125011633D01*
X183328369Y-125218476D01*
X183502761Y-125335001D01*
X183328369Y-125451526D01*
X183121526Y-125658369D01*
X182959011Y-125901590D01*
X182847069Y-126171843D01*
X182790001Y-126458741D01*
X182790001Y-126751261D01*
X182847069Y-127038159D01*
X182959011Y-127308412D01*
X183121526Y-127551633D01*
X183328369Y-127758476D01*
X183502761Y-127875001D01*
X183328369Y-127991526D01*
X183121526Y-128198369D01*
X182959011Y-128441590D01*
X182847069Y-128711843D01*
X182790001Y-128998741D01*
X182790001Y-129291261D01*
X182847069Y-129578159D01*
X182959011Y-129848412D01*
X183121526Y-130091633D01*
X183328369Y-130298476D01*
X183502761Y-130415001D01*
X183328369Y-130531526D01*
X183121526Y-130738369D01*
X182959011Y-130981590D01*
X182847069Y-131251843D01*
X182790001Y-131538741D01*
X182790001Y-131831261D01*
X182847069Y-132118159D01*
X182959011Y-132388412D01*
X183121526Y-132631633D01*
X183328369Y-132838476D01*
X183502761Y-132955001D01*
X183328369Y-133071526D01*
X183121526Y-133278369D01*
X182959011Y-133521590D01*
X182847069Y-133791843D01*
X182790001Y-134078741D01*
X182790001Y-134371261D01*
X182847069Y-134658159D01*
X182959011Y-134928412D01*
X183121526Y-135171633D01*
X183328369Y-135378476D01*
X183502761Y-135495001D01*
X183328369Y-135611526D01*
X183121526Y-135818369D01*
X182959011Y-136061590D01*
X182847069Y-136331843D01*
X182790001Y-136618741D01*
X182790001Y-136911261D01*
X182847069Y-137198159D01*
X182959011Y-137468412D01*
X183121526Y-137711633D01*
X183328369Y-137918476D01*
X183502761Y-138035001D01*
X183328369Y-138151526D01*
X183121526Y-138358369D01*
X182959011Y-138601590D01*
X182847069Y-138871843D01*
X182790001Y-139158741D01*
X182790001Y-139451261D01*
X182847069Y-139738159D01*
X182959011Y-140008412D01*
X183121526Y-140251633D01*
X183328369Y-140458476D01*
X183571590Y-140620991D01*
X183841843Y-140732933D01*
X184128741Y-140790001D01*
X184421261Y-140790001D01*
X184708159Y-140732933D01*
X184978412Y-140620991D01*
X185221633Y-140458476D01*
X185428476Y-140251633D01*
X185590991Y-140008412D01*
X185702933Y-139738159D01*
X185760001Y-139451261D01*
X185760001Y-139158741D01*
X185702933Y-138871843D01*
X185590991Y-138601590D01*
X185428476Y-138358369D01*
X185221633Y-138151526D01*
X185047241Y-138035001D01*
X185221633Y-137918476D01*
X185428476Y-137711633D01*
X185590991Y-137468412D01*
X185702933Y-137198159D01*
X185760001Y-136911261D01*
X185760001Y-136618741D01*
X185702933Y-136331843D01*
X185590991Y-136061590D01*
X185428476Y-135818369D01*
X185221633Y-135611526D01*
X185047241Y-135495001D01*
X185221633Y-135378476D01*
X185428476Y-135171633D01*
X185590991Y-134928412D01*
X185702933Y-134658159D01*
X185760001Y-134371261D01*
X185760001Y-134078741D01*
X185702933Y-133791843D01*
X185590991Y-133521590D01*
X185428476Y-133278369D01*
X185221633Y-133071526D01*
X185047241Y-132955001D01*
X185221633Y-132838476D01*
X185428476Y-132631633D01*
X185590991Y-132388412D01*
X185702933Y-132118159D01*
X185760001Y-131831261D01*
X185760001Y-131538741D01*
X185702933Y-131251843D01*
X185590991Y-130981590D01*
X185428476Y-130738369D01*
X185221633Y-130531526D01*
X185047241Y-130415001D01*
X185221633Y-130298476D01*
X185428476Y-130091633D01*
X185590991Y-129848412D01*
X185702933Y-129578159D01*
X185760001Y-129291261D01*
X185760001Y-128998741D01*
X185702933Y-128711843D01*
X185590991Y-128441590D01*
X185428476Y-128198369D01*
X185221633Y-127991526D01*
X185047241Y-127875001D01*
X185221633Y-127758476D01*
X185428476Y-127551633D01*
X185590991Y-127308412D01*
X185702933Y-127038159D01*
X185760001Y-126751261D01*
X185760001Y-126458741D01*
X185702933Y-126171843D01*
X185590991Y-125901590D01*
X185428476Y-125658369D01*
X185221633Y-125451526D01*
X185047241Y-125335001D01*
X185221633Y-125218476D01*
X185428476Y-125011633D01*
X185590991Y-124768412D01*
X185702933Y-124498159D01*
X185760001Y-124211261D01*
X185760001Y-123918741D01*
X185702933Y-123631843D01*
X185590991Y-123361590D01*
X185428476Y-123118369D01*
X185221633Y-122911526D01*
X185047241Y-122795001D01*
X185221633Y-122678476D01*
X185428476Y-122471633D01*
X185590991Y-122228412D01*
X185702933Y-121958159D01*
X185760001Y-121671261D01*
X185760001Y-121378741D01*
X185702933Y-121091843D01*
X185590991Y-120821590D01*
X185428476Y-120578369D01*
X185221633Y-120371526D01*
X185047241Y-120255001D01*
X185221633Y-120138476D01*
X185428476Y-119931633D01*
X185590991Y-119688412D01*
X185702933Y-119418159D01*
X185760001Y-119131261D01*
X185760001Y-118838741D01*
X185702933Y-118551843D01*
X185590991Y-118281590D01*
X185428476Y-118038369D01*
X185221633Y-117831526D01*
X185047241Y-117715001D01*
X185221633Y-117598476D01*
X185428476Y-117391633D01*
X185590991Y-117148412D01*
X185702933Y-116878159D01*
X185760001Y-116591261D01*
X185760001Y-116298741D01*
X185702933Y-116011843D01*
X185590991Y-115741590D01*
X185428476Y-115498369D01*
X185221633Y-115291526D01*
X185047241Y-115175001D01*
X185221633Y-115058476D01*
X185428476Y-114851633D01*
X185590991Y-114608412D01*
X185702933Y-114338159D01*
X185760001Y-114051261D01*
X185760001Y-113758741D01*
X185702933Y-113471843D01*
X185590991Y-113201590D01*
X185428476Y-112958369D01*
X185221633Y-112751526D01*
X185047241Y-112635001D01*
X185221633Y-112518476D01*
X185428476Y-112311633D01*
X185590991Y-112068412D01*
X185702933Y-111798159D01*
X185760001Y-111511261D01*
X185760001Y-111218741D01*
X185702933Y-110931843D01*
X185590991Y-110661590D01*
X185428476Y-110418369D01*
X185221633Y-110211526D01*
X185047241Y-110095001D01*
X185221633Y-109978476D01*
X185428476Y-109771633D01*
X185590991Y-109528412D01*
X185702933Y-109258159D01*
X185760001Y-108971261D01*
X185760001Y-108678741D01*
X185702933Y-108391843D01*
X185590991Y-108121590D01*
X185428476Y-107878369D01*
X185221633Y-107671526D01*
X185047241Y-107555001D01*
X185221633Y-107438476D01*
X185428476Y-107231633D01*
X185590991Y-106988412D01*
X185702933Y-106718159D01*
X185760001Y-106431261D01*
X185760001Y-106138741D01*
X185702933Y-105851843D01*
X185590991Y-105581590D01*
X185428476Y-105338369D01*
X185221633Y-105131526D01*
X185047241Y-105015001D01*
X185221633Y-104898476D01*
X185428476Y-104691633D01*
X185590991Y-104448412D01*
X185702933Y-104178159D01*
X185760001Y-103891261D01*
X185760001Y-103598741D01*
X185702933Y-103311843D01*
X185590991Y-103041590D01*
X185428476Y-102798369D01*
X185221633Y-102591526D01*
X185047241Y-102475001D01*
X185221633Y-102358476D01*
X185428476Y-102151633D01*
X185590991Y-101908412D01*
X185702933Y-101638159D01*
X185760001Y-101351261D01*
X185760001Y-101058741D01*
X185702933Y-100771843D01*
X185590991Y-100501590D01*
X185428476Y-100258369D01*
X185221633Y-100051526D01*
X185047241Y-99935001D01*
X185221633Y-99818476D01*
X185428476Y-99611633D01*
X185590991Y-99368412D01*
X185702933Y-99098159D01*
X185760001Y-98811261D01*
X185760001Y-98518741D01*
X185702933Y-98231843D01*
X185590991Y-97961590D01*
X185428476Y-97718369D01*
X185296621Y-97586514D01*
X185369181Y-97564503D01*
X185479495Y-97505538D01*
X185576186Y-97426186D01*
X185655538Y-97329495D01*
X185714503Y-97219181D01*
X185750813Y-97099483D01*
X185763073Y-96975001D01*
X185763073Y-95275001D01*
X185750813Y-95150519D01*
X185714503Y-95030821D01*
X185655538Y-94920507D01*
X185576186Y-94823816D01*
X185479495Y-94744464D01*
X185369181Y-94685499D01*
X185285122Y-94660000D01*
X197840000Y-94660000D01*
X197840001Y-142340000D01*
X169660000Y-142340000D01*
X169660000Y-94660000D01*
X183264880Y-94660000D01*
X183180821Y-94685499D01*
M02*
